<?xml version="1.0" standalone="no"?>
<!DOCTYPE svg PUBLIC "-//W3C//DTD SVG 1.1//EN" "http://www.w3.org/Graphics/SVG/1.1/DTD/svg11.dtd" >
<svg xmlns="http://www.w3.org/2000/svg">
<metadata></metadata>
<defs>
<font id="johnston_itc_std_lightbold" horiz-adv-x="1222" >
<font-face units-per-em="2048" ascent="1638" descent="-410" />
<missing-glyph horiz-adv-x="417" />
<glyph unicode="&#xfb01;" horiz-adv-x="1384" d="M51 717v225h154v119q0 156 99.5 250t275.5 94q143 0 262 -45v-238q-93 52 -203 52q-73 0 -109 -38t-36 -102v-92h284v-225h-284v-717h-289v717h-154zM915 1217l189 188l188 -188l-188 -189zM958 0v942h289v-942h-289z" />
<glyph unicode="&#xfb02;" horiz-adv-x="1617" d="M51 717v225h154v119q0 156 99.5 250t275.5 94q143 0 262 -45v-238q-93 52 -203 52q-73 0 -109 -38t-36 -102v-92h284v-225h-284v-717h-289v717h-154zM991 319v1057h289v-1026q0 -125 125 -125q34 0 79.5 12.5t78.5 34.5v-235q-120 -57 -246 -57q-158 0 -242 95.5 t-84 243.5z" />
<glyph horiz-adv-x="0" />
<glyph horiz-adv-x="682" />
<glyph unicode=" "  horiz-adv-x="417" />
<glyph unicode="&#x09;" horiz-adv-x="417" />
<glyph unicode="&#xa0;" horiz-adv-x="417" />
<glyph unicode="!" horiz-adv-x="634" d="M141 119l176 178l177 -178l-177 -176zM166 1102v274h303v-274l-84 -725h-135z" />
<glyph unicode="&#x22;" horiz-adv-x="1048" d="M195 1159v217h237v-217l-55 -303h-127zM616 1159v217h238v-217l-55 -303h-127z" />
<glyph unicode="#" horiz-adv-x="1443" d="M18 330l43 209h220l63 301h-219l43 209h219l86 407h244l-86 -407h334l86 407h243l-86 -407h217l-43 -209h-217l-63 -301h217l-43 -209h-219l-86 -410h-244l86 410h-334l-86 -410h-243l86 410h-218zM524 539h334l64 301h-334z" />
<glyph unicode="$" d="M113 199l170 155q43 -64 103 -101.5t153 -47.5v399q-45 21 -74 36t-71.5 40t-69.5 48t-58 56.5t-48.5 69t-29.5 82.5t-12 100q0 141 99.5 244.5t263.5 120.5v182h145v-184q180 -23 309 -168l-155 -170q-72 72 -154 98v-301q52 -25 88 -44.5t84 -50t80 -63t62 -74.5 t44.5 -94t14.5 -112q0 -179 -104 -299t-269 -144v-172h-145v168q-152 10 -252.5 67.5t-173.5 158.5zM436 1047q0 -61 103 -117v237q-53 -13 -78 -45.5t-25 -74.5zM684 217q52 20 83.5 60t31.5 96q0 88 -115 157v-313z" />
<glyph unicode="%" horiz-adv-x="1757" d="M121 1067q0 139 99.5 238.5t238.5 99.5t238.5 -99.5t99.5 -238.5t-99.5 -238.5t-238.5 -99.5t-238.5 99.5t-99.5 238.5zM297 0l895 1376h264l-895 -1376h-264zM326 1067q0 -55 39 -94t94 -39t94 39t39 94t-39 94t-94 39t-94 -39t-39 -94zM961 309q0 140 99 239t238 99 q140 0 239 -99.5t99 -238.5t-99 -238.5t-239 -99.5q-139 0 -238 99t-99 239zM1165 309q0 -55 38.5 -94t94.5 -39t95 39t39 94t-39 94t-95 39t-94.5 -39t-38.5 -94z" />
<glyph unicode="&#x26;" horiz-adv-x="1486" d="M84 371q0 108 65 208t191 181q-135 153 -135 289q0 106 57.5 188.5t150 125t201.5 42.5q97 0 173.5 -28.5t122 -75.5t68.5 -102.5t23 -113.5q0 -94 -60 -189t-181 -165l205 -201q74 91 127 203h286q-33 -80 -99.5 -188t-135.5 -191l362 -354h-381l-161 160 q-96 -96 -207 -142.5t-211 -46.5q-107 0 -195.5 33t-145.5 88.5t-88.5 127.5t-31.5 151zM391 385q0 -60 50.5 -108t138.5 -48q109 0 206 103l-260 256q-70 -43 -102.5 -92t-32.5 -111zM494 1044q0 -30 25.5 -72t72.5 -81q75 39 108 84t33 86q0 45 -33.5 71.5t-85.5 26.5 q-51 0 -85.5 -31.5t-34.5 -83.5z" />
<glyph unicode="'" horiz-adv-x="585" d="M174 1159v217h238v-217l-56 -303h-127z" />
<glyph unicode="(" horiz-adv-x="800" d="M172 676q0 250 72 510t200 495h293q-146 -257 -217 -492t-71 -513t71 -513.5t217 -492.5h-293q-128 235 -200 495t-72 511z" />
<glyph unicode=")" horiz-adv-x="800" d="M63 -330q146 258 217.5 493.5t71.5 512.5t-71.5 512t-217.5 493h293q128 -236 200.5 -495.5t72.5 -509.5t-72.5 -510.5t-200.5 -495.5h-293z" />
<glyph unicode="*" horiz-adv-x="827" d="M63 922l224 90l-224 92l97 166l192 -148l-35 254h193l-35 -254l193 148l96 -166l-223 -92l223 -90l-96 -166l-193 147l35 -254h-193l35 254l-192 -147z" />
<glyph unicode="+" d="M195 575v224h305v325h223v-325h305v-224h-305v-325h-223v325h-305z" />
<glyph unicode="," horiz-adv-x="573" d="M-2 -180q47 13 78.5 30t51 37t29 51.5t12.5 63t3 82.5v197h264v-189q0 -39 -6.5 -76.5t-26 -79t-50.5 -72t-85.5 -51t-124.5 -20.5q-40 0 -83 8t-62 19z" />
<glyph unicode="-" horiz-adv-x="878" d="M102 391v238h674v-238h-674z" />
<glyph unicode="." horiz-adv-x="573" d="M145 0v281h283v-281h-283z" />
<glyph unicode="/" horiz-adv-x="813" d="M59 -264l504 1902h273l-504 -1902h-273z" />
<glyph unicode="0" d="M104 690q0 118 18.5 223t58.5 195.5t98.5 156t143 103t187.5 37.5t187.5 -37.5t143 -103t98.5 -156t58.5 -195.5t18.5 -223t-18.5 -223t-58.5 -195.5t-98.5 -156t-143 -103t-187.5 -37.5t-187.5 37.5t-143 103t-98.5 156t-58.5 195.5t-18.5 223zM412 690q0 -120 17 -210 t46 -140t63 -74t72 -24t72 24t63.5 74t46.5 140t17 210t-17.5 210t-46.5 140.5t-63 74.5t-72 24t-72 -24t-63 -74.5t-46 -140.5t-17 -210z" />
<glyph unicode="1" d="M463 0v1233l295 201v-1434h-295z" />
<glyph unicode="2" d="M154 0q199 322 352 614t153 371q0 65 -37.5 103t-101.5 38q-96 0 -192.5 -69.5t-153.5 -151.5v332q183 168 387 168q169 0 286.5 -122.5t117.5 -287.5q0 -215 -340 -731h387v-264h-858z" />
<glyph unicode="3" d="M109 240l217 190q15 -38 31.5 -66.5t42 -57.5t62 -44.5t81.5 -15.5q92 0 148.5 62t56.5 159q0 36 -13.5 72t-40 69t-74.5 53.5t-110 20.5q-33 0 -80.5 -9.5t-73.5 -19.5l224 459h-430v264h878l-260 -532q38 -14 72 -34t71.5 -54.5t64.5 -77t44.5 -105t17.5 -135.5 q0 -131 -65.5 -239t-175 -168t-236.5 -60q-278 0 -452 269z" />
<glyph unicode="4" d="M-29 240l1059 1181v-932h178v-249h-178v-240h-278v240h-781zM516 483h244v269z" />
<glyph unicode="5" d="M104 240l218 190q15 -38 31.5 -66.5t42 -57.5t62 -44.5t81.5 -15.5q92 0 148 61.5t56 159.5q0 36 -14.5 73.5t-42.5 71.5t-77 56t-111 22q-122 0 -252 -76l49 762h747l-131 -264h-362l-10 -225q32 4 55 4q188 0 314 -131t126 -322q0 -131 -65.5 -239t-175 -168 t-236.5 -60q-279 0 -453 269z" />
<glyph unicode="6" d="M160 494q0 222 113.5 435t357.5 447h389q-147 -131 -279 -287.5t-190 -283.5q32 11 45 15t46 9t75 5q173 0 289 -125t116 -306q0 -74 -29.5 -148.5t-84.5 -138.5t-145.5 -104.5t-200.5 -40.5q-226 0 -364 143t-138 380zM465 449q0 -34 11 -68.5t32.5 -66t59.5 -51 t87 -19.5q71 0 121.5 48.5t50.5 123.5q0 65 -47.5 117.5t-132.5 52.5q-97 0 -174 -72q-8 -39 -8 -65z" />
<glyph unicode="7" d="M117 1112v264h1036l-672 -1376h-315l543 1112h-592z" />
<glyph unicode="8" d="M143 373q0 118 61.5 208t184.5 169q-168 129 -168 297q0 158 107.5 258t281.5 100q91 0 166 -29t123 -78t74 -112t26 -133q0 -152 -170 -289q248 -147 248 -371q0 -81 -33 -157t-92 -135t-148.5 -94.5t-193.5 -35.5q-91 0 -175.5 29t-149.5 80t-103.5 127.5t-38.5 165.5z M428 391q0 -65 52.5 -110t129.5 -45q83 0 133 49t50 127q0 109 -185 204q-59 -33 -96.5 -62.5t-55 -57.5t-23 -51t-5.5 -54zM469 1030q0 -44 31 -81.5t108 -80.5q66 25 105 72.5t39 83.5q0 55 -40 92t-102 37q-56 0 -98.5 -32t-42.5 -91z" />
<glyph unicode="9" d="M113 973q0 74 29.5 148.5t84.5 138.5t145.5 104.5t200.5 40.5q226 0 364 -142.5t138 -379.5q0 -220 -109 -423.5t-362 -459.5h-395q152 136 275.5 284t191.5 285q-31 -11 -43 -14.5t-42 -7.5t-73 -4q-174 0 -289.5 124.5t-115.5 305.5zM408 961q0 -65 47.5 -117.5 t132.5 -52.5q98 0 174 71q8 39 8 66q0 30 -11 63.5t-32.5 66t-60 54t-86.5 21.5q-71 0 -121.5 -48.5t-50.5 -123.5z" />
<glyph unicode=":" horiz-adv-x="573" d="M145 0v281h283v-281h-283zM145 557v281h283v-281h-283z" />
<glyph unicode=";" horiz-adv-x="573" d="M-2 -180q47 13 78.5 30t51 37t29 51.5t12.5 63t3 82.5v197h264v-189q0 -39 -6.5 -76.5t-26 -79t-50.5 -72t-85.5 -51t-124.5 -20.5q-40 0 -83 8t-62 19zM164 557v281h280v-281h-280z" />
<glyph unicode="&#x3c;" d="M195 575v224l833 325v-223l-549 -213l549 -215v-223z" />
<glyph unicode="=" d="M195 377v223h833v-223h-833zM195 774v223h833v-223h-833z" />
<glyph unicode="&#x3e;" d="M195 250v223l548 215l-548 213v223l833 -325v-224z" />
<glyph unicode="?" horiz-adv-x="931" d="M35 1147q74 128 173 193t241 65q74 0 142.5 -24.5t123 -70.5t87 -119t32.5 -163q0 -91 -46.5 -162t-156.5 -170q-64 -57 -83.5 -80t-19.5 -41q0 -21 21 -49l-191 -164q-114 109 -114 222q0 48 17 86t49 74.5t104 105.5q79 76 103 107.5t24 64.5q0 48 -31.5 78t-87.5 30 q-63 0 -109 -38t-88 -117zM197 119l176 178l176 -178l-176 -176z" />
<glyph unicode="@" horiz-adv-x="2007" d="M123 635q0 183 71 349t191 286t286 191t349 71t349.5 -71t285.5 -189t189.5 -277t70.5 -329q0 -130 -31 -234t-77 -164.5t-104 -100.5t-106 -54.5t-90 -14.5q-225 0 -311 203q-78 -60 -166.5 -95.5t-157.5 -35.5q-84 0 -154.5 31t-115.5 96.5t-45 153.5q0 153 158 243 q154 88 436 101q-1 40 -14 69t-31.5 44.5t-46.5 24.5t-51 11t-54 2q-82 0 -171.5 -31.5t-161.5 -80.5l55 239q185 82 360 82q367 0 367 -379v-217q0 -142 26.5 -204t96.5 -62q24 0 48.5 9t53.5 34.5t51 65t37 108t15 156.5q0 143 -61 276t-160 227t-228 150.5t-262 56.5 q-140 0 -271 -59t-228 -158t-155.5 -236t-58.5 -286q0 -151 50 -283.5t142 -232t231 -157.5t308 -58q256 0 512 84l70 -162q-268 -92 -573 -92q-210 0 -384.5 69t-292 190t-182.5 285.5t-65 354.5zM809 453q0 -41 35 -72t110 -31q39 0 95.5 25t109.5 69q-8 52 -8 129v56 q-170 -15 -248 -51q-51 -24 -72.5 -53.5t-21.5 -71.5z" />
<glyph unicode="A" horiz-adv-x="1394" d="M27 0l534 1376h273l534 -1376h-313l-101 283h-514l-100 -283h-313zM532 537h330l-164 460z" />
<glyph unicode="B" horiz-adv-x="1232" d="M152 0v1376h454q110 0 196.5 -31.5t137.5 -84t77.5 -116t26.5 -132.5q0 -97 -56.5 -171.5t-139.5 -109.5q51 -11 100.5 -39t91.5 -69t67.5 -99t25.5 -123q0 -96 -36 -173.5t-96.5 -126.5t-136.5 -75t-159 -26h-553zM446 252h207q81 0 132 44.5t51 113.5q0 73 -54.5 117 t-152.5 44h-183v-319zM446 823h134q84 0 132 41t48 115q0 64 -47 104.5t-138 40.5h-129v-301z" />
<glyph unicode="C" horiz-adv-x="1409" d="M111 688q0 150 60 284t161 228.5t238.5 149.5t287.5 55q113 0 238.5 -30.5t218.5 -76.5v-323q-234 153 -438 153q-135 0 -240.5 -64.5t-159 -164t-53.5 -211.5q0 -129 64.5 -231t167.5 -155.5t223 -53.5q229 0 434 182v-330q-98 -59 -224 -94t-233 -35q-149 0 -287 58 t-238 155t-160 229t-60 275z" />
<glyph unicode="D" horiz-adv-x="1519" d="M152 0v1376h526q136 0 255.5 -40.5t205 -108.5t147.5 -156.5t92.5 -186.5t30.5 -196q0 -92 -26.5 -185.5t-86.5 -184.5t-145 -161.5t-214 -113.5t-282 -43h-503zM446 274h185q202 0 332.5 120.5t130.5 293.5q0 83 -27 156.5t-78 131.5t-133 92t-184 34h-226v-828z" />
<glyph unicode="E" horiz-adv-x="1181" d="M152 0v1376h925v-274h-631v-258h449v-275h-449v-295h631v-274h-925z" />
<glyph unicode="F" horiz-adv-x="1130" d="M152 0v1376h925v-274h-631v-258h449v-275h-449v-569h-294z" />
<glyph unicode="G" horiz-adv-x="1499" d="M111 688q0 148 60.5 281.5t163.5 228.5t245.5 151t300.5 56q116 0 246.5 -27t220.5 -69v-322q-108 62 -230.5 101.5t-230.5 39.5q-135 0 -243 -64.5t-164 -164t-56 -211.5q0 -127 64 -230.5t171 -160.5t232 -57q96 0 170 28v258h-230v273h525v-725q-227 -103 -494 -103 q-151 0 -289.5 56.5t-239.5 152t-161.5 228.5t-60.5 280z" />
<glyph unicode="H" horiz-adv-x="1482" d="M152 0v1376h294v-532h590v532h295v-1376h-295v569h-590v-569h-294z" />
<glyph unicode="I" horiz-adv-x="598" d="M152 0v1376h294v-1376h-294z" />
<glyph unicode="J" horiz-adv-x="1013" d="M43 279l264 114q1 -66 41.5 -105.5t95.5 -39.5q63 0 99.5 42t36.5 130v956h294v-944q0 -119 -38 -211t-100 -144.5t-134 -79t-149 -26.5q-71 0 -132.5 19t-104.5 49t-78.5 72t-57 82.5t-37.5 85.5z" />
<glyph unicode="K" horiz-adv-x="1439" d="M152 0v1376h294v-565l531 565h397l-669 -676l716 -700h-407l-568 586v-586h-294z" />
<glyph unicode="L" horiz-adv-x="1110" d="M152 0v1376h294v-1102h601v-274h-895z" />
<glyph unicode="M" horiz-adv-x="1699" d="M152 0v1376h278l420 -514l420 514h278v-1376h-295v920l-403 -482l-404 482v-920h-294z" />
<glyph unicode="N" horiz-adv-x="1574" d="M152 0v1376h294l682 -872v872h295v-1376h-276l-701 897v-897h-294z" />
<glyph unicode="O" horiz-adv-x="1708" d="M111 688q0 133 55 261.5t150.5 229.5t236.5 163.5t301 62.5t301 -62.5t236.5 -163.5t150.5 -229.5t55 -261.5t-55 -261.5t-150.5 -229.5t-236.5 -163.5t-301 -62.5t-301 62.5t-236.5 163.5t-150.5 229.5t-55 261.5zM424 688q0 -188 123 -314t307 -126t307 126t123 314 t-123 314t-307 126t-307 -126t-123 -314z" />
<glyph unicode="P" horiz-adv-x="1173" d="M152 0v1376h462q242 0 377 -130.5t135 -336.5q0 -197 -145 -321.5t-363 -124.5h-172v-463h-294zM446 737h154q92 0 153.5 44.5t61.5 142.5q0 76 -51.5 127t-165.5 51h-152v-365z" />
<glyph unicode="Q" horiz-adv-x="1718" d="M111 688q0 133 55 261.5t150.5 229.5t236.5 163.5t301 62.5t301 -62.5t236.5 -163.5t150.5 -229.5t55 -261.5q0 -221 -139 -412l150 -131l-178 -202l-168 147q-185 -119 -408 -119q-160 0 -301 62.5t-236.5 163.5t-150.5 229.5t-55 261.5zM424 688q0 -188 123 -314 t307 -126q96 0 182 39l-139 121l178 202l158 -137q51 97 51 215q0 188 -123 314t-307 126t-307 -126t-123 -314z" />
<glyph unicode="R" horiz-adv-x="1310" d="M152 0v1376h454q109 0 194 -32.5t133 -79.5t79 -108t41 -111t10 -95q0 -231 -219 -358l446 -592h-370l-365 516h-109v-516h-294zM446 780h127q100 0 147.5 46t47.5 118q0 73 -49.5 115.5t-140.5 42.5h-132v-322z" />
<glyph unicode="S" horiz-adv-x="1101" d="M80 301l260 137q52 -200 215 -200q64 0 113 45t49 112q0 47 -32 86t-83 67t-112.5 56.5t-123 63.5t-112.5 78.5t-83 111.5t-32 152q0 102 54.5 192.5t153 146.5t216.5 56q126 0 234.5 -62.5t181.5 -181.5l-246 -137q-29 50 -72.5 81.5t-97.5 31.5q-58 0 -91.5 -30 t-33.5 -77q0 -36 32.5 -66.5t84 -55t114 -51.5t125 -64t114 -83.5t84 -119.5t32.5 -164q0 -81 -31 -160.5t-88 -146t-149 -107.5t-203 -41q-93 0 -172.5 29t-136 79.5t-95.5 104t-69 117.5z" />
<glyph unicode="T" horiz-adv-x="1183" d="M51 1102v274h1082v-274h-394v-1102h-295v1102h-393z" />
<glyph unicode="U" horiz-adv-x="1576" d="M141 621v755h295v-764q0 -179 98.5 -271.5t253.5 -92.5t254 92.5t99 271.5v764h295v-755q0 -185 -81 -332t-229.5 -230.5t-337.5 -83.5t-337 83.5t-229 230.5t-81 332z" />
<glyph unicode="V" horiz-adv-x="1380" d="M29 1376h317l348 -973l344 973h314l-523 -1376h-278z" />
<glyph unicode="W" horiz-adv-x="2011" d="M35 1376h293l272 -897l270 897h271l270 -897l272 897h293l-426 -1376h-278l-266 901l-267 -901h-278z" />
<glyph unicode="X" horiz-adv-x="1468" d="M59 0l504 721l-459 655h345l284 -409l287 409h344l-459 -655l504 -721h-344l-330 473l-332 -473h-344z" />
<glyph unicode="Y" horiz-adv-x="1327" d="M29 1376h340l295 -491l294 491h340l-487 -770v-606h-295v606z" />
<glyph unicode="Z" horiz-adv-x="1351" d="M57 0l695 1102h-648v274h1149l-694 -1102h698v-274h-1200z" />
<glyph unicode="[" horiz-adv-x="702" d="M170 -324v1999h469v-219h-207v-1560h207v-220h-469z" />
<glyph unicode="\" horiz-adv-x="894" d="M59 1638h273l504 -1902h-273z" />
<glyph unicode="]" horiz-adv-x="700" d="M61 -104h207v1560h-207v219h469v-1999h-469v220z" />
<glyph unicode="^" d="M174 737l326 668h223l326 -668h-224l-213 441l-215 -441h-223z" />
<glyph unicode="_" horiz-adv-x="808" d="M-12 -215h833v-182h-833v182z" />
<glyph unicode="`" horiz-adv-x="1024" d="M72 1333h299l293 -270h-289z" />
<glyph unicode="a" horiz-adv-x="1079" d="M70 266q0 157 157 246q147 84 432 100q-1 39 -14 68t-31 44.5t-45 24t-49.5 11t-52.5 2.5q-81 0 -171.5 -31.5t-162.5 -81.5l55 240q185 82 361 82q182 0 286.5 -94t104.5 -285v-592h-266v88q-66 -45 -144.5 -73.5t-144.5 -28.5q-84 0 -154.5 31t-115.5 96t-45 153z M338 276q0 -38 30.5 -67t102.5 -29q24 0 82 20.5t106 55.5v186q-173 -15 -243 -51q-78 -37 -78 -115z" />
<glyph unicode="b" horiz-adv-x="1249" d="M145 0v1376h289v-512q143 107 271 107q89 0 170 -35t143.5 -97.5t99.5 -156t37 -203.5q0 -92 -31 -179.5t-88 -157.5t-147 -113t-199 -43q-79 0 -149 35t-121 88v-109h-275zM434 334q90 -98 189 -98q39 0 77.5 14t73.5 41t56.5 76t21.5 112q0 59 -21.5 112t-73 91.5 t-124.5 38.5q-102 0 -199 -100v-287z" />
<glyph unicode="c" horiz-adv-x="999" d="M94 471q0 99 36.5 189t101.5 159.5t164.5 110.5t217.5 41q162 0 299 -78v-268q-119 90 -264 90q-119 0 -188.5 -70t-69.5 -174t69.5 -174t188.5 -70q136 0 264 90v-268q-137 -78 -299 -78q-118 0 -217.5 41t-164.5 110.5t-101.5 159.5t-36.5 189z" />
<glyph unicode="d" horiz-adv-x="1249" d="M94 479q0 104 36.5 196.5t98 157t144 101.5t172.5 37q141 0 270 -97v502h289v-1376h-275v109q-51 -53 -121 -88t-149 -35q-109 0 -199 43t-147 113t-88 157.5t-31 179.5zM397 479q0 -63 22 -112t57 -76t73.5 -41t77.5 -14q98 0 188 98v287q-97 100 -199 100 q-73 0 -124.5 -38.5t-73 -91.5t-21.5 -112z" />
<glyph unicode="e" horiz-adv-x="1155" d="M94 471q0 96 35 186t98 160t159 112t210 42q49 0 94 -7t93.5 -24.5t89.5 -45.5t78.5 -73t63.5 -102.5t42 -139t16 -178.5h-686q3 -96 73.5 -153.5t194.5 -57.5q95 0 208 40t186 100v-242q-80 -53 -202 -85t-243 -32q-235 0 -372.5 136.5t-137.5 363.5zM393 586h389 q-11 88 -61.5 129t-126.5 41q-82 0 -135.5 -47.5t-65.5 -122.5z" />
<glyph unicode="f" horiz-adv-x="864" d="M51 717v225h154v119q0 156 99.5 250t275.5 94q143 0 262 -45v-238q-93 52 -203 52q-73 0 -109 -38t-36 -102v-92h284v-225h-284v-717h-289v717h-154z" />
<glyph unicode="g" horiz-adv-x="1093" d="M12 -227q0 84 49 139.5t117 83.5q-51 33 -68.5 67t-17.5 80q0 96 129 176q-135 91 -135 269q0 49 15.5 100.5t50.5 102.5t84.5 91t124.5 64.5t163 24.5q106 0 189 -29h338v-225h-115q33 -79 33 -150q0 -137 -117 -240.5t-297 -103.5q-125 0 -223 39q-27 -27 -27 -57 q0 -42 80 -64.5t320 -62.5q34 -5 51 -8q301 -54 301 -265q0 -104 -75.5 -179.5t-189.5 -110.5t-249 -35q-115 0 -208 18.5t-152 48.5t-98.5 69t-56 78t-16.5 79zM252 -207q0 -21 13 -40.5t43.5 -38t92 -29.5t148.5 -11q136 0 198 27.5t62 67.5q0 23 -18 37t-61.5 24.5 t-93 18.5t-135 25t-165.5 38q-84 -58 -84 -119zM365 592q0 -69 48.5 -114.5t118.5 -45.5q62 0 108 44t46 120q0 69 -45 117.5t-117 48.5q-69 0 -114 -49t-45 -121z" />
<glyph unicode="h" horiz-adv-x="1232" d="M145 0v1376h289v-512q63 50 130.5 78.5t156.5 28.5q53 0 104 -13t101 -44.5t87.5 -78.5t61 -122t23.5 -168v-545h-289v500q0 114 -51.5 168.5t-130.5 54.5q-56 0 -99.5 -18.5t-93.5 -59.5v-645h-289z" />
<glyph unicode="i" horiz-adv-x="573" d="M104 1217l189 188l188 -188l-188 -189zM147 0v942h289v-942h-289z" />
<glyph unicode="j" horiz-adv-x="567" d="M-84 -225q15 -6 51 -12.5t51 -6.5q31 0 52.5 8.5t33 21.5t18 36.5t8 44.5t1.5 55v1020h289v-1034q0 -375 -328 -375q-84 0 -176 16v226zM88 1217l186 188l189 -188l-189 -189z" />
<glyph unicode="k" horiz-adv-x="1175" d="M145 0v1376h289v-755l295 321h367l-412 -428l475 -514h-381l-344 422v-422h-289z" />
<glyph unicode="l" horiz-adv-x="733" d="M135 319v1057h289v-1026q0 -125 125 -125q67 0 129 41v-235q-61 -29 -108.5 -40t-108.5 -11q-158 0 -242 95.5t-84 243.5z" />
<glyph unicode="m" horiz-adv-x="1896" d="M145 0v942h275v-90q65 55 135.5 87t165.5 32q84 0 162.5 -34t132.5 -106q71 59 167.5 99.5t200.5 40.5q53 0 104 -13t101 -44.5t87.5 -78.5t61 -122t23.5 -168v-545h-288v500q0 114 -52 168.5t-131 54.5q-88 0 -200 -76q8 -41 8 -102v-545h-289v500q0 114 -51.5 168.5 t-130.5 54.5q-56 0 -99.5 -18.5t-93.5 -59.5v-645h-289z" />
<glyph unicode="n" horiz-adv-x="1232" d="M145 0v942h275v-90q65 55 135.5 87t165.5 32q53 0 104 -13t101 -44.5t87.5 -78.5t61 -122t23.5 -168v-545h-289v500q0 114 -51.5 168.5t-130.5 54.5q-56 0 -99.5 -18.5t-93.5 -59.5v-645h-289z" />
<glyph unicode="o" horiz-adv-x="1228" d="M94 471q0 96 37.5 186t103.5 160t165 112t214 42q153 0 274 -72t184 -185.5t63 -242.5t-63 -242.5t-184 -185.5t-274 -72q-115 0 -214 42t-165 112t-103.5 160t-37.5 186zM391 471q0 -102 60.5 -171t162.5 -69q103 0 163.5 69t60.5 171t-60.5 171t-163.5 69 q-102 0 -162.5 -69t-60.5 -171z" />
<glyph unicode="p" horiz-adv-x="1249" d="M145 -434v1376h275v-94q51 53 121 88t149 35q109 0 199 -43t147 -114.5t88 -159t31 -179.5q0 -110 -37 -205.5t-99.5 -160t-144 -101.5t-169.5 -37q-128 0 -271 107v-512h-289zM434 322q98 -101 199 -101q55 0 98.5 23.5t69 62t38.5 81.5t13 87q0 63 -21.5 112 t-56.5 77.5t-73.5 42.5t-77.5 14q-99 0 -189 -98v-301z" />
<glyph unicode="q" horiz-adv-x="1249" d="M94 475q0 92 31 179.5t88 159t147 114.5t199 43q79 0 149 -35t121 -88v94h275v-1376h-289v512q-143 -107 -270 -107q-88 0 -170 37t-144 101.5t-99.5 160t-37.5 205.5zM397 475q0 -44 13 -87t38.5 -81.5t69 -62t98.5 -23.5q101 0 199 101v301q-90 98 -188 98 q-39 0 -77.5 -14t-73.5 -42t-57 -77.5t-22 -112.5z" />
<glyph unicode="r" horiz-adv-x="833" d="M145 0v942h275v-92q116 108 242 108q80 0 139 -36v-248q-89 49 -172 49q-105 0 -195 -76v-647h-289z" />
<glyph unicode="s" horiz-adv-x="993" d="M82 666q0 137 110.5 221t282.5 84q180 0 350 -66v-241q-76 41 -169.5 67.5t-157.5 26.5q-123 0 -123 -66q0 -25 26.5 -42.5t116.5 -47.5q166 -56 219.5 -80t91.5 -53q78 -63 78 -190q0 -36 -12 -74.5t-43 -81t-77 -75.5t-122 -55t-170 -22q-100 0 -215 26t-170 50v258 q216 -117 383 -117q64 0 99.5 18.5t35.5 49.5q0 23 -17.5 36t-72.5 30q-178 55 -251 88.5t-119 78.5q-74 71 -74 177z" />
<glyph unicode="t" horiz-adv-x="901" d="M51 717v225h168v252h289v-252h307v-225h-307v-348q0 -86 40.5 -121t117.5 -35q102 0 184 63v-243q-111 -51 -258 -51q-75 0 -141 20.5t-118.5 60t-83 104t-30.5 146.5v404h-168z" />
<glyph unicode="u" horiz-adv-x="1232" d="M135 397v545h289v-500q0 -114 51.5 -168.5t130.5 -54.5q56 0 99.5 18.5t93.5 59.5v645h288v-942h-274v90q-65 -55 -135.5 -87t-165.5 -32q-53 0 -104 13t-101 44.5t-87.5 78.5t-61 122t-23.5 168z" />
<glyph unicode="v" horiz-adv-x="1118" d="M16 942h326l217 -569l223 569h320l-430 -942h-226z" />
<glyph unicode="w" horiz-adv-x="1605" d="M20 942h320l170 -539l170 539h246l170 -539l170 539h319l-377 -942h-231l-174 535l-174 -535h-232z" />
<glyph unicode="x" horiz-adv-x="1132" d="M33 0l360 502l-332 440h349l155 -242l158 242h348l-332 -440l361 -502h-352l-181 297l-182 -297h-352z" />
<glyph unicode="y" horiz-adv-x="1181" d="M33 942h329l228 -534l241 534h326l-575 -1147q-75 -151 -164 -214.5t-213 -63.5q-43 0 -97 7t-73 13v230q62 -17 117 -17q102 0 155 96l137 263z" />
<glyph unicode="z" horiz-adv-x="1046" d="M66 0l446 717h-387v225h831l-434 -717h447v-225h-903z" />
<glyph unicode="{" horiz-adv-x="788" d="M57 571v209q99 26 144 80t45 141v359q0 58 6.5 101.5t27 85.5t55 69t92.5 43t138 16h140v-219h-48q-94 0 -123.5 -44.5t-29.5 -147.5v-303q0 -58 -12 -103.5t-27 -72.5t-44 -50t-48 -33.5t-54 -25.5q35 -15 54 -25.5t48 -33.5t44 -50t27 -72.5t12 -103.5v-303 q0 -103 29.5 -147.5t123.5 -44.5h48v-220h-140q-80 0 -138 16.5t-92.5 43t-55 69t-27 86t-6.5 101.5v358q0 87 -45 141t-144 80z" />
<glyph unicode="|" horiz-adv-x="563" d="M170 -483v1888h223v-1888h-223z" />
<glyph unicode="}" horiz-adv-x="788" d="M84 -104h47q95 0 124.5 45t29.5 147v303q0 58 11.5 103.5t27 72.5t44 50t47.5 33.5t54 25.5q-35 15 -54 25.5t-47.5 33.5t-44 50t-27 72.5t-11.5 103.5v303q0 102 -29.5 147t-124.5 45h-47v219h139q80 0 138.5 -16t93 -43t54.5 -69t27 -85.5t7 -101.5v-359q0 -87 45 -141 t143 -80v-209q-98 -26 -143 -80t-45 -141v-358q0 -58 -7 -101.5t-27 -86t-54.5 -69t-93 -43t-138.5 -16.5h-139v220z" />
<glyph unicode="~" d="M98 469v293q173 115 320 115q56 0 118.5 -21t109 -46t101.5 -46t97 -21q124 0 280 156v-293q-163 -112 -290 -112q-54 0 -114.5 21t-105 45.5t-101.5 45.5t-105 21q-152 0 -310 -158z" />
<glyph unicode="&#xa0;" />
<glyph unicode="&#xa1;" horiz-adv-x="634" d="M141 799l176 176l177 -176l-177 -178zM166 -184l84 725h135l84 -725v-275h-303v275z" />
<glyph unicode="&#xa2;" d="M211 471q0 188 122 330t326 166v161h154v-163q115 -15 217 -72v-268q-103 76 -217 88v-484q107 11 217 88v-268q-102 -57 -217 -72v-172h-154v170q-204 24 -326 166t-122 330zM508 471q0 -77 39.5 -137.5t111.5 -87.5v450q-72 -27 -111.5 -87.5t-39.5 -137.5z" />
<glyph unicode="&#xa3;" d="M121 0q156 163 186 520h-184l104 264h113q6 87 8 118t10 90.5t21 115.5q33 140 130.5 218.5t219.5 78.5q96 0 172.5 -33.5t153.5 -97.5l-154 -262q-71 112 -149 112q-89 0 -105 -114q-14 -90 -22 -226h313l-104 -264h-240q-12 -129 -57 -256h608l-117 -264h-907z" />
<glyph unicode="&#xa4;" horiz-adv-x="1335" d="M141 360q21 19 44.5 42t52.5 51t45 43q-70 114 -70 229q0 122 70 229q-48 48 -142 138q87 91 133 135q47 -45 142 -140q104 68 235 68q134 0 234 -68q106 106 143 140q45 -45 131 -135q-71 -68 -141 -138q69 -107 69 -229q0 -118 -69 -229q12 -11 63 -61t78 -75 q-86 -90 -131 -135q-28 25 -76.5 73.5l-66.5 66.5q-107 -70 -234 -70q-131 0 -235 70q-95 -95 -142 -140q-46 44 -133 135zM403 727q0 -100 73 -173t175 -73q101 0 173.5 72.5t72.5 173.5q0 103 -74.5 172.5t-171.5 69.5q-104 0 -176 -71t-72 -171z" />
<glyph unicode="&#xa5;" d="M-25 1376h340l295 -491l295 491h340l-356 -563h170v-209h-301v-153h301v-209h-301v-242h-295v242h-301v209h301v153h-301v209h170z" />
<glyph unicode="&#xa6;" horiz-adv-x="563" d="M170 -324v799h223v-799h-223zM170 877v798h223v-798h-223z" />
<glyph unicode="&#xa7;" horiz-adv-x="1177" d="M90 -252l199 172q54 -82 132 -130t161 -48q85 0 130.5 36.5t45.5 74.5q0 34 -37 67t-96 62.5t-130 61.5t-142 71.5t-130 85t-96 110.5t-37 140q0 114 68.5 189t181.5 114q-176 127 -176 299q0 61 25.5 120.5t76 112.5t140 86t204.5 33q128 0 249 -55.5t185 -159.5 l-210 -154q-38 58 -97.5 91.5t-124.5 33.5q-84 0 -119.5 -34t-35.5 -74q0 -34 34.5 -67t90.5 -61.5t123 -60t134 -70.5t123 -84t90.5 -109.5t34.5 -139.5q0 -112 -63 -187t-170 -112q197 -131 197 -309q0 -60 -30.5 -120.5t-87 -113.5t-151 -86t-209.5 -33q-126 0 -272 71.5 t-211 176.5zM379 479q0 -48 54 -87.5t163 -90.5q95 12 149 45t54 78q0 54 -55.5 97t-165.5 97q-93 -13 -146 -52t-53 -87z" />
<glyph unicode="&#xa8;" horiz-adv-x="1024" d="M186 1065v266h267v-266h-267zM588 1065v266h266v-266h-266z" />
<glyph unicode="&#xa9;" horiz-adv-x="1486" d="M72 625q0 135 53 258t143 211.5t214 141t261 52.5q183 0 337.5 -88.5t244.5 -241.5t90 -333t-90 -333t-244.5 -242t-337.5 -89q-137 0 -261 52.5t-214 141.5t-143 212t-53 258zM229 625q0 -138 68.5 -254.5t187 -184t258.5 -67.5t258 67.5t186 184t68 254.5t-68 254.5 t-186 183.5t-258 67t-258.5 -67t-187 -183.5t-68.5 -254.5zM356 627q0 170 111.5 287.5t288.5 117.5q130 0 278 -80v-178q-100 61 -160.5 80.5t-117.5 19.5q-59 0 -105.5 -24.5t-72.5 -63t-39 -79.5t-13 -80q0 -49 12.5 -91.5t38 -78t69 -56t99.5 -20.5q66 0 125.5 23 t163.5 96v-185q-138 -94 -289 -94q-94 0 -170 35.5t-122.5 94.5t-71.5 130t-25 146z" />
<glyph unicode="&#xaa;" horiz-adv-x="712" d="M57 950q0 105 105 164q89 51 264 64q-4 46 -32.5 60.5t-76.5 14.5q-101 0 -225 -84l41 181q120 55 236 55q119 0 186.5 -61.5t67.5 -186.5v-383h-187v47q-92 -57 -172 -57q-85 0 -146 49t-61 137zM246 958q0 -20 16 -35.5t57 -15.5q14 0 47.5 11.5t61.5 31.5v101 q-101 -11 -139 -29q-43 -19 -43 -64z" />
<glyph unicode="&#xab;" horiz-adv-x="1169" d="M18 547l304 395h299l-304 -395l304 -395h-299zM518 547l303 395h299l-303 -395l303 -395h-299z" />
<glyph unicode="&#xac;" d="M195 774v223h833v-559h-246v336h-587z" />
<glyph unicode="&#xad;" horiz-adv-x="878" d="M102 391v238h674v-238h-674z" />
<glyph unicode="&#xae;" horiz-adv-x="813" d="M86 1114q0 131 94.5 223.5t225.5 92.5t226 -92.5t95 -223.5t-95 -223t-226 -92t-225.5 92t-94.5 223zM182 1114q0 -91 66 -155t158 -64t158.5 64t66.5 155t-66.5 155t-158.5 64t-158 -64t-66 -155zM301 965v307h98q44 0 79.5 -23.5t35.5 -66.5q0 -57 -49 -82l86 -135h-88 l-76 122h-10v-122h-76zM377 1157h31q30 0 30 25q0 18 -37 18h-24v-43z" />
<glyph unicode="&#xaf;" horiz-adv-x="1024" d="M203 1116v166h635v-166h-635z" />
<glyph unicode="&#xb0;" horiz-adv-x="712" d="M70 1159q0 119 84 203t202 84t202.5 -84t84.5 -203t-84.5 -203t-202.5 -84t-202 84t-84 203zM238 1159q0 -51 33.5 -85t84.5 -34t85 34t34 85t-34 85t-85 34t-84.5 -34t-33.5 -85z" />
<glyph unicode="&#xb1;" d="M195 0v223h833v-223h-833zM195 670v223h305v326h223v-326h305v-223h-305v-326h-223v326h-305z" />
<glyph unicode="&#xb2;" horiz-adv-x="806" d="M102 553q135 202 234.5 373.5t99.5 218.5q0 38 -25.5 61t-66.5 23q-64 0 -127 -41.5t-102 -91.5v198q124 103 256 103q112 0 189 -73.5t77 -172.5q0 -128 -225 -440h256v-158h-566z" />
<glyph unicode="&#xb3;" horiz-adv-x="806" d="M72 696l143 115q22 -50 54 -80.5t89 -30.5q61 0 98.5 37.5t37.5 96.5q0 48 -40 88.5t-118 40.5q-52 0 -100 -19l147 277h-285v157h580l-170 -319q32 -11 60 -28t56 -45t45 -72t17 -99q0 -118 -93.5 -198t-221.5 -80q-186 0 -299 159z" />
<glyph unicode="&#xb4;" horiz-adv-x="1024" d="M367 1063l292 270h299l-303 -270h-288z" />
<glyph unicode="&#xb5;" horiz-adv-x="1249" d="M-63 -438l268 1530h289l-76 -435q-31 -167 -31 -268q0 -94 42 -139t128 -45q104 0 158.5 87t89.5 286l90 514h289l-193 -1092h-268l18 117q-42 -77 -93.5 -113.5t-121.5 -36.5q-132 0 -213 121l-90 -526h-286z" />
<glyph unicode="&#xb6;" horiz-adv-x="1316" d="M104 893q0 264 218 416q97 67 317 67h547v-1683h-209v1478h-168v-1478h-209v745q-107 0 -177 12t-122 48q-99 69 -148 160.5t-49 234.5z" />
<glyph unicode="&#xb7;" horiz-adv-x="573" d="M145 559v281h283v-281h-283z" />
<glyph unicode="&#xb8;" horiz-adv-x="1024" d="M379 -289q36 -18 74 -18t60 23t22 61q0 34 -26 58t-69 24h-16l29 147h139l-14 -80q57 -6 93 -52.5t36 -109.5q0 -85 -64.5 -142.5t-165.5 -57.5q-44 0 -98 8v139z" />
<glyph unicode="&#xb9;" horiz-adv-x="806" d="M305 553v739l195 121v-860h-195z" />
<glyph unicode="&#xba;" horiz-adv-x="798" d="M61 1079q0 131 94.5 228.5t243.5 97.5t243.5 -97.5t94.5 -228.5q0 -130 -94 -226.5t-244 -96.5t-244 96.5t-94 226.5zM268 1079q0 -60 35.5 -99.5t95.5 -39.5t95.5 39.5t35.5 99.5t-35.5 101t-95.5 41t-95.5 -41t-35.5 -101z" />
<glyph unicode="&#xbb;" horiz-adv-x="1169" d="M49 152l303 395l-303 395h299l303 -395l-303 -395h-299zM549 152l303 395l-303 395h299l303 -395l-303 -395h-299z" />
<glyph unicode="&#xbc;" horiz-adv-x="1746" d="M205 553v739l194 121v-860h-194zM451 -29l387 1456h170l-387 -1456h-170zM786 141l689 736v-566h108v-170h-108v-141h-195v141h-494zM1176 307h108v117z" />
<glyph unicode="&#xbd;" horiz-adv-x="1771" d="M205 553v739l194 121v-860h-194zM451 -29l387 1456h170l-387 -1456h-170zM1032 0q135 202 234.5 373.5t99.5 218.5q0 38 -25.5 61t-66.5 23q-64 0 -127.5 -41.5t-102.5 -91.5v198q124 103 256 103q112 0 189.5 -73.5t77.5 -172.5q0 -127 -226 -440h256v-158h-565z" />
<glyph unicode="&#xbe;" horiz-adv-x="1974" d="M102 696l144 115q22 -50 54 -80.5t89 -30.5q61 0 98 37.5t37 96.5q0 48 -39.5 88.5t-117.5 40.5q-53 0 -101 -19l148 277h-285v157h580l-170 -319q32 -11 60 -28t56 -45t45 -72t17 -99q0 -118 -94 -198t-222 -80q-186 0 -299 159zM680 -29l387 1456h170l-387 -1456h-170z M1014 141l688 736v-566h108v-170h-108v-141h-195v141h-493zM1403 307h108v117z" />
<glyph unicode="&#xbf;" horiz-adv-x="931" d="M98 -111q0 91 46.5 162t156.5 170q63 57 82.5 80t19.5 41q0 22 -20 49l190 164q115 -110 115 -221q0 -48 -17 -86t-49 -74.5t-104 -105.5q-79 -76 -103 -107.5t-24 -64.5q0 -48 31.5 -78.5t87.5 -30.5q63 0 109 38.5t88 117.5l190 -172q-74 -128 -173 -193t-241 -65 q-74 0 -142.5 24.5t-123 70t-87 118.5t-32.5 163zM383 799l176 176l176 -176l-176 -178z" />
<glyph unicode="&#xc0;" horiz-adv-x="1394" d="M27 0l534 1376h273l534 -1376h-313l-101 283h-514l-100 -283h-313zM319 1767h299l293 -270h-288zM532 537h330l-164 460z" />
<glyph unicode="&#xc1;" horiz-adv-x="1394" d="M27 0l534 1376h273l534 -1376h-313l-101 283h-514l-100 -283h-313zM492 1497l292 270h299l-303 -270h-288zM532 537h330l-164 460z" />
<glyph unicode="&#xc2;" horiz-adv-x="1394" d="M27 0l534 1376h273l534 -1376h-313l-101 283h-514l-100 -283h-313zM301 1497l242 270h323l242 -270h-258l-145 172l-146 -172h-258zM532 537h330l-164 460z" />
<glyph unicode="&#xc3;" horiz-adv-x="1394" d="M27 0l534 1376h273l534 -1376h-313l-101 283h-514l-100 -283h-313zM334 1489q18 280 184 280q58 0 126 -19.5t122 -39.5t78 -20q23 0 39.5 23t17.5 65h174q-11 -138 -60 -206.5t-159 -68.5q-54 0 -152.5 37t-140.5 37q-52 0 -55 -88h-174zM532 537h330l-164 460z" />
<glyph unicode="&#xc4;" horiz-adv-x="1394" d="M27 0l534 1376h273l534 -1376h-313l-101 283h-514l-100 -283h-313zM373 1499v266h266v-266h-266zM532 537h330l-164 460zM774 1499v266h266v-266h-266z" />
<glyph unicode="&#xc5;" horiz-adv-x="1394" d="M27 0l534 1376h273l534 -1376h-313l-101 283h-514l-100 -283h-313zM485 1708q0 88 61.5 149.5t149.5 61.5t149.5 -61.5t61.5 -149.5t-61.5 -149.5t-149.5 -61.5t-149.5 61.5t-61.5 149.5zM532 537h330l-164 460zM604 1708q0 -38 27 -65t65 -27t65 27t27 65t-27 65t-65 27 t-65 -27t-27 -65z" />
<glyph unicode="&#xc6;" horiz-adv-x="2131" d="M27 0l931 1376h1070v-274h-631v-258h448v-275h-448v-295h631v-274h-926v283h-537l-186 -283h-352zM731 537h371v563z" />
<glyph unicode="&#xc7;" horiz-adv-x="1409" d="M111 688q0 150 60 284t161 228.5t238.5 149.5t287.5 55q113 0 238.5 -30.5t218.5 -76.5v-323q-234 153 -438 153q-135 0 -240.5 -64.5t-159 -164t-53.5 -211.5q0 -129 64.5 -231t167.5 -155.5t223 -53.5q229 0 434 182v-330q-93 -56 -211.5 -91t-224.5 -38l-23 -102 q63 -7 102 -58t39 -120q0 -99 -70.5 -163.5t-185.5 -64.5q-63 0 -141 19v158q55 -31 111 -31q43 0 70.5 26.5t27.5 67.5q0 37 -29 64.5t-76 27.5q-22 0 -28 -2l37 193q-125 25 -236 91t-191 158t-126.5 210t-46.5 243z" />
<glyph unicode="&#xc8;" horiz-adv-x="1181" d="M152 0v1376h925v-274h-631v-258h449v-275h-449v-295h631v-274h-925zM223 1767h299l293 -270h-289z" />
<glyph unicode="&#xc9;" horiz-adv-x="1181" d="M152 0v1376h925v-274h-631v-258h449v-275h-449v-295h631v-274h-925zM395 1497l293 270h299l-303 -270h-289z" />
<glyph unicode="&#xca;" horiz-adv-x="1181" d="M152 0v1376h925v-274h-631v-258h449v-275h-449v-295h631v-274h-925zM205 1497l241 270h324l242 -270h-258l-146 172l-145 -172h-258z" />
<glyph unicode="&#xcb;" horiz-adv-x="1181" d="M152 0v1376h925v-274h-631v-258h449v-275h-449v-295h631v-274h-925zM276 1499v266h267v-266h-267zM678 1499v266h266v-266h-266z" />
<glyph unicode="&#xcc;" horiz-adv-x="598" d="M-141 1767h299l293 -270h-289zM152 0v1376h294v-1376h-294z" />
<glyph unicode="&#xcd;" horiz-adv-x="598" d="M152 0v1376h294v-1376h-294zM154 1497l292 270h299l-303 -270h-288z" />
<glyph unicode="&#xce;" horiz-adv-x="598" d="M-98 1497l241 270h324l242 -270h-258l-146 172l-145 -172h-258zM152 0v1376h294v-1376h-294z" />
<glyph unicode="&#xcf;" horiz-adv-x="598" d="M-27 1499v266h267v-266h-267zM152 0v1376h294v-1376h-294zM375 1499v266h266v-266h-266z" />
<glyph unicode="&#xd0;" horiz-adv-x="1519" d="M-25 612v215h177v549h526q136 0 255.5 -40.5t205 -108.5t147.5 -156.5t92.5 -186.5t30.5 -196q0 -92 -26.5 -185.5t-86.5 -184.5t-145 -161.5t-214 -113.5t-282 -43h-503v612h-177zM446 274h185q202 0 332.5 120.5t130.5 293.5q0 83 -27 156.5t-78 131.5t-133 92t-184 34 h-226v-275h293v-215h-293v-338z" />
<glyph unicode="&#xd1;" horiz-adv-x="1574" d="M152 0v1376h294l682 -872v872h295v-1376h-276l-701 897v-897h-294zM424 1489q18 280 184 280q58 0 126 -19.5t122 -39.5t78 -20q23 0 39.5 23t17.5 65h174q-11 -138 -60 -206.5t-159 -68.5q-54 0 -152.5 37t-140.5 37q-52 0 -55 -88h-174z" />
<glyph unicode="&#xd2;" horiz-adv-x="1708" d="M111 688q0 133 55 261.5t150.5 229.5t236.5 163.5t301 62.5t301 -62.5t236.5 -163.5t150.5 -229.5t55 -261.5t-55 -261.5t-150.5 -229.5t-236.5 -163.5t-301 -62.5t-301 62.5t-236.5 163.5t-150.5 229.5t-55 261.5zM424 688q0 -188 123 -314t307 -126t307 126t123 314 t-123 314t-307 126t-307 -126t-123 -314zM475 1767h299l293 -270h-289z" />
<glyph unicode="&#xd3;" horiz-adv-x="1708" d="M111 688q0 133 55 261.5t150.5 229.5t236.5 163.5t301 62.5t301 -62.5t236.5 -163.5t150.5 -229.5t55 -261.5t-55 -261.5t-150.5 -229.5t-236.5 -163.5t-301 -62.5t-301 62.5t-236.5 163.5t-150.5 229.5t-55 261.5zM424 688q0 -188 123 -314t307 -126t307 126t123 314 t-123 314t-307 126t-307 -126t-123 -314zM647 1497l293 270h299l-303 -270h-289z" />
<glyph unicode="&#xd4;" horiz-adv-x="1708" d="M111 688q0 133 55 261.5t150.5 229.5t236.5 163.5t301 62.5t301 -62.5t236.5 -163.5t150.5 -229.5t55 -261.5t-55 -261.5t-150.5 -229.5t-236.5 -163.5t-301 -62.5t-301 62.5t-236.5 163.5t-150.5 229.5t-55 261.5zM424 688q0 -188 123 -314t307 -126t307 126t123 314 t-123 314t-307 126t-307 -126t-123 -314zM457 1497l241 270h324l242 -270h-258l-146 172l-145 -172h-258z" />
<glyph unicode="&#xd5;" horiz-adv-x="1708" d="M111 688q0 133 55 261.5t150.5 229.5t236.5 163.5t301 62.5t301 -62.5t236.5 -163.5t150.5 -229.5t55 -261.5t-55 -261.5t-150.5 -229.5t-236.5 -163.5t-301 -62.5t-301 62.5t-236.5 163.5t-150.5 229.5t-55 261.5zM424 688q0 -188 123 -314t307 -126t307 126t123 314 t-123 314t-307 126t-307 -126t-123 -314zM489 1489q18 280 185 280q58 0 126 -19.5t121.5 -39.5t77.5 -20q23 0 40 23t18 65h174q-11 -138 -60 -206.5t-159 -68.5q-54 0 -152.5 37t-140.5 37q-52 0 -55 -88h-175z" />
<glyph unicode="&#xd6;" horiz-adv-x="1708" d="M111 688q0 133 55 261.5t150.5 229.5t236.5 163.5t301 62.5t301 -62.5t236.5 -163.5t150.5 -229.5t55 -261.5t-55 -261.5t-150.5 -229.5t-236.5 -163.5t-301 -62.5t-301 62.5t-236.5 163.5t-150.5 229.5t-55 261.5zM424 688q0 -188 123 -314t307 -126t307 126t123 314 t-123 314t-307 126t-307 -126t-123 -314zM528 1499v266h267v-266h-267zM930 1499v266h266v-266h-266z" />
<glyph unicode="&#xd7;" d="M223 457l232 231l-232 230l158 157l229 -229l230 229l159 -157l-229 -230l229 -231l-157 -158l-230 231l-231 -231z" />
<glyph unicode="&#xd8;" horiz-adv-x="1708" d="M111 688q0 133 55 261.5t150.5 229.5t236.5 163.5t301 62.5q196 0 373 -96l129 159l155 -125l-127 -157q101 -101 157 -232t56 -266q0 -133 -55 -261.5t-150.5 -229.5t-236.5 -163.5t-301 -62.5q-201 0 -373 99l-129 -160l-155 125l127 155q-101 101 -157 232t-56 266z M424 688q0 -151 84 -268l539 665q-91 43 -193 43q-184 0 -307 -126t-123 -314zM662 291q91 -43 192 -43q184 0 307 126t123 314q0 151 -84 268z" />
<glyph unicode="&#xd9;" horiz-adv-x="1576" d="M141 621v755h295v-764q0 -179 98.5 -271.5t253.5 -92.5t254 92.5t99 271.5v764h295v-755q0 -185 -81 -332t-229.5 -230.5t-337.5 -83.5t-337 83.5t-229 230.5t-81 332zM410 1767h299l292 -270h-288z" />
<glyph unicode="&#xda;" horiz-adv-x="1576" d="M141 621v755h295v-764q0 -179 98.5 -271.5t253.5 -92.5t254 92.5t99 271.5v764h295v-755q0 -185 -81 -332t-229.5 -230.5t-337.5 -83.5t-337 83.5t-229 230.5t-81 332zM582 1497l292 270h300l-304 -270h-288z" />
<glyph unicode="&#xdb;" horiz-adv-x="1576" d="M141 621v755h295v-764q0 -179 98.5 -271.5t253.5 -92.5t254 92.5t99 271.5v764h295v-755q0 -185 -81 -332t-229.5 -230.5t-337.5 -83.5t-337 83.5t-229 230.5t-81 332zM391 1497l242 270h323l242 -270h-258l-145 172l-146 -172h-258z" />
<glyph unicode="&#xdc;" horiz-adv-x="1576" d="M141 621v755h295v-764q0 -179 98.5 -271.5t253.5 -92.5t254 92.5t99 271.5v764h295v-755q0 -185 -81 -332t-229.5 -230.5t-337.5 -83.5t-337 83.5t-229 230.5t-81 332zM463 1499v266h266v-266h-266zM864 1499v266h266v-266h-266z" />
<glyph unicode="&#xdd;" horiz-adv-x="1327" d="M29 1376h340l295 -491l294 491h340l-487 -770v-606h-295v606zM518 1497l293 270h299l-303 -270h-289z" />
<glyph unicode="&#xde;" horiz-adv-x="1173" d="M152 0v1376h294v-231h168q242 0 377 -130.5t135 -336.5q0 -197 -145 -322t-363 -125h-172v-231h-294zM446 506h154q59 0 105 16t78 59.5t32 110.5q0 76 -51.5 127t-165.5 51h-152v-364z" />
<glyph unicode="&#xdf;" horiz-adv-x="1239" d="M131 0v879q0 116 29 208.5t76 151t111 97t130 54t137 15.5q185 0 310 -98t125 -246q0 -182 -189 -270q107 -21 187.5 -123.5t80.5 -243.5q0 -200 -122.5 -326.5t-303.5 -126.5q-48 0 -100.5 10.5t-73.5 18.5v248q48 -27 113 -27q91 0 140.5 64t49.5 151q0 100 -67.5 169 t-171.5 69h-57v215q32 -4 55 -4q65 0 111.5 33t46.5 94q0 57 -41.5 96t-104.5 39q-182 0 -182 -273v-874h-289z" />
<glyph unicode="&#xe0;" horiz-adv-x="1079" d="M70 266q0 157 157 246q147 84 432 100q-1 39 -14 68t-31 44.5t-45 24t-49.5 11t-52.5 2.5q-81 0 -171.5 -31.5t-162.5 -81.5l55 240q185 82 361 82q182 0 286.5 -94t104.5 -285v-592h-266v88q-66 -45 -144.5 -73.5t-144.5 -28.5q-84 0 -154.5 31t-115.5 96t-45 153z M162 1333h299l293 -270h-289zM338 276q0 -38 30.5 -67t102.5 -29q24 0 82 20.5t106 55.5v186q-173 -15 -243 -51q-78 -37 -78 -115z" />
<glyph unicode="&#xe1;" horiz-adv-x="1079" d="M70 266q0 157 157 246q147 84 432 100q-1 39 -14 68t-31 44.5t-45 24t-49.5 11t-52.5 2.5q-81 0 -171.5 -31.5t-162.5 -81.5l55 240q185 82 361 82q182 0 286.5 -94t104.5 -285v-592h-266v88q-66 -45 -144.5 -73.5t-144.5 -28.5q-84 0 -154.5 31t-115.5 96t-45 153z M334 1063l293 270h299l-303 -270h-289zM338 276q0 -38 30.5 -67t102.5 -29q24 0 82 20.5t106 55.5v186q-173 -15 -243 -51q-78 -37 -78 -115z" />
<glyph unicode="&#xe2;" horiz-adv-x="1079" d="M70 266q0 157 157 246q147 84 432 100q-1 39 -14 68t-31 44.5t-45 24t-49.5 11t-52.5 2.5q-81 0 -171.5 -31.5t-162.5 -81.5l55 240q185 82 361 82q182 0 286.5 -94t104.5 -285v-592h-266v88q-66 -45 -144.5 -73.5t-144.5 -28.5q-84 0 -154.5 31t-115.5 96t-45 153z M143 1063l242 270h324l241 -270h-258l-145 172l-146 -172h-258zM338 276q0 -38 30.5 -67t102.5 -29q24 0 82 20.5t106 55.5v186q-173 -15 -243 -51q-78 -37 -78 -115z" />
<glyph unicode="&#xe3;" horiz-adv-x="1079" d="M70 266q0 157 157 246q147 84 432 100q-1 39 -14 68t-31 44.5t-45 24t-49.5 11t-52.5 2.5q-81 0 -171.5 -31.5t-162.5 -81.5l55 240q185 82 361 82q182 0 286.5 -94t104.5 -285v-592h-266v88q-66 -45 -144.5 -73.5t-144.5 -28.5q-84 0 -154.5 31t-115.5 96t-45 153z M176 1055q18 280 184 280q58 0 126 -20t122 -40t78 -20q23 0 39.5 23t17.5 65h175q-11 -137 -60.5 -205.5t-159.5 -68.5q-54 0 -152 37t-140 37q-53 0 -56 -88h-174zM338 276q0 -38 30.5 -67t102.5 -29q24 0 82 20.5t106 55.5v186q-173 -15 -243 -51q-78 -37 -78 -115z" />
<glyph unicode="&#xe4;" horiz-adv-x="1079" d="M70 266q0 157 157 246q147 84 432 100q-1 39 -14 68t-31 44.5t-45 24t-49.5 11t-52.5 2.5q-81 0 -171.5 -31.5t-162.5 -81.5l55 240q185 82 361 82q182 0 286.5 -94t104.5 -285v-592h-266v88q-66 -45 -144.5 -73.5t-144.5 -28.5q-84 0 -154.5 31t-115.5 96t-45 153z M215 1065v266h266v-266h-266zM338 276q0 -38 30.5 -67t102.5 -29q24 0 82 20.5t106 55.5v186q-173 -15 -243 -51q-78 -37 -78 -115zM616 1065v266h267v-266h-267z" />
<glyph unicode="&#xe5;" horiz-adv-x="1079" d="M70 266q0 157 157 246q147 84 432 100q-1 39 -14 68t-31 44.5t-45 24t-49.5 11t-52.5 2.5q-81 0 -171.5 -31.5t-162.5 -81.5l55 240q185 82 361 82q182 0 286.5 -94t104.5 -285v-592h-266v88q-66 -45 -144.5 -73.5t-144.5 -28.5q-84 0 -154.5 31t-115.5 96t-45 153z M326 1274q0 88 61.5 149.5t149.5 61.5t149.5 -61.5t61.5 -149.5t-61.5 -149.5t-149.5 -61.5t-149.5 61.5t-61.5 149.5zM338 276q0 -38 30.5 -67t102.5 -29q24 0 82 20.5t106 55.5v186q-173 -15 -243 -51q-78 -37 -78 -115zM444 1274q0 -38 27.5 -65t65.5 -27t65 27t27 65 t-27 65t-65 27t-65.5 -27t-27.5 -65z" />
<glyph unicode="&#xe6;" horiz-adv-x="1724" d="M70 244q0 151 161 243q151 86 428 95v20q0 52 -17 86t-48 49t-59.5 20t-67.5 5q-81 0 -171.5 -31.5t-162.5 -81.5l55 240q185 82 361 82q202 0 299 -115q138 115 317 115q49 0 94 -7t93.5 -24.5t89.5 -45.5t78.5 -73t63.5 -102.5t42 -139t16 -178.5h-686q3 -96 74 -153.5 t195 -57.5q95 0 207 40t186 100v-242q-80 -53 -201.5 -85t-242.5 -32q-255 0 -394 158q-88 -82 -183 -120t-212 -38q-142 0 -228.5 79.5t-86.5 193.5zM350 254q0 -34 31.5 -60t89.5 -26q120 0 229 92q-25 70 -34 150q-162 -8 -236 -41q-80 -37 -80 -115zM963 586h389 q-11 88 -62 129t-127 41q-82 0 -135 -47.5t-65 -122.5z" />
<glyph unicode="&#xe7;" horiz-adv-x="999" d="M94 471q0 99 36.5 189t101.5 159.5t164.5 110.5t217.5 41q162 0 299 -78v-268q-119 90 -264 90q-119 0 -188.5 -70t-69.5 -174t69.5 -174t188.5 -70q136 0 264 90v-268q-121 -67 -254 -76l-8 -47q57 -6 93 -52.5t36 -109.5q0 -85 -64 -142.5t-165 -57.5q-44 0 -98 8v139 q36 -18 73 -18q38 0 60 23t22 61q0 34 -25.5 58t-68.5 24h-16l22 118q-195 30 -310.5 170.5t-115.5 323.5z" />
<glyph unicode="&#xe8;" horiz-adv-x="1155" d="M94 471q0 96 35 186t98 160t159 112t210 42q49 0 94 -7t93.5 -24.5t89.5 -45.5t78.5 -73t63.5 -102.5t42 -139t16 -178.5h-686q3 -96 73.5 -153.5t194.5 -57.5q95 0 208 40t186 100v-242q-80 -53 -202 -85t-243 -32q-235 0 -372.5 136.5t-137.5 363.5zM199 1333h299 l293 -270h-289zM393 586h389q-11 88 -61.5 129t-126.5 41q-82 0 -135.5 -47.5t-65.5 -122.5z" />
<glyph unicode="&#xe9;" horiz-adv-x="1155" d="M94 471q0 96 35 186t98 160t159 112t210 42q49 0 94 -7t93.5 -24.5t89.5 -45.5t78.5 -73t63.5 -102.5t42 -139t16 -178.5h-686q3 -96 73.5 -153.5t194.5 -57.5q95 0 208 40t186 100v-242q-80 -53 -202 -85t-243 -32q-235 0 -372.5 136.5t-137.5 363.5zM371 1063l293 270 h299l-304 -270h-288zM393 586h389q-11 88 -61.5 129t-126.5 41q-82 0 -135.5 -47.5t-65.5 -122.5z" />
<glyph unicode="&#xea;" horiz-adv-x="1155" d="M94 471q0 96 35 186t98 160t159 112t210 42q49 0 94 -7t93.5 -24.5t89.5 -45.5t78.5 -73t63.5 -102.5t42 -139t16 -178.5h-686q3 -96 73.5 -153.5t194.5 -57.5q95 0 208 40t186 100v-242q-80 -53 -202 -85t-243 -32q-235 0 -372.5 136.5t-137.5 363.5zM180 1063l242 270 h323l242 -270h-258l-145 172l-146 -172h-258zM393 586h389q-11 88 -61.5 129t-126.5 41q-82 0 -135.5 -47.5t-65.5 -122.5z" />
<glyph unicode="&#xeb;" horiz-adv-x="1155" d="M94 471q0 96 35 186t98 160t159 112t210 42q49 0 94 -7t93.5 -24.5t89.5 -45.5t78.5 -73t63.5 -102.5t42 -139t16 -178.5h-686q3 -96 73.5 -153.5t194.5 -57.5q95 0 208 40t186 100v-242q-80 -53 -202 -85t-243 -32q-235 0 -372.5 136.5t-137.5 363.5zM252 1065v266h266 v-266h-266zM393 586h389q-11 88 -61.5 129t-126.5 41q-82 0 -135.5 -47.5t-65.5 -122.5zM653 1065v266h267v-266h-267z" />
<glyph unicode="&#xec;" horiz-adv-x="573" d="M-154 1333h299l293 -270h-288zM147 0v942h289v-942h-289z" />
<glyph unicode="&#xed;" horiz-adv-x="573" d="M141 1063l293 270h299l-303 -270h-289zM147 0v942h289v-942h-289z" />
<glyph unicode="&#xee;" horiz-adv-x="573" d="M-111 1063l242 270h324l241 -270h-258l-145 172l-146 -172h-258zM147 0v942h289v-942h-289z" />
<glyph unicode="&#xef;" horiz-adv-x="573" d="M-39 1065v266h266v-266h-266zM147 0v942h289v-942h-289zM362 1065v266h267v-266h-267z" />
<glyph unicode="&#xf0;" horiz-adv-x="1202" d="M94 471q0 105 36 195.5t94 151t131 94.5t147 34q103 0 174 -39q-25 60 -98 172l-197 -63l-51 151l151 50q-69 95 -125 159h357q40 -51 51 -67l219 69l51 -151l-174 -56q248 -377 248 -675q0 -93 -33.5 -184t-96 -168t-166 -125t-230.5 -48q-115 0 -209.5 42t-154 112.5 t-92 159.5t-32.5 186zM391 471q0 -37 10 -76t31 -77t60 -62.5t90 -24.5q95 0 159 70t64 170q0 93 -27 160q-33 36 -85 62t-105 26q-99 0 -148 -70.5t-49 -177.5z" />
<glyph unicode="&#xf1;" horiz-adv-x="1232" d="M145 0v942h275v-90q65 55 135.5 87t165.5 32q53 0 104 -13t101 -44.5t87.5 -78.5t61 -122t23.5 -168v-545h-289v500q0 114 -51.5 168.5t-130.5 54.5q-56 0 -99.5 -18.5t-93.5 -59.5v-645h-289zM252 1055q18 280 184 280q58 0 126 -20t122 -40t78 -20q23 0 39.5 23 t17.5 65h174q-11 -138 -60 -206t-159 -68q-54 0 -152.5 37t-140.5 37q-52 0 -55 -88h-174z" />
<glyph unicode="&#xf2;" horiz-adv-x="1228" d="M94 471q0 96 37.5 186t103.5 160t165 112t214 42q153 0 274 -72t184 -185.5t63 -242.5t-63 -242.5t-184 -185.5t-274 -72q-115 0 -214 42t-165 112t-103.5 160t-37.5 186zM236 1333h299l292 -270h-288zM391 471q0 -102 60.5 -171t162.5 -69q103 0 163.5 69t60.5 171 t-60.5 171t-163.5 69q-102 0 -162.5 -69t-60.5 -171z" />
<glyph unicode="&#xf3;" horiz-adv-x="1228" d="M94 471q0 96 37.5 186t103.5 160t165 112t214 42q153 0 274 -72t184 -185.5t63 -242.5t-63 -242.5t-184 -185.5t-274 -72q-115 0 -214 42t-165 112t-103.5 160t-37.5 186zM391 471q0 -102 60.5 -171t162.5 -69q103 0 163.5 69t60.5 171t-60.5 171t-163.5 69 q-102 0 -162.5 -69t-60.5 -171zM408 1063l292 270h299l-303 -270h-288z" />
<glyph unicode="&#xf4;" horiz-adv-x="1228" d="M94 471q0 96 37.5 186t103.5 160t165 112t214 42q153 0 274 -72t184 -185.5t63 -242.5t-63 -242.5t-184 -185.5t-274 -72q-115 0 -214 42t-165 112t-103.5 160t-37.5 186zM217 1063l242 270h323l242 -270h-258l-145 172l-146 -172h-258zM391 471q0 -102 60.5 -171 t162.5 -69q103 0 163.5 69t60.5 171t-60.5 171t-163.5 69q-102 0 -162.5 -69t-60.5 -171z" />
<glyph unicode="&#xf5;" horiz-adv-x="1228" d="M94 471q0 96 37.5 186t103.5 160t165 112t214 42q153 0 274 -72t184 -185.5t63 -242.5t-63 -242.5t-184 -185.5t-274 -72q-115 0 -214 42t-165 112t-103.5 160t-37.5 186zM250 1055q18 280 184 280q58 0 126 -20t122 -40t78 -20q23 0 39.5 23t17.5 65h174 q-11 -138 -60 -206t-159 -68q-54 0 -152.5 37t-140.5 37q-52 0 -55 -88h-174zM391 471q0 -102 60.5 -171t162.5 -69q103 0 163.5 69t60.5 171t-60.5 171t-163.5 69q-102 0 -162.5 -69t-60.5 -171z" />
<glyph unicode="&#xf6;" horiz-adv-x="1228" d="M94 471q0 96 37.5 186t103.5 160t165 112t214 42q153 0 274 -72t184 -185.5t63 -242.5t-63 -242.5t-184 -185.5t-274 -72q-115 0 -214 42t-165 112t-103.5 160t-37.5 186zM289 1065v266h266v-266h-266zM391 471q0 -102 60.5 -171t162.5 -69q103 0 163.5 69t60.5 171 t-60.5 171t-163.5 69q-102 0 -162.5 -69t-60.5 -171zM690 1065v266h266v-266h-266z" />
<glyph unicode="&#xf7;" d="M195 575v224h833v-224h-833zM500 270v193h223v-193h-223zM500 911v193h223v-193h-223z" />
<glyph unicode="&#xf8;" horiz-adv-x="1228" d="M94 471q0 96 37.5 186t103.5 160t165 112t214 42q130 0 242 -53l100 129l134 -105l-99 -123q69 -71 106.5 -161t37.5 -187q0 -129 -63 -242.5t-184 -185.5t-274 -72q-126 0 -241 54l-101 -129l-133 104l99 123q-69 71 -106.5 161t-37.5 187zM377 465q0 -67 26 -127 l293 375q-38 10 -78 10q-112 0 -176.5 -74t-64.5 -184zM530 227q38 -10 78 -10q112 0 177 74t65 184q0 65 -27 127z" />
<glyph unicode="&#xf9;" horiz-adv-x="1232" d="M135 397v545h289v-500q0 -114 51.5 -168.5t130.5 -54.5q56 0 99.5 18.5t93.5 59.5v645h288v-942h-274v90q-65 -55 -135.5 -87t-165.5 -32q-53 0 -104 13t-101 44.5t-87.5 78.5t-61 122t-23.5 168zM238 1333h299l292 -270h-288z" />
<glyph unicode="&#xfa;" horiz-adv-x="1232" d="M135 397v545h289v-500q0 -114 51.5 -168.5t130.5 -54.5q56 0 99.5 18.5t93.5 59.5v645h288v-942h-274v90q-65 -55 -135.5 -87t-165.5 -32q-53 0 -104 13t-101 44.5t-87.5 78.5t-61 122t-23.5 168zM410 1063l292 270h299l-303 -270h-288z" />
<glyph unicode="&#xfb;" horiz-adv-x="1232" d="M135 397v545h289v-500q0 -114 51.5 -168.5t130.5 -54.5q56 0 99.5 18.5t93.5 59.5v645h288v-942h-274v90q-65 -55 -135.5 -87t-165.5 -32q-53 0 -104 13t-101 44.5t-87.5 78.5t-61 122t-23.5 168zM219 1063l242 270h323l242 -270h-258l-145 172l-146 -172h-258z" />
<glyph unicode="&#xfc;" horiz-adv-x="1232" d="M135 397v545h289v-500q0 -114 51.5 -168.5t130.5 -54.5q56 0 99.5 18.5t93.5 59.5v645h288v-942h-274v90q-65 -55 -135.5 -87t-165.5 -32q-53 0 -104 13t-101 44.5t-87.5 78.5t-61 122t-23.5 168zM291 1065v266h266v-266h-266zM692 1065v266h266v-266h-266z" />
<glyph unicode="&#xfd;" horiz-adv-x="1181" d="M33 942h329l228 -534l241 534h326l-575 -1147q-75 -151 -164 -214.5t-213 -63.5q-43 0 -97 7t-73 13v230q62 -17 117 -17q102 0 155 96l137 263zM446 1063l293 270h299l-303 -270h-289z" />
<glyph unicode="&#xfe;" horiz-adv-x="1249" d="M145 -434v1810h289v-514q117 109 256 109q109 0 199 -43t147 -114.5t88 -159t31 -179.5q0 -110 -37 -205.5t-99.5 -160t-144 -101.5t-169.5 -37q-128 0 -271 107v-512h-289zM434 322q98 -101 199 -101q55 0 98.5 23.5t69 62t38.5 81.5t13 87q0 63 -21.5 112t-56.5 77.5 t-73.5 42.5t-77.5 14q-99 0 -189 -98v-301z" />
<glyph unicode="&#xff;" horiz-adv-x="1181" d="M33 942h329l228 -534l241 534h326l-575 -1147q-75 -151 -164 -214.5t-213 -63.5q-43 0 -97 7t-73 13v230q62 -17 117 -17q102 0 155 96l137 263zM266 1065v266h266v-266h-266zM668 1065v266h266v-266h-266z" />
<glyph unicode="&#x152;" horiz-adv-x="2314" d="M111 688q0 133 55 261.5t150.5 229.5t236.5 163.5t301 62.5q248 0 430 -145v116h926v-274h-631v-258h449v-275h-449v-295h631v-274h-926v117q-183 -146 -430 -146q-160 0 -301 62.5t-236.5 163.5t-150.5 229.5t-55 261.5zM424 688q0 -188 123 -314t307 -126t307 126 t123 314t-123 314t-307 126t-307 -126t-123 -314z" />
<glyph unicode="&#x153;" horiz-adv-x="1888" d="M94 471q0 96 37.5 186t103.5 160t165 112t214 42q218 0 363 -152q142 152 352 152q49 0 94 -7t93.5 -24.5t89.5 -45.5t78.5 -73t63.5 -102.5t42 -139t16 -178.5h-686q3 -96 74 -153.5t195 -57.5q95 0 207 40t186 100v-242q-80 -53 -202 -85t-243 -32q-229 0 -366 144 q-70 -68 -162.5 -106t-194.5 -38q-115 0 -214 42t-165 112t-103.5 160t-37.5 186zM391 471q0 -102 60.5 -171t162.5 -69q103 0 163.5 69t60.5 171t-60.5 171t-163.5 69q-102 0 -162.5 -69t-60.5 -171zM1126 586h390q-11 88 -62 129t-127 41q-82 0 -135.5 -47.5t-65.5 -122.5 z" />
<glyph unicode="&#x178;" horiz-adv-x="1327" d="M29 1376h340l295 -491l294 491h340l-487 -770v-606h-295v606zM338 1499v266h266v-266h-266zM739 1499v266h267v-266h-267z" />
<glyph unicode="&#x2c6;" horiz-adv-x="1024" d="M115 1063l241 270h324l242 -270h-258l-146 172l-145 -172h-258z" />
<glyph unicode="&#x2dc;" horiz-adv-x="1024" d="M147 1055q18 280 185 280q58 0 126 -20t121.5 -40t77.5 -20q23 0 40 23t18 65h174q-11 -138 -60 -206t-159 -68q-54 0 -152.5 37t-140.5 37q-52 0 -55 -88h-175z" />
<glyph unicode="&#x2000;" horiz-adv-x="959" />
<glyph unicode="&#x2001;" horiz-adv-x="1919" />
<glyph unicode="&#x2002;" horiz-adv-x="959" />
<glyph unicode="&#x2003;" horiz-adv-x="1919" />
<glyph unicode="&#x2004;" horiz-adv-x="639" />
<glyph unicode="&#x2005;" horiz-adv-x="479" />
<glyph unicode="&#x2006;" horiz-adv-x="319" />
<glyph unicode="&#x2007;" horiz-adv-x="319" />
<glyph unicode="&#x2008;" horiz-adv-x="239" />
<glyph unicode="&#x2009;" horiz-adv-x="383" />
<glyph unicode="&#x200a;" horiz-adv-x="106" />
<glyph unicode="&#x2010;" horiz-adv-x="878" d="M102 391v238h674v-238h-674z" />
<glyph unicode="&#x2011;" horiz-adv-x="878" d="M102 391v238h674v-238h-674z" />
<glyph unicode="&#x2012;" horiz-adv-x="878" d="M102 391v238h674v-238h-674z" />
<glyph unicode="&#x2013;" horiz-adv-x="1171" d="M123 391v217h926v-217h-926z" />
<glyph unicode="&#x2014;" horiz-adv-x="1531" d="M127 391v217h1278v-217h-1278z" />
<glyph unicode="&#x2018;" horiz-adv-x="585" d="M139 918v188q0 39 6.5 76.5t26 79t50.5 72t85.5 51t124.5 20.5q41 0 84 -8t62 -19q-47 -13 -79 -30t-51 -37t-29 -51.5t-13 -63.5t-3 -82v-196h-264z" />
<glyph unicode="&#x2019;" horiz-adv-x="585" d="M8 915q47 13 78.5 30t51 37t29 52t12.5 63.5t3 82.5v196h264v-188q0 -39 -6.5 -76t-26 -79t-50 -72.5t-85 -51t-124.5 -20.5q-41 0 -84 7.5t-62 18.5z" />
<glyph unicode="&#x201a;" horiz-adv-x="585" d="M-14 -258q47 13 78.5 30t51 37t29 51.5t12.5 63t3 82.5v197h264v-189q0 -39 -6.5 -76.5t-26 -79t-50.5 -72t-85.5 -51t-124.5 -20.5q-40 0 -83 8t-62 19z" />
<glyph unicode="&#x201c;" horiz-adv-x="1048" d="M139 918v151q0 39 6.5 76.5t26 79t50.5 72t85.5 51t124.5 20.5q41 0 84 -8t62 -19q-47 -13 -79 -30t-51 -37t-29 -51.5t-13 -63.5t-3 -82v-159h-264zM602 918v188q0 39 6.5 76.5t26 79t50.5 72t85.5 51t124.5 20.5q40 0 83 -8t62 -19q-47 -13 -78.5 -30t-51 -37 t-29 -51.5t-12.5 -63t-3 -82.5v-196h-264z" />
<glyph unicode="&#x201d;" horiz-adv-x="1048" d="M8 915q47 13 78.5 30t51 37t29 52t12.5 63.5t3 82.5v196h264v-188q0 -39 -6.5 -76t-26 -79t-50 -72.5t-85 -51t-124.5 -20.5q-41 0 -84 7.5t-62 18.5zM471 952q47 13 78.5 30t51 37t29 52t12.5 63.5t3 82.5v159h264v-151q0 -39 -6.5 -76.5t-26 -79t-50.5 -72t-85.5 -51 t-124.5 -20.5q-41 0 -83.5 7.5t-61.5 18.5z" />
<glyph unicode="&#x201e;" horiz-adv-x="1048" d="M-14 -256q47 13 78.5 30t51 37t29 51.5t12.5 63t3 82.5v197h264v-189q0 -39 -6.5 -76.5t-26 -79t-50.5 -72t-85.5 -51t-124.5 -20.5q-40 0 -83 8t-62 19zM449 -219q47 13 78.5 30t51 37t29 51.5t12.5 63t3 82.5v160h264v-152q0 -39 -6.5 -76.5t-26 -79t-50.5 -72 t-85.5 -51t-124.5 -20.5q-40 0 -83 8t-62 19z" />
<glyph unicode="&#x2022;" horiz-adv-x="1024" d="M225 618q0 118 84.5 202.5t202.5 84.5t202.5 -84.5t84.5 -202.5t-84 -202t-203 -84t-203 84t-84 202z" />
<glyph unicode="&#x2026;" horiz-adv-x="2048" d="M201 0v281h280v-281h-280zM883 0v281h280v-281h-280zM1567 0v281h280v-281h-280z" />
<glyph unicode="&#x202f;" horiz-adv-x="383" />
<glyph unicode="&#x2039;" horiz-adv-x="669" d="M18 547l304 395h299l-304 -395l304 -395h-299z" />
<glyph unicode="&#x203a;" horiz-adv-x="669" d="M49 152l303 395l-303 395h299l303 -395l-303 -395h-299z" />
<glyph unicode="&#x205f;" horiz-adv-x="479" />
<glyph unicode="&#x20ac;" d="M-25 455l58 190h133v43v43h-191l58 191h162q28 102 77.5 188t121 153t169.5 104.5t213 37.5q221 0 443 -152l-95 -243q-176 129 -333 129q-113 0 -182.5 -59.5t-102.5 -157.5h502l-58 -191h-477v-45v-41h465l-55 -190h-375q77 -213 307 -213q49 0 99.5 10t119.5 45.5 t125 93.5v-297q-171 -119 -385 -119q-113 0 -210.5 37.5t-168.5 104.5t-120.5 152t-77.5 186h-222z" />
<glyph unicode="&#x2122;" horiz-adv-x="835" d="M29 1276v100h331v-100h-114v-303h-105v303h-112zM395 973v403h88l119 -139l119 139h86v-403h-107v219l-98 -117l-102 117v-219h-105z" />
<glyph unicode="&#x25fc;" horiz-adv-x="942" d="M0 0v942h942v-942h-942z" />
</font>
</defs>
</svg>
