<?xml version="1.0" standalone="no"?>
<!DOCTYPE svg PUBLIC "-//W3C//DTD SVG 1.1//EN" "http://www.w3.org/Graphics/SVG/1.1/DTD/svg11.dtd" >
<svg xmlns="http://www.w3.org/2000/svg">
<metadata></metadata>
<defs>
<font id="johnston_itc_stdmedium_italic" horiz-adv-x="1132" >
<font-face units-per-em="2048" ascent="1638" descent="-410" />
<missing-glyph horiz-adv-x="471" />
<glyph unicode="&#xfb01;" horiz-adv-x="1198" d="M57 766l15 162h170l10 106q8 88 28.5 153t60.5 115.5t105 76.5t156 26q103 0 203 -33l-17 -178q-89 47 -180 47q-90 0 -127 -50.5t-49 -178.5l-8 -84h289l-15 -162h-286l-68 -766h-182l67 766h-172zM836 0l84 928h182l-84 -928h-182zM891 1200l158 143l133 -143 l-158 -145z" />
<glyph unicode="&#xfb02;" horiz-adv-x="1298" d="M57 766l15 162h170l10 106q8 88 28.5 153t60.5 115.5t105 76.5t156 26q103 0 203 -33l-17 -178q-89 47 -180 47q-90 0 -127 -50.5t-49 -178.5l-8 -84h289l-15 -162h-286l-68 -766h-182l67 766h-172zM854 207q0 25 8 117l92 1052h183l-95 -1059q-6 -54 -6 -96 q0 -86 99 -86q60 0 129 37l-13 -158q-80 -32 -172 -32q-114 0 -169.5 60t-55.5 165z" />
<glyph horiz-adv-x="0" />
<glyph horiz-adv-x="682" />
<glyph unicode=" "  horiz-adv-x="471" />
<glyph unicode="&#x09;" horiz-adv-x="471" />
<glyph unicode="&#xa0;" horiz-adv-x="471" />
<glyph unicode="!" horiz-adv-x="538" d="M104 115l162 147l140 -160l-166 -147zM225 352l6 744l25 280h217l-24 -280l-125 -744h-99z" />
<glyph unicode="&#x22;" horiz-adv-x="776" d="M166 1159v217h196v-217l-55 -303h-86zM532 1159v217h197v-217l-55 -303h-86z" />
<glyph unicode="#" horiz-adv-x="1277" d="M20 367l31 153h217l70 334h-219l31 154h221l94 448h176l-94 -448h362l95 448h176l-95 -448h218l-31 -154h-219l-70 -334h221l-30 -153h-224l-94 -447h-176l94 447h-362l-95 -447h-176l95 447h-216zM444 520h363l70 334h-363z" />
<glyph unicode="$" d="M92 219l146 107q33 -60 92.5 -114t144.5 -69l45 514q-55 28 -93.5 50.5t-84.5 58.5t-73.5 74.5t-46.5 93t-19 117.5q0 146 109.5 248t273.5 106l16 178h137l-16 -190q159 -32 274 -144l-114 -133q-70 73 -176 105l-35 -420q59 -30 97 -52t86 -59t76 -74t48 -90.5 t20 -115.5q0 -87 -33 -164.5t-89 -132t-128 -90.5t-151 -48l-14 -170h-138l15 170q-238 31 -369 244zM387 1063q0 -60 40 -105t114 -88l30 367q-81 -6 -132.5 -55t-51.5 -119zM614 150q86 22 141.5 84.5t55.5 160.5q0 61 -41.5 107.5t-116.5 87.5z" />
<glyph unicode="%" horiz-adv-x="1540" d="M117 1051q0 139 104 242.5t244 103.5q123 0 207 -83t84 -206q0 -140 -103.5 -244t-242.5 -104q-123 0 -208 84t-85 207zM219 0l940 1376h215l-940 -1376h-215zM272 1065q0 -63 44.5 -106.5t107.5 -43.5q71 0 123.5 54t52.5 125q0 63 -42 105t-105 42q-71 0 -126 -52.5 t-55 -123.5zM836 272q0 139 104 242.5t244 103.5q123 0 207 -82.5t84 -205.5q0 -140 -104 -244t-243 -104q-123 0 -207.5 83.5t-84.5 206.5zM991 287q0 -63 43.5 -106.5t106.5 -43.5q72 0 125 53.5t53 124.5q0 63 -43.5 105.5t-106.5 42.5q-71 0 -124.5 -52.5t-53.5 -123.5z " />
<glyph unicode="&#x26;" horiz-adv-x="1302" d="M84 338q0 127 70.5 221t226.5 180q-80 89 -115 157.5t-35 154.5q0 137 103.5 231t275.5 94q157 0 244.5 -86.5t87.5 -216.5q0 -112 -78.5 -199t-216.5 -163l248 -285q86 112 149 279h175q-94 -240 -218 -402l265 -303h-250l-133 156q-90 -95 -199 -137t-207 -42 q-92 0 -168 30t-124.5 81t-74.5 115t-26 135zM266 346q0 -81 66.5 -144t169.5 -63q74 0 147 35t133 102l-295 349q-117 -60 -169 -125.5t-52 -153.5zM414 1065q0 -104 135 -242q113 63 167 119.5t54 124.5q0 70 -43.5 110t-132.5 40t-134.5 -46.5t-45.5 -105.5z" />
<glyph unicode="'" horiz-adv-x="417" d="M168 1159v217h197v-217l-56 -303h-86z" />
<glyph unicode="(" horiz-adv-x="622" d="M193 590q0 245 83.5 501.5t274.5 563.5h192q-194 -299 -280 -556t-86 -509q0 -247 49.5 -473t153.5 -473h-187q-200 489 -200 946z" />
<glyph unicode=")" horiz-adv-x="622" d="M-57 -356q194 299 280 556t86 509q0 247 -49.5 473t-153.5 473h187q201 -491 201 -946q0 -244 -84 -500.5t-275 -564.5h-192z" />
<glyph unicode="*" horiz-adv-x="765" d="M102 911l250 103l-250 100l84 146l215 -166l-39 282h168l-38 -282l215 166l84 -146l-250 -102l250 -101l-84 -145l-215 166l38 -283h-168l39 283l-215 -166z" />
<glyph unicode="+" d="M186 606v162h336v356h162v-356h336v-162h-336v-356h-162v356h-336z" />
<glyph unicode="," horiz-adv-x="436" d="M-143 -346q117 39 164.5 101t58.5 179l26 293h207l-24 -284q-11 -138 -102.5 -215.5t-274.5 -77.5q-31 0 -55 4z" />
<glyph unicode="-" horiz-adv-x="868" d="M111 422l16 182h674l-17 -182h-673z" />
<glyph unicode="." horiz-adv-x="436" d="M80 0l20 227h217l-20 -227h-217z" />
<glyph unicode="/" horiz-adv-x="856" d="M-2 -264l670 1902h190l-670 -1902h-190z" />
<glyph unicode="0" d="M147 586q0 158 34.5 304t97.5 261.5t161.5 184.5t218.5 69q89 0 159.5 -40t114.5 -103t72.5 -146t40 -162t11.5 -159q0 -92 -12.5 -184.5t-37.5 -186t-67 -173.5t-96 -142.5t-130 -98t-165 -35.5q-88 0 -159 38.5t-115.5 99.5t-74 143t-41.5 163.5t-12 166.5zM354 573 q0 -75 10 -143t32 -130.5t64.5 -100t100.5 -37.5q66 0 118.5 44t83.5 111.5t51.5 156.5t28 170.5t7.5 162.5q0 44 -4.5 91.5t-18 107t-35 105t-60.5 77t-89 31.5q-63 0 -114 -43.5t-82.5 -111.5t-53.5 -156t-30.5 -171.5t-8.5 -163.5z" />
<glyph unicode="1" d="M422 0l115 1307l215 123l-125 -1430h-205z" />
<glyph unicode="2" d="M135 0l496 725q75 110 108 180t33 135q0 64 -31.5 106t-69.5 56.5t-77 14.5q-97 0 -189.5 -52t-164.5 -127l20 246q164 121 369 121q161 0 262.5 -99.5t101.5 -240.5q0 -80 -33 -164t-114 -201l-357 -518h482l-17 -182h-819z" />
<glyph unicode="3" d="M111 240l155 135q23 -86 94.5 -153.5t169.5 -67.5q116 0 196.5 85t80.5 224q0 55 -18.5 99t-46.5 70t-64.5 43t-69 23.5t-63.5 6.5q-63 0 -131 -11l301 500h-469l16 182h785l-326 -536q128 -19 208.5 -113.5t80.5 -273.5q0 -88 -34.5 -173t-96 -153t-156.5 -110t-207 -42 q-136 0 -242.5 72.5t-162.5 192.5z" />
<glyph unicode="4" d="M41 365l850 1011h96l-74 -848h172l-14 -163h-172l-33 -365h-204l32 365h-653zM385 528h324l36 435z" />
<glyph unicode="5" d="M88 193l141 151q38 -73 109 -129.5t166 -56.5q115 0 189.5 79.5t74.5 198.5q0 116 -74 189t-202 73q-129 0 -226 -36l123 714h647l-71 -182h-433l-55 -344q46 8 98 8q176 0 289 -110t113 -312q0 -61 -18 -123.5t-57 -123.5t-94 -108.5t-136 -76.5t-176 -29 q-73 0 -140 20.5t-117.5 54.5t-86.5 69t-64 74z" />
<glyph unicode="6" d="M129 442q0 138 43.5 270t161 301.5t315.5 362.5h275q-355 -306 -475 -557q76 27 182 27q54 0 107 -15t104 -49t90 -82.5t62.5 -121t23.5 -158.5q0 -56 -16.5 -116t-54 -120t-90.5 -107t-134 -76.5t-176 -29.5q-78 0 -150 27t-133 81.5t-98 148t-37 214.5zM334 442 q0 -140 67 -211t166 -71q110 0 176 75.5t66 188.5q0 108 -70 173t-168 65q-92 0 -202 -44q-35 -74 -35 -176z" />
<glyph unicode="7" d="M156 0l653 1194h-590l17 182h884l-749 -1376h-215z" />
<glyph unicode="8" d="M125 369q0 136 76 228.5t237 168.5q-174 127 -174 295q0 43 13 88t44 91.5t77 82.5t118.5 59t161.5 23q138 0 232 -87t94 -231q0 -57 -19.5 -105.5t-57 -87t-74 -65.5t-87.5 -57q131 -72 194.5 -153t63.5 -205q0 -51 -18 -108.5t-57 -116t-93.5 -106t-136 -77 t-176.5 -29.5q-186 0 -302 106t-116 286zM328 377q0 -95 61 -157t168 -62t182.5 71t75.5 177q0 82 -55.5 147.5t-161.5 124.5q-137 -63 -203.5 -135t-66.5 -166zM459 1053q0 -117 149 -191q102 39 151.5 95t49.5 114q0 71 -47 112.5t-113 41.5q-85 0 -137.5 -49.5 t-52.5 -122.5z" />
<glyph unicode="9" d="M178 956q0 56 16.5 116t54 120t90.5 107t134 76.5t176 29.5q58 0 114.5 -16t112 -54t97.5 -93t68 -140t26 -189q0 -190 -119 -413.5t-401 -499.5h-275q156 125 283.5 273t192.5 284q-76 -27 -162 -27q-75 0 -147 27.5t-130.5 79t-94.5 135t-36 184.5zM387 952 q0 -110 66.5 -181t162.5 -71q109 0 203 43q18 38 30.5 97t12.5 94q0 140 -67 211.5t-166 71.5q-110 0 -176 -76t-66 -189z" />
<glyph unicode=":" horiz-adv-x="436" d="M80 0l20 227h217l-20 -227h-217zM129 557l21 227h217l-21 -227h-217z" />
<glyph unicode=";" horiz-adv-x="436" d="M-152 -346q117 39 165 101t59 179l26 293h207l-24 -284q-11 -138 -102.5 -215.5t-274.5 -77.5q-32 0 -56 4zM127 557l20 227h218l-21 -227h-217z" />
<glyph unicode="&#x3c;" d="M186 606v162l834 356v-161l-645 -275l645 -276v-162z" />
<glyph unicode="=" d="M186 457v161h834v-161h-834zM186 756v162h834v-162h-834z" />
<glyph unicode="&#x3e;" d="M186 250v162l645 274l-645 277v161l834 -356v-162z" />
<glyph unicode="?" horiz-adv-x="937" d="M156 1241q99 88 185.5 126t211.5 38q163 0 258.5 -96.5t95.5 -231.5q0 -78 -41.5 -153t-100.5 -131t-117.5 -104t-100 -90.5t-41.5 -72.5q0 -45 43 -88l-133 -121q-62 62 -82.5 103.5t-20.5 99.5q0 54 30 107.5t74.5 94t96.5 85t96.5 83.5t74.5 87.5t30 97.5 q0 69 -49 115.5t-134 46.5q-120 0 -262 -127zM252 115l162 147l139 -160l-166 -147z" />
<glyph unicode="@" horiz-adv-x="1955" d="M111 420q0 204 88 391q79 165 208 279.5t289 169.5t344 55q163 0 312.5 -59t261 -160.5t178 -247.5t66.5 -311q0 -80 -17.5 -161.5t-54 -156.5t-87 -133.5t-122 -93.5t-152.5 -35q-88 0 -155.5 40t-100.5 118q-157 -133 -329 -133q-83 0 -148.5 32.5t-105.5 89t-61 127 t-21 150.5q0 125 53 237q51 111 138 186t193.5 109.5t231.5 34.5q98 0 256 -22l-61 -674q-6 -63 31.5 -112.5t99.5 -49.5q51 0 94.5 30.5t71.5 77.5t48 106.5t29 115.5t9 106q0 181 -92 329.5t-245 231t-333 82.5q-248 0 -430.5 -118.5t-269.5 -345.5q-54 -141 -54 -273 q0 -331 200 -529t532 -198q105 0 234.5 25.5t221.5 66.5l47 -133q-113 -45 -255.5 -74.5t-260.5 -29.5q-191 0 -354.5 62t-279.5 172.5t-182 272t-66 353.5zM678 362q0 -105 58.5 -169t162.5 -64q64 0 124.5 34t125.5 91l51 539q-98 12 -147 12q-110 0 -198 -67t-132.5 -167 t-44.5 -209z" />
<glyph unicode="A" horiz-adv-x="1355" d="M31 0l682 1391h209l376 -1391h-211l-88 358h-587l-170 -358h-211zM489 526h467l-159 650z" />
<glyph unicode="B" horiz-adv-x="1185" d="M131 0l121 1376h407q77 0 143.5 -19.5t118.5 -58t81.5 -101.5t29.5 -144q0 -32 -8.5 -68.5t-28.5 -81t-62.5 -85.5t-101.5 -66q123 -32 193 -116t70 -200q0 -189 -134.5 -312.5t-338.5 -123.5h-490zM344 176h234q311 0 311 258q0 60 -24 102t-66 64t-89 31.5t-104 9.5 h-223zM399 809h131q146 0 223.5 59t77.5 172q0 81 -64.5 121.5t-152.5 40.5h-180z" />
<glyph unicode="C" horiz-adv-x="1372" d="M147 627q0 164 60 308.5t162.5 247.5t246 162.5t304.5 59.5q263 0 446 -94l-18 -199q-196 109 -441 109q-124 0 -229.5 -50t-175 -133.5t-108 -190t-38.5 -220.5q0 -214 130.5 -342.5t334.5 -128.5q122 0 240 44.5t213 110.5l-21 -211q-213 -129 -458 -129 q-186 0 -332 78.5t-231 228.5t-85 349z" />
<glyph unicode="D" horiz-adv-x="1411" d="M131 0l121 1376h436q138 0 257.5 -42t208 -119t139 -193.5t50.5 -257.5q0 -88 -19 -176t-57 -174.5t-101.5 -160.5t-145.5 -131t-196 -89.5t-246 -32.5h-447zM342 174h231q123 0 221.5 34.5t161 91t104 133t58.5 155t17 162.5q0 215 -123.5 333.5t-335.5 118.5h-242z" />
<glyph unicode="E" horiz-adv-x="1120" d="M131 0l121 1376h862l-14 -172h-666l-35 -383h514l-14 -172h-514l-43 -477h655l-14 -172h-852z" />
<glyph unicode="F" horiz-adv-x="1105" d="M131 0l121 1376h862l-14 -172h-666l-35 -383h514l-14 -172h-514l-57 -649h-197z" />
<glyph unicode="G" horiz-adv-x="1445" d="M123 627q0 164 59.5 308.5t162.5 247.5t246 162.5t304 59.5q124 0 259.5 -29.5t225.5 -75.5l-18 -198q-89 50 -222 84.5t-257 34.5t-229.5 -50t-175 -133.5t-108 -190t-38.5 -220.5q0 -214 130.5 -342.5t334.5 -128.5q145 0 309 77l31 336h-316l17 174h505l-53 -614 q-266 -158 -520 -158q-186 0 -332 78.5t-230.5 228.5t-84.5 349z" />
<glyph unicode="H" horiz-adv-x="1447" d="M131 0l121 1376h197l-50 -549h740l49 549h196l-120 -1376h-197l57 649h-743l-53 -649h-197z" />
<glyph unicode="I" horiz-adv-x="524" d="M135 0l121 1376h201l-121 -1376h-201z" />
<glyph unicode="J" horiz-adv-x="888" d="M23 258l188 92q0 -87 37 -143.5t106 -56.5q171 0 189 192l92 1034h196l-88 -1001q-8 -88 -31.5 -157t-68 -125.5t-119.5 -87t-176 -30.5q-71 0 -129 20.5t-93 51.5t-59 70.5t-33.5 74t-10.5 66.5z" />
<glyph unicode="K" horiz-adv-x="1247" d="M131 0l121 1376h197l-48 -538l576 538h250l-666 -596l643 -780h-258l-557 705l-61 -705h-197z" />
<glyph unicode="L" horiz-adv-x="993" d="M131 0l121 1376h197l-107 -1204h621l-15 -172h-817z" />
<glyph unicode="M" horiz-adv-x="1630" d="M131 0l121 1376h197l397 -651l524 651h197l-121 -1376h-197l92 1053l-526 -647l-395 641l-92 -1047h-197z" />
<glyph unicode="N" horiz-adv-x="1507" d="M131 0l121 1376h197l706 -1061l92 1061h197l-121 -1376h-197l-706 1061l-92 -1061h-197z" />
<glyph unicode="O" horiz-adv-x="1650" d="M143 618q0 170 60.5 317.5t165 250t248.5 161t307 58.5q144 0 266.5 -48.5t207.5 -134t133 -205.5t48 -259q0 -170 -60.5 -317.5t-164.5 -250t-248 -161t-307 -58.5q-144 0 -266.5 48.5t-208 134t-133.5 205.5t-48 259zM352 637q0 -217 129 -349t334 -132q167 0 295 80.5 t194 212t66 290.5q0 217 -129 349.5t-334 132.5q-167 0 -295 -80.5t-194 -212.5t-66 -291z" />
<glyph unicode="P" horiz-adv-x="1093" d="M131 0l121 1376h416q62 0 121 -13.5t113 -43t94.5 -72t64.5 -105.5t24 -138q0 -96 -32 -178.5t-91 -144t-149.5 -97t-202.5 -35.5h-233l-49 -549h-197zM391 723h193q41 0 79 6.5t78 25t69 47t48 77t19 110.5q0 57 -21 99t-58 66.5t-82.5 36t-99.5 11.5h-182z" />
<glyph unicode="Q" horiz-adv-x="1650" d="M143 618q0 170 60.5 317.5t165 250t248.5 161t307 58.5q144 0 266.5 -48.5t207.5 -134t133 -205.5t48 -259q0 -309 -180 -520l137 -152l-139 -125l-137 152q-200 -142 -461 -142q-144 0 -266.5 48.5t-208 134t-133.5 205.5t-48 259zM352 637q0 -217 129 -349t334 -132 q180 0 320 96l-140 151l140 125l131 -143q104 150 104 354q0 217 -129 349.5t-334 132.5q-167 0 -295 -80.5t-194 -212.5t-66 -291z" />
<glyph unicode="R" horiz-adv-x="1212" d="M131 0l121 1376h403q192 0 294 -99.5t102 -252.5q0 -134 -74.5 -238.5t-200.5 -152.5l379 -633h-237l-349 598h-188l-53 -598h-197zM395 772h180q112 0 191.5 63t79.5 185q0 94 -65.5 138t-162.5 44h-184z" />
<glyph unicode="S" horiz-adv-x="1097" d="M84 346l195 86q0 -122 72 -200t204 -78q104 0 182 55t78 151q0 55 -32.5 101t-84.5 80.5t-114.5 68t-125 72t-114.5 84t-84.5 112.5t-32.5 148q0 156 116 267.5t304 111.5q271 0 395 -252l-153 -127q-28 99 -95 148t-159 49q-88 0 -144.5 -46t-56.5 -133q0 -47 32.5 -88 t84.5 -73.5t114.5 -66t125 -73.5t114.5 -86t84.5 -113.5t32.5 -148.5q0 -180 -134.5 -300t-340.5 -120q-188 0 -312.5 104.5t-150.5 266.5z" />
<glyph unicode="T" horiz-adv-x="1034" d="M92 1204l14 172h996l-15 -172h-393l-106 -1204h-197l107 1204h-406z" />
<glyph unicode="U" horiz-adv-x="1482" d="M170 528q0 62 2 82l72 766h196l-69 -796q-2 -20 -2 -56q0 -81 22.5 -146t58.5 -105.5t84.5 -67.5t96.5 -38t98 -11q49 0 100.5 11.5t108.5 42.5t102.5 77t79 122t41.5 171l70 796h196l-69 -788q-26 -292 -203 -454.5t-442 -162.5q-106 0 -201 34t-172.5 100t-123.5 175.5 t-46 247.5z" />
<glyph unicode="V" horiz-adv-x="1290" d="M113 1376h211l290 -1175l555 1175h211l-682 -1390h-209z" />
<glyph unicode="W" horiz-adv-x="1986" d="M117 1376h207l249 -1102l426 1102h179l233 -1102l442 1102h207l-573 -1390h-205l-225 1030l-408 -1030h-205z" />
<glyph unicode="X" horiz-adv-x="1298" d="M-8 0l567 723l-407 653h237l301 -491l381 491h238l-518 -651l456 -725h-239l-344 565l-433 -565h-239z" />
<glyph unicode="Y" horiz-adv-x="1189" d="M119 1376h233l301 -553l396 553h233l-547 -723l-57 -653h-197l58 653z" />
<glyph unicode="Z" horiz-adv-x="1245" d="M-35 0l940 1204h-715l15 172h1079l-938 -1204h803l-14 -172h-1170z" />
<glyph unicode="[" horiz-adv-x="499" d="M70 -303l172 1958h379l-13 -146h-202l-148 -1667h203l-12 -145h-379z" />
<glyph unicode="\" horiz-adv-x="638" d="M31 1638h190l504 -1902h-190z" />
<glyph unicode="]" horiz-adv-x="499" d="M-88 -303l12 145h203l147 1667h-202l12 146h379l-172 -1958h-379z" />
<glyph unicode="^" d="M166 737l356 668h162l356 -668h-161l-275 516l-276 -516h-162z" />
<glyph unicode="_" horiz-adv-x="845" d="M0 -336l12 121h834l-12 -121h-834z" />
<glyph unicode="`" horiz-adv-x="1024" d="M274 1290h222l254 -250h-222z" />
<glyph unicode="a" horiz-adv-x="1079" d="M100 383q0 72 21.5 147.5t71 151t120.5 134.5t178.5 95.5t235.5 36.5q115 0 260 -24l-84 -924h-166l8 94q-61 -52 -141.5 -82t-165.5 -30q-150 0 -244 107t-94 294zM291 365q0 -98 54 -159t153 -61q111 0 247 119l50 512q-68 10 -133 10q-66 0 -131.5 -30t-119 -82.5 t-87 -133.5t-33.5 -175z" />
<glyph unicode="b" horiz-adv-x="1077" d="M104 0l121 1376h183l-46 -506q126 78 265 78q84 0 154.5 -37t115.5 -97.5t69.5 -135.5t24.5 -154q0 -81 -20 -158.5t-65 -149t-110 -124.5t-161.5 -85t-212.5 -32q-132 0 -318 25zM305 154q65 -9 111 -9q97 0 171.5 29.5t119.5 81.5t67.5 119t22.5 147q0 116 -64 189 t-162 73q-56 0 -116 -28t-105 -64z" />
<glyph unicode="c" horiz-adv-x="980" d="M111 403q0 158 72.5 283.5t195 193.5t270.5 68q143 0 271 -76l-19 -196q-131 96 -272 96q-96 0 -171.5 -53.5t-114 -135.5t-38.5 -173q0 -126 64 -197.5t190 -71.5q79 0 162.5 28.5t142.5 78.5l-18 -191q-142 -82 -324 -82q-193 0 -302 114t-109 314z" />
<glyph unicode="d" horiz-adv-x="1116" d="M104 408q0 69 17 140.5t55.5 144t93.5 128.5t139 91.5t185 35.5q70 0 139.5 -24.5t118.5 -57.5l45 510h182l-121 -1376h-165l8 98q-130 -123 -305 -123q-184 0 -288 123.5t-104 309.5zM299 422q0 -134 59.5 -209.5t171.5 -75.5q134 0 267 119l39 436q-110 92 -242 92 q-92 0 -161 -53.5t-101.5 -134t-32.5 -174.5z" />
<glyph unicode="e" horiz-adv-x="985" d="M96 373q0 76 20.5 155t64.5 154.5t105.5 134.5t150 95t190.5 36q134 0 212.5 -76.5t78.5 -187.5q0 -43 -12.5 -86.5t-46 -91t-84.5 -83.5t-135.5 -59.5t-190.5 -23.5q-34 0 -87 7t-77 18q0 -100 58 -163t161 -63q201 0 391 123l-14 -180q-75 -48 -182 -79.5t-203 -31.5 q-79 0 -149.5 25t-127 73t-90 126.5t-33.5 177.5zM305 512q23 -7 68 -12.5t71 -5.5q138 0 207.5 49t69.5 119q0 56 -40.5 89t-100.5 33q-98 0 -177 -85.5t-98 -186.5z" />
<glyph unicode="f" horiz-adv-x="731" d="M57 766l15 162h170l10 106q8 88 28.5 153t60.5 115.5t105 76.5t156 26q103 0 203 -33l-17 -178q-89 47 -180 47q-89 0 -123.5 -49.5t-50.5 -179.5l-10 -84h289l-15 -162h-286l-68 -766h-182l67 766h-172z" />
<glyph unicode="g" horiz-adv-x="1091" d="M94 -391l12 180q72 -40 168 -71t177 -31q74 0 125 19t88.5 65t56.5 126t22 201q-125 -98 -270 -98q-70 0 -133 24t-114 69.5t-81 120t-30 167.5q0 75 23.5 152.5t74.5 152.5t123 133t177 93.5t228 35.5q122 0 267 -24l-82 -914q-8 -82 -23 -147.5t-48 -133t-81 -112.5 t-125.5 -73.5t-177.5 -28.5q-167 0 -377 94zM303 387q0 -97 54.5 -161t142.5 -64q123 0 256 114l45 502q-48 6 -94 6q-115 0 -209 -58.5t-144.5 -149t-50.5 -189.5z" />
<glyph unicode="h" horiz-adv-x="1081" d="M104 0l121 1376h183l-48 -528q68 46 133.5 73t145.5 27q151 0 246.5 -96.5t95.5 -255.5q0 -52 -4 -102l-45 -494h-182l45 504q2 12 2 39q0 229 -195 229q-117 0 -256 -104l-59 -668h-183z" />
<glyph unicode="i" horiz-adv-x="466" d="M104 0l84 928h183l-84 -928h-183zM160 1200l157 143l134 -143l-158 -145z" />
<glyph unicode="j" horiz-adv-x="456" d="M-150 -457l15 174q30 -12 69 -12q74 0 113.5 33.5t46.5 114.5l94 1075h183l-99 -1108q-11 -124 -89.5 -205.5t-221.5 -81.5q-61 0 -111 10zM150 1200l157 143l133 -143l-157 -145z" />
<glyph unicode="k" horiz-adv-x="1021" d="M104 0l119 1376h183l-70 -798l395 350h250l-498 -410l492 -518h-250l-401 436l-37 -436h-183z" />
<glyph unicode="l" horiz-adv-x="567" d="M123 207q0 25 8 117l92 1052h183l-95 -1059q-6 -54 -6 -96q0 -86 98 -86q60 0 129 37l-12 -158q-80 -32 -172 -32q-114 0 -169.5 60t-55.5 165z" />
<glyph unicode="m" horiz-adv-x="1726" d="M104 0l82 928h174l-6 -84q70 48 136 76t149 28q95 0 171 -40t120 -113q199 153 354 153q151 0 246.5 -96.5t95.5 -255.5q0 -52 -4 -102l-45 -494h-182l45 504q2 12 2 39q0 229 -195 229q-118 0 -270 -115q4 -40 4 -61q0 -52 -4 -102l-45 -494h-182l45 504q2 12 2 39 q0 229 -195 229q-117 0 -256 -104l-59 -668h-183z" />
<glyph unicode="n" horiz-adv-x="1081" d="M104 0l82 928h174l-6 -84q70 48 136 76t149 28q151 0 246.5 -96.5t95.5 -255.5q0 -52 -4 -102l-45 -494h-182l45 504q2 12 2 39q0 229 -195 229q-117 0 -256 -104l-59 -668h-183z" />
<glyph unicode="o" horiz-adv-x="1140" d="M100 408q0 106 35.5 202.5t100.5 172t166 120.5t223 45q195 0 311.5 -117.5t116.5 -324.5q0 -41 -7.5 -86.5t-25.5 -97.5t-45 -100.5t-69.5 -93.5t-95 -78t-125.5 -53t-157 -20q-106 0 -189.5 35t-134.5 95.5t-77.5 137t-26.5 163.5zM289 424q0 -139 71.5 -211t186.5 -72 q82 0 145.5 32.5t99.5 85t54 111.5t18 119q0 139 -67.5 217t-192.5 78q-80 0 -142.5 -33t-99 -86.5t-55 -115t-18.5 -125.5z" />
<glyph unicode="p" horiz-adv-x="1138" d="M66 -449l120 1377h166l-10 -103q130 123 307 123q184 0 287.5 -123t103.5 -309q0 -69 -16.5 -140.5t-55 -144t-93.5 -129t-139 -92t-185 -35.5q-133 0 -258 84l-45 -508h-182zM307 231q110 -92 244 -92q92 0 161 53.5t101.5 134.5t32.5 175q0 134 -59.5 209t-172.5 75 q-136 0 -268 -118z" />
<glyph unicode="q" horiz-adv-x="1077" d="M106 383q0 72 21.5 147.5t71 151t120.5 134.5t178.5 95.5t235.5 36.5q115 0 260 -24l-125 -1373h-182l49 543q-132 -112 -291 -112q-150 0 -244 107t-94 294zM297 365q0 -98 54 -159t153 -61q112 0 248 119l49 512q-68 10 -133 10q-66 0 -131.5 -30t-119 -82.5 t-87 -133.5t-33.5 -175z" />
<glyph unicode="r" horiz-adv-x="727" d="M104 0l82 928h174l-10 -119q71 65 134 102t132 37q64 0 123 -20l-24 -199q-68 37 -135 37q-121 0 -236 -119l-57 -647h-183z" />
<glyph unicode="s" horiz-adv-x="811" d="M61 41l15 182q72 -41 153.5 -62.5t149.5 -21.5q153 0 153 82q0 36 -42.5 74t-102.5 75t-120.5 78.5t-103 101t-42.5 126.5q0 115 90.5 193.5t259.5 78.5q118 0 270 -63l-16 -180q-148 79 -272 79q-65 0 -100.5 -24.5t-35.5 -61.5q0 -38 42 -77.5t102 -76.5t120 -78.5 t102 -99.5t42 -124q0 -49 -19 -94t-57 -85t-106 -64t-156 -24q-165 0 -326 66z" />
<glyph unicode="t" horiz-adv-x="739" d="M78 766l14 162h166l25 282h182l-25 -282h236l-14 -162h-236l-41 -463q-2 -20 -2 -55q0 -61 22.5 -87t81.5 -26q42 0 90.5 15.5t81.5 37.5l-12 -155q-98 -49 -217 -49q-52 0 -90 10t-71.5 35t-50.5 75t-17 123q0 39 2 62l41 477h-166z" />
<glyph unicode="u" horiz-adv-x="1056" d="M117 332q0 52 4 102l45 494h182l-45 -504q-2 -12 -2 -49q0 -112 46.5 -165.5t148.5 -53.5q132 0 256 120l59 652h182l-82 -928h-174l8 104q-143 -124 -296 -124q-150 0 -241 95.5t-91 256.5z" />
<glyph unicode="v" horiz-adv-x="958" d="M57 928h201l154 -699l372 699h201l-518 -928h-168z" />
<glyph unicode="w" horiz-adv-x="1560" d="M78 928h196l146 -692l317 692h150l139 -690l373 690h192l-514 -928h-170l-133 645l-295 -645h-172z" />
<glyph unicode="x" horiz-adv-x="1011" d="M2 0l408 481l-308 447h226l198 -318l242 318h225l-370 -453l307 -475h-217l-209 340l-281 -340h-221z" />
<glyph unicode="y" horiz-adv-x="956" d="M-100 -459l14 170q34 -12 76 -12q68 0 115 29t92 104l157 262l-307 834h189l233 -633l356 633h187l-652 -1147q-77 -137 -162 -193.5t-196 -56.5q-57 0 -102 10z" />
<glyph unicode="z" horiz-adv-x="958" d="M20 0l598 758h-471l15 170h819l-598 -758h506l-15 -170h-854z" />
<glyph unicode="{" horiz-adv-x="585" d="M94 598l10 133q45 3 76.5 17.5t49.5 31.5t29 49t14.5 56t7.5 67l32 387q7 83 21.5 137.5t36 89t59.5 52t81 23.5t112 6h79l-12 -146q-49 0 -75.5 -1t-51 -8.5t-34.5 -16t-19 -32t-12 -47t-6 -69.5l-31 -387q-8 -100 -27.5 -155t-51 -80.5t-93.5 -45.5q52 -18 79 -43 t40 -82t4 -155l-31 -352q-4 -54 -2 -89.5t22 -56.5t58.5 -30t109.5 -9l-12 -145h-76q-169 0 -231 84.5t-49 245.5l28 344q5 48 2 86t-16 66t-42.5 46.5t-78.5 28.5z" />
<glyph unicode="|" horiz-adv-x="448" d="M180 -487v1892h162v-1892h-162z" />
<glyph unicode="}" horiz-adv-x="585" d="M-74 -303l13 145q49 0 75.5 1t51 8.5t34.5 16t19 32t12 47t6 69.5l31 387q8 100 27.5 155t51 80.5t93.5 45.5q-52 18 -79 43t-40 82.5t-4 155.5l31 352q3 54 1.5 89.5t-21.5 56.5t-59 29.5t-110 8.5l13 146h75q169 0 231.5 -84.5t49.5 -245.5l-29 -344q-5 -48 -2 -86 t16 -66t43 -47t79 -29l-11 -133q-45 -3 -76.5 -17.5t-49 -31.5t-28.5 -49t-14.5 -56t-7.5 -67l-33 -387q-6 -69 -16 -118t-28 -83.5t-39.5 -55t-57 -32t-73.5 -15t-95 -3.5h-80z" />
<glyph unicode="~" d="M141 524v211q153 96 267 96q50 0 110.5 -22t106.5 -48.5t97.5 -48.5t86.5 -22q28 0 65.5 15t64.5 32t68 44t56 36v-209q-72 -46 -131 -72t-121 -26q-52 0 -111.5 22t-103.5 48.5t-96 48.5t-92 22q-31 0 -71 -15.5t-65 -29.5t-72.5 -45t-58.5 -37z" />
<glyph unicode="&#xa0;" />
<glyph unicode="&#xa1;" horiz-adv-x="538" d="M104 -455l25 281l125 743h98l-6 -743l-24 -281h-218zM172 819l166 148l135 -160l-162 -148z" />
<glyph unicode="&#xa2;" d="M162 416q0 134 62.5 251t170 191.5t238.5 91.5l16 178h133l-16 -178q140 -17 238 -76l-19 -208q-126 88 -233 106l-54 -610q150 17 252 102l-18 -209q-97 -57 -248 -71l-16 -179h-133l16 179q-172 21 -280.5 137.5t-108.5 294.5zM362 430q0 -102 55 -172t148 -92l53 602 q-115 -26 -185.5 -120t-70.5 -218z" />
<glyph unicode="&#xa3;" d="M74 0q175 219 245 567h-169l71 178h129q5 31 14 92t14.5 97t15 85t18.5 89q34 143 130.5 220t227.5 77q174 0 307 -111l-84 -164q-108 97 -227 97q-66 0 -107 -40.5t-65 -139.5q-17 -70 -55 -302h360l-72 -178h-319q-44 -249 -117 -389h621l-72 -178h-866z" />
<glyph unicode="&#xa4;" horiz-adv-x="1308" d="M166 356q94 90 141 133q-78 118 -78 236q0 129 78 236q-16 15 -44.5 42t-52 49.5t-44.5 43.5q65 65 98 100q92 -92 139 -137q113 76 238 76q60 0 123.5 -19.5t114.5 -56.5q94 90 139 137q18 -18 50 -51t48 -49q-22 -23 -139 -135q76 -108 76 -236q0 -123 -76 -236 q71 -64 139 -133q-16 -16 -48 -49t-50 -51q-20 21 -43 44t-51 50.5t-43 42.5q-109 -76 -240 -76q-134 0 -238 76q-47 -45 -139 -137q-33 35 -98 100zM371 727q0 -110 80 -190t190 -80q112 0 192 79.5t80 190.5q0 115 -82 191.5t-188 76.5q-115 0 -193.5 -79.5t-78.5 -188.5z " />
<glyph unicode="&#xa5;" d="M49 1376h234l301 -549l395 549h233l-497 -659h252l-15 -146h-293l-14 -161h293l-14 -146h-293l-23 -264h-196l22 264h-297l15 146h297l14 161h-297l14 146h248z" />
<glyph unicode="&#xa6;" horiz-adv-x="448" d="M180 -303v782h162v-782h-162zM180 872v783h162v-783h-162z" />
<glyph unicode="&#xa7;" horiz-adv-x="1081" d="M59 -258l164 123q31 -73 104 -123.5t152 -50.5q78 0 147.5 47t69.5 121q0 40 -32.5 78t-84.5 69t-115 63.5t-126 68.5t-115 76.5t-84.5 95.5t-32.5 118q0 127 83 210t214 118q-165 118 -165 280q0 82 38.5 153t100.5 117.5t139 72.5t156 26q122 0 216 -59t152 -168 l-174 -117q-30 74 -89 118t-136 44q-78 0 -132 -42t-54 -118q0 -43 31 -82t80 -71t108.5 -65t119.5 -70t109 -78t80 -97.5t31 -120.5q0 -123 -77 -204.5t-200 -118.5q85 -56 131.5 -116.5t46.5 -139.5q0 -116 -67.5 -207.5t-169.5 -138t-215 -46.5q-123 0 -234.5 63.5 t-169.5 170.5zM311 465q0 -24 13.5 -47t32 -41t54.5 -40.5t62.5 -36.5t73.5 -38q45 4 88 16.5t83.5 34t65.5 57.5t25 81q0 26 -14 50t-30 40.5t-54.5 40.5t-59.5 35t-73 38q-61 -7 -118.5 -27t-103 -63.5t-45.5 -99.5z" />
<glyph unicode="&#xa8;" horiz-adv-x="1024" d="M233 1063l17 197h196l-14 -197h-199zM575 1063l17 197h199l-17 -197h-199z" />
<glyph unicode="&#xa9;" horiz-adv-x="1486" d="M111 625q0 177 88.5 327.5t241 238t331.5 87.5q134 0 257 -52t211.5 -139.5t141 -208t52.5 -253.5q0 -177 -88.5 -327.5t-241.5 -238.5t-332 -88t-331.5 88t-241 238.5t-88.5 327.5zM248 625q0 -140 70 -259t190.5 -188t263.5 -69t263 69t189.5 188t69.5 259t-69.5 259 t-189.5 188t-263 69t-263.5 -69t-190.5 -188t-70 -259zM395 627q0 166 108 280.5t281 114.5q126 0 269 -76v-155q-91 56 -151 75t-118 19q-50 0 -91.5 -17t-68 -44t-45 -62t-26.5 -69t-8 -66q0 -68 22.5 -124t76 -94t130.5 -38q67 0 127 22t152 88v-159q-133 -91 -279 -91 q-91 0 -165 35t-119.5 92t-70 126.5t-24.5 142.5z" />
<glyph unicode="&#xaa;" horiz-adv-x="690" d="M113 1069q0 55 23.5 111.5t70 108t126.5 84t181 32.5q71 0 176 -14l-55 -555h-133l2 36q-76 -47 -168 -47q-99 0 -161 66t-62 178zM262 1059q0 -48 28.5 -77.5t82.5 -29.5q60 0 135 58l27 268q-7 0 -27 1t-35 1q-79 0 -145 -62t-66 -159z" />
<glyph unicode="&#xab;" horiz-adv-x="931" d="M41 463l338 391h215l-338 -391l268 -391h-215zM446 463l338 391h215l-337 -391l268 -391h-215z" />
<glyph unicode="&#xac;" d="M186 756v162h834v-461h-178v299h-656z" />
<glyph unicode="&#xad;" horiz-adv-x="868" d="M111 422l16 182h674l-17 -182h-673z" />
<glyph unicode="&#xae;" horiz-adv-x="772" d="M168 1128q0 123 88 209t211 86q122 0 211.5 -86.5t89.5 -208.5t-89 -208t-212 -86t-211 85.5t-88 208.5zM250 1128q0 -89 63.5 -151t153.5 -62q89 0 154 62.5t65 150.5t-65 150.5t-154 62.5q-90 0 -153.5 -62t-63.5 -151zM369 985v307h98q44 0 79.5 -23.5t35.5 -66.5 q0 -56 -50 -82l86 -135h-88l-75 123h-11v-123h-75zM444 1178h31q31 0 31 24q0 19 -37 19h-25v-43z" />
<glyph unicode="&#xaf;" horiz-adv-x="1024" d="M223 1085l15 160h563l-15 -160h-563z" />
<glyph unicode="&#xb0;" horiz-adv-x="698" d="M123 1094q0 125 92.5 218t216.5 93q113 0 188.5 -75t75.5 -187q0 -125 -92.5 -218.5t-216.5 -93.5q-113 0 -188.5 75.5t-75.5 187.5zM260 1104q0 -57 39 -96t96 -39q66 0 115 49t49 115q0 57 -39 96t-96 39q-66 0 -115 -49t-49 -115z" />
<glyph unicode="&#xb1;" d="M186 0v162h834v-162h-834zM186 606v162h336v356h162v-356h336v-162h-336v-356h-162v356h-336z" />
<glyph unicode="&#xb2;" horiz-adv-x="681" d="M72 633l321 409q46 60 61 86.5t15 55.5q0 37 -25.5 57.5t-60.5 20.5q-114 0 -231 -105l16 176q116 72 242 72q120 0 178.5 -54t58.5 -143q0 -55 -21.5 -102t-82.5 -119l-185 -221h279l-14 -133h-551z" />
<glyph unicode="&#xb3;" horiz-adv-x="716" d="M82 768l131 98q18 -59 55.5 -94t91.5 -35q62 0 104 40t42 104q0 57 -38.5 90t-92.5 33q-50 0 -121 -19l180 258h-268l14 133h529l-201 -286q72 -19 116 -72t44 -144q0 -117 -88.5 -192.5t-229.5 -75.5q-89 0 -158.5 42.5t-109.5 119.5z" />
<glyph unicode="&#xb4;" horiz-adv-x="1024" d="M252 1040l297 250h223l-297 -250h-223z" />
<glyph unicode="&#xb5;" horiz-adv-x="1150" d="M-113 -428l318 1499h180l-129 -600q-14 -63 -14 -133q0 -99 52 -153t148 -54q135 0 211 96t121 308l115 536h178l-156 -731q-22 -108 -22 -133q0 -37 17 -52.5t55 -15.5q20 0 32 2l-30 -143q-49 -10 -109 -10q-64 0 -97 29.5t-52 99.5q-88 -131 -271 -131 q-82 0 -143 27.5t-113 88.5l-110 -530h-181z" />
<glyph unicode="&#xb6;" horiz-adv-x="1208" d="M123 831q0 311 256 478q106 67 323 67h506l-147 -1683h-168l133 1530h-209l-133 -1530h-168l66 745q-65 0 -104.5 2t-96.5 16.5t-94 41.5q-86 62 -125 143t-39 190z" />
<glyph unicode="&#xb7;" horiz-adv-x="471" d="M164 573v228h217v-228h-217z" />
<glyph unicode="&#xb8;" horiz-adv-x="1024" d="M362 -395l9 102q25 -14 57 -14q38 0 71 20.5t33 67.5q0 36 -27 58.5t-77 25.5l55 180h109l-33 -117q42 -10 72.5 -47t30.5 -94q0 -83 -68.5 -134.5t-173.5 -51.5q-38 0 -58 4z" />
<glyph unicode="&#xb9;" horiz-adv-x="423" d="M143 629l72 714l178 87l-80 -801h-170z" />
<glyph unicode="&#xba;" horiz-adv-x="739" d="M143 1090q0 131 92 223t248 92q117 0 199 -70.5t82 -195.5q0 -36 -9.5 -75t-34.5 -83t-62 -78.5t-98 -57t-136 -22.5q-135 0 -208 78t-73 189zM295 1092q0 -71 37.5 -107.5t101.5 -36.5q89 0 133.5 56t44.5 126q0 72 -36 111t-105 39q-59 0 -100.5 -30t-58.5 -71t-17 -87 z" />
<glyph unicode="&#xbb;" horiz-adv-x="931" d="M-25 72l338 391l-268 391h215l268 -391l-338 -391h-215zM381 72l338 391l-268 391h215l268 -391l-338 -391h-215z" />
<glyph unicode="&#xbc;" horiz-adv-x="1441" d="M143 -25l861 1430h200l-862 -1430h-199zM158 629l71 714l179 87l-80 -801h-170zM680 145l8 39l621 633h43l-56 -547h105l-12 -125h-105l-14 -145h-164l14 145h-440zM963 270h170l20 197z" />
<glyph unicode="&#xbd;" horiz-adv-x="1538" d="M143 -25l861 1430h200l-862 -1430h-199zM158 629l71 714l179 87l-80 -801h-170zM862 0l322 410q46 60 61 86t15 55q0 37 -25.5 57.5t-60.5 20.5q-115 0 -232 -105l16 176q116 72 242 72q120 0 179 -54t59 -143q0 -55 -22 -101.5t-83 -119.5l-184 -221h278l-14 -133h-551z " />
<glyph unicode="&#xbe;" horiz-adv-x="1703" d="M82 768l131 98q18 -59 55.5 -94t91.5 -35q62 0 104 40t42 104q0 57 -38.5 90t-92.5 33q-50 0 -121 -19l180 258h-268l14 133h529l-201 -286q72 -19 116 -72t44 -144q0 -117 -88.5 -192.5t-229.5 -75.5q-89 0 -158.5 42.5t-109.5 119.5zM406 -25l860 1430h200l-862 -1430 h-198zM942 145l8 39l621 633h43l-55 -547h104l-12 -125h-105l-14 -145h-164l14 145h-440zM1225 270h170l18 195z" />
<glyph unicode="&#xbf;" horiz-adv-x="937" d="M31 -147q0 78 41.5 153t100 130.5t117.5 103.5t100.5 90.5t41.5 72.5q0 46 -43 89l133 120q62 -62 82.5 -103t20.5 -99q0 -54 -30 -107.5t-74.5 -94t-96.5 -85t-96.5 -83.5t-74.5 -87.5t-30 -97.5q0 -69 49 -115.5t134 -46.5q120 0 262 127l114 -131q-99 -88 -185.5 -126 t-211.5 -38q-163 0 -258.5 96.5t-95.5 231.5zM385 827l166 148l135 -160l-162 -147z" />
<glyph unicode="&#xc0;" horiz-adv-x="1355" d="M31 0l682 1391h209l376 -1391h-211l-88 358h-587l-170 -358h-211zM489 526h467l-159 650zM520 1749h221l252 -250h-221z" />
<glyph unicode="&#xc1;" horiz-adv-x="1355" d="M31 0l682 1391h209l376 -1391h-211l-88 358h-587l-170 -358h-211zM489 526h467l-159 650zM651 1499l297 250h221l-297 -250h-221z" />
<glyph unicode="&#xc2;" horiz-adv-x="1355" d="M31 0l682 1391h209l376 -1391h-211l-88 358h-587l-170 -358h-211zM481 1499l250 250h187l204 -250h-192l-115 150l-141 -150h-193zM489 526h467l-159 650z" />
<glyph unicode="&#xc3;" horiz-adv-x="1355" d="M31 0l682 1391h209l376 -1391h-211l-88 358h-587l-170 -358h-211zM465 1538q14 97 63 160t125 63q52 0 155 -42t138 -42q51 0 62 72h137q-46 -215 -199 -215q-49 0 -153 42t-134 42q-49 0 -57 -80h-137zM489 526h467l-159 650z" />
<glyph unicode="&#xc4;" horiz-adv-x="1355" d="M31 0l682 1391h209l376 -1391h-211l-88 358h-587l-170 -358h-211zM489 526h467l-159 650zM541 1511l16 197h197l-17 -197h-196zM883 1511l16 197h197l-17 -197h-196z" />
<glyph unicode="&#xc5;" horiz-adv-x="1355" d="M31 0l682 1391h209l376 -1391h-211l-88 358h-587l-170 -358h-211zM489 526h467l-159 650zM625 1667q0 77 61.5 138t153.5 61q82 0 132 -56.5t50 -142.5q0 -85 -63.5 -142t-153.5 -57q-81 0 -130.5 57t-49.5 142zM723 1667q0 -42 25 -71t65 -29q42 0 76.5 30t34.5 70 q0 43 -26 71.5t-67 28.5q-44 0 -76 -32t-32 -68z" />
<glyph unicode="&#xc6;" horiz-adv-x="2019" d="M31 0l1016 1376h966l-14 -172h-666l-35 -383h514l-14 -172h-514l-43 -477h655l-14 -172h-852l31 358h-547l-264 -358h-219zM631 516h444l62 686z" />
<glyph unicode="&#xc7;" horiz-adv-x="1372" d="M147 627q0 164 60 308.5t162.5 247.5t246 162.5t304.5 59.5q263 0 446 -94l-18 -199q-196 109 -441 109q-124 0 -229.5 -50t-175 -133.5t-108 -190t-38.5 -220.5q0 -214 130.5 -342.5t334.5 -128.5q122 0 240 44.5t213 110.5l-21 -211q-182 -110 -385 -125l-26 -96 q42 -10 72 -46.5t30 -94.5q0 -84 -69 -135.5t-173 -51.5q-32 0 -57 5l8 102q25 -14 58 -14q38 0 71 20.5t33 67.5q0 36 -27 58.5t-77 25.5l47 155q-269 12 -440 189.5t-171 466.5z" />
<glyph unicode="&#xc8;" horiz-adv-x="1120" d="M131 0l121 1376h862l-14 -172h-666l-35 -383h514l-14 -172h-514l-43 -477h655l-14 -172h-852zM354 1749h221l252 -250h-221z" />
<glyph unicode="&#xc9;" horiz-adv-x="1120" d="M131 0l121 1376h862l-14 -172h-666l-35 -383h514l-14 -172h-514l-43 -477h655l-14 -172h-852zM516 1499l297 250h221l-297 -250h-221z" />
<glyph unicode="&#xca;" horiz-adv-x="1120" d="M131 0l121 1376h862l-14 -172h-666l-35 -383h514l-14 -172h-514l-43 -477h655l-14 -172h-852zM373 1499l250 250h186l205 -250h-193l-114 150l-142 -150h-192z" />
<glyph unicode="&#xcb;" horiz-adv-x="1120" d="M131 0l121 1376h862l-14 -172h-666l-35 -383h514l-14 -172h-514l-43 -477h655l-14 -172h-852zM436 1511l17 197h196l-16 -197h-197zM778 1511l17 197h196l-16 -197h-197z" />
<glyph unicode="&#xcc;" horiz-adv-x="524" d="M10 1749h221l252 -250h-221zM135 0l121 1376h201l-121 -1376h-201z" />
<glyph unicode="&#xcd;" horiz-adv-x="524" d="M135 0l121 1376h201l-121 -1376h-201zM250 1499l297 250h221l-297 -250h-221z" />
<glyph unicode="&#xce;" horiz-adv-x="524" d="M37 1499l250 250h186l205 -250h-193l-114 150l-142 -150h-192zM135 0l121 1376h201l-121 -1376h-201z" />
<glyph unicode="&#xcf;" horiz-adv-x="524" d="M96 1511l17 197h196l-16 -197h-197zM135 0l121 1376h201l-121 -1376h-201zM438 1511l17 197h196l-16 -197h-197z" />
<glyph unicode="&#xd0;" horiz-adv-x="1411" d="M49 649l17 178h137l49 549h436q138 0 257.5 -42t208 -119t139 -193.5t50.5 -257.5q0 -88 -19 -176t-57 -174.5t-101.5 -160.5t-145.5 -131t-196 -89.5t-246 -32.5h-447l57 649h-139zM342 174h231q123 0 221.5 34.5t161 91t104 133t58.5 155t17 162.5q0 215 -123.5 333.5 t-335.5 118.5h-242l-35 -375h369l-16 -178h-367z" />
<glyph unicode="&#xd1;" horiz-adv-x="1507" d="M131 0l121 1376h197l706 -1061l92 1061h197l-121 -1376h-197l-706 1061l-92 -1061h-197zM520 1538q14 97 63.5 160t125.5 63q52 0 154.5 -42t137.5 -42q51 0 62 72h137q-46 -215 -199 -215q-49 0 -152.5 42t-133.5 42q-50 0 -58 -80h-137z" />
<glyph unicode="&#xd2;" horiz-adv-x="1650" d="M143 618q0 167 59 313t161.5 250t248 164t312.5 60q189 0 338 -81.5t233 -229t84 -336.5q0 -223 -100 -403t-278.5 -282t-401.5 -102q-189 0 -338.5 81.5t-233.5 229t-84 336.5zM352 637q0 -212 126 -346.5t337 -134.5q164 0 291.5 78t195.5 210t68 295q0 212 -126 347 t-337 135q-164 0 -291.5 -78t-195.5 -210.5t-68 -295.5zM571 1749h222l251 -250h-221z" />
<glyph unicode="&#xd3;" horiz-adv-x="1650" d="M143 618q0 167 59 313t161.5 250t248 164t312.5 60q189 0 338 -81.5t233 -229t84 -336.5q0 -223 -100 -403t-278.5 -282t-401.5 -102q-189 0 -338.5 81.5t-233.5 229t-84 336.5zM352 637q0 -212 126 -346.5t337 -134.5q164 0 291.5 78t195.5 210t68 295q0 212 -126 347 t-337 135q-164 0 -291.5 -78t-195.5 -210.5t-68 -295.5zM774 1499l297 250h221l-297 -250h-221z" />
<glyph unicode="&#xd4;" horiz-adv-x="1650" d="M143 618q0 167 59 313t161.5 250t248 164t312.5 60q189 0 338 -81.5t233 -229t84 -336.5q0 -223 -100 -403t-278.5 -282t-401.5 -102q-189 0 -338.5 81.5t-233.5 229t-84 336.5zM352 637q0 -212 126 -346.5t337 -134.5q164 0 291.5 78t195.5 210t68 295q0 212 -126 347 t-337 135q-164 0 -291.5 -78t-195.5 -210.5t-68 -295.5zM590 1499l250 250h186l205 -250h-193l-114 150l-142 -150h-192z" />
<glyph unicode="&#xd5;" horiz-adv-x="1650" d="M143 618q0 170 60.5 317.5t165 250t248.5 161t307 58.5q144 0 266.5 -48.5t207.5 -134t133 -205.5t48 -259q0 -170 -60.5 -317.5t-164.5 -250t-248 -161t-307 -58.5q-144 0 -266.5 48.5t-208 134t-133.5 205.5t-48 259zM352 637q0 -217 129 -349t334 -132q167 0 295 80.5 t194 212t66 290.5q0 217 -129 349.5t-334 132.5q-167 0 -295 -80.5t-194 -212.5t-66 -291zM594 1538q14 97 63 160t125 63q52 0 155 -42t138 -42q51 0 62 72h137q-46 -215 -199 -215q-49 0 -153 42t-134 42q-49 0 -57 -80h-137z" />
<glyph unicode="&#xd6;" horiz-adv-x="1650" d="M143 618q0 170 60.5 317.5t165 250t248.5 161t307 58.5q144 0 266.5 -48.5t207.5 -134t133 -205.5t48 -259q0 -170 -60.5 -317.5t-164.5 -250t-248 -161t-307 -58.5q-144 0 -266.5 48.5t-208 134t-133.5 205.5t-48 259zM352 637q0 -217 129 -349t334 -132q167 0 295 80.5 t194 212t66 290.5q0 217 -129 349.5t-334 132.5q-167 0 -295 -80.5t-194 -212.5t-66 -291zM651 1511l17 197h196l-16 -197h-197zM993 1511l17 197h196l-16 -197h-197z" />
<glyph unicode="&#xd7;" d="M236 434l253 254l-253 252l114 115l254 -252l250 250l115 -113l-252 -252l252 -252l-115 -114l-252 251l-252 -251z" />
<glyph unicode="&#xd8;" horiz-adv-x="1650" d="M141 -29l176 191q-174 180 -174 456q0 170 60.5 317.5t165 250t248.5 161t307 58.5q239 0 413 -131l125 137l103 -88l-131 -141q145 -175 145 -424q0 -170 -60.5 -317.5t-164.5 -250t-248 -161t-307 -58.5q-216 0 -377 105l-178 -193zM352 637q0 -192 105 -322l743 811 q-121 95 -293 95q-167 0 -295 -80.5t-194 -212.5t-66 -291zM557 225q110 -69 258 -69q167 0 295 80.5t194 212t66 290.5q0 168 -78 287z" />
<glyph unicode="&#xd9;" horiz-adv-x="1482" d="M170 530q0 26 4 80l70 766h196l-69 -796q-2 -20 -2 -56q0 -81 22.5 -146t58.5 -105.5t84.5 -67.5t96.5 -38t98 -11t101.5 11.5t108.5 42.5t102 77t78.5 122t41.5 171l70 796h196l-69 -788q-26 -292 -203 -454.5t-442 -162.5q-106 0 -201 34t-172.5 100t-123.5 176 t-46 249zM516 1749h221l252 -250h-221z" />
<glyph unicode="&#xda;" horiz-adv-x="1482" d="M170 530q0 26 4 80l70 766h196l-69 -796q-2 -20 -2 -56q0 -81 22.5 -146t58.5 -105.5t84.5 -67.5t96.5 -38t98 -11t101.5 11.5t108.5 42.5t102 77t78.5 122t41.5 171l70 796h196l-69 -788q-26 -292 -203 -454.5t-442 -162.5q-106 0 -201 34t-172.5 100t-123.5 176 t-46 249zM657 1499l297 250h222l-297 -250h-222z" />
<glyph unicode="&#xdb;" horiz-adv-x="1482" d="M170 530q0 26 4 80l70 766h196l-69 -796q-2 -20 -2 -56q0 -81 22.5 -146t58.5 -105.5t84.5 -67.5t96.5 -38t98 -11t101.5 11.5t108.5 42.5t102 77t78.5 122t41.5 171l70 796h196l-69 -788q-26 -292 -203 -454.5t-442 -162.5q-106 0 -201 34t-172.5 100t-123.5 176 t-46 249zM532 1499l250 250h187l205 -250h-193l-115 150l-141 -150h-193z" />
<glyph unicode="&#xdc;" horiz-adv-x="1482" d="M170 530q0 26 4 80l70 766h196l-69 -796q-2 -20 -2 -56q0 -81 22.5 -146t58.5 -105.5t84.5 -67.5t96.5 -38t98 -11t101.5 11.5t108.5 42.5t102 77t78.5 122t41.5 171l70 796h196l-69 -788q-26 -292 -203 -454.5t-442 -162.5q-106 0 -201 34t-172.5 100t-123.5 176 t-46 249zM569 1511l17 197h196l-16 -197h-197zM911 1511l17 197h196l-16 -197h-197z" />
<glyph unicode="&#xdd;" horiz-adv-x="1189" d="M119 1376h233l301 -553l396 553h233l-547 -723l-57 -653h-197l58 653zM483 1499l297 250h221l-292 -250h-226z" />
<glyph unicode="&#xde;" horiz-adv-x="1093" d="M131 0l121 1376h197l-23 -262h215q79 0 151.5 -22.5t133 -66t97 -117t36.5 -167.5q0 -197 -126.5 -325.5t-348.5 -128.5h-232l-24 -287h-197zM369 461h188q41 0 79 6.5t78 25t69 47t48 77t19 110.5q0 110 -73 161.5t-187 51.5h-180z" />
<glyph unicode="&#xdf;" horiz-adv-x="1124" d="M104 0l84 961q20 219 138 331.5t309 112.5q169 0 269 -91t100 -229q0 -216 -220 -292q110 -45 176 -134t66 -213q0 -213 -126.5 -338.5t-315.5 -125.5q-84 0 -164 18l16 172q66 -25 127 -25q121 0 194.5 81.5t73.5 205.5q0 75 -28 130.5t-77.5 87.5t-109 47.5 t-129.5 17.5l13 151q40 -4 69 -4q106 0 177 50.5t71 156.5q0 81 -55 126.5t-141 45.5q-62 0 -108.5 -27t-74 -73.5t-42 -97.5t-19.5 -111l-82 -934h-191z" />
<glyph unicode="&#xe0;" horiz-adv-x="1079" d="M100 383q0 120 60 240q79 162 228.5 243.5t338.5 81.5q113 0 260 -24l-84 -924h-166l8 94q-131 -112 -307 -112q-83 0 -149 33t-106.5 89.5t-61.5 127.5t-21 151zM291 365q0 -99 54.5 -159.5t152.5 -60.5q109 0 247 119l50 512q-75 10 -133 10q-106 0 -193 -62.5 t-132.5 -158t-45.5 -200.5zM426 1290h221l252 -250h-221z" />
<glyph unicode="&#xe1;" horiz-adv-x="1079" d="M100 383q0 120 60 240q79 162 228.5 243.5t338.5 81.5q113 0 260 -24l-84 -924h-166l8 94q-131 -112 -307 -112q-83 0 -149 33t-106.5 89.5t-61.5 127.5t-21 151zM291 365q0 -99 54.5 -159.5t152.5 -60.5q109 0 247 119l50 512q-75 10 -133 10q-106 0 -193 -62.5 t-132.5 -158t-45.5 -200.5zM485 1040l297 250h222l-297 -250h-222z" />
<glyph unicode="&#xe2;" horiz-adv-x="1079" d="M100 383q0 120 60 240q79 162 228.5 243.5t338.5 81.5q113 0 260 -24l-84 -924h-166l8 94q-131 -112 -307 -112q-83 0 -149 33t-106.5 89.5t-61.5 127.5t-21 151zM291 365q0 -99 54.5 -159.5t152.5 -60.5q109 0 247 119l50 512q-75 10 -133 10q-106 0 -193 -62.5 t-132.5 -158t-45.5 -200.5zM322 1040l249 250h187l205 -250h-193l-115 150l-141 -150h-192z" />
<glyph unicode="&#xe3;" horiz-adv-x="1079" d="M100 383q0 120 60 240q79 162 228.5 243.5t338.5 81.5q113 0 260 -24l-84 -924h-166l8 94q-131 -112 -307 -112q-83 0 -149 33t-106.5 89.5t-61.5 127.5t-21 151zM291 365q0 -99 54.5 -159.5t152.5 -60.5q109 0 247 119l50 512q-75 10 -133 10q-106 0 -193 -62.5 t-132.5 -158t-45.5 -200.5zM326 1059q12 89 59.5 156t128.5 67q52 0 153 -42t140 -42q53 0 61 72h138q-48 -215 -199 -215q-51 0 -152 42t-135 42q-47 0 -57 -80h-137z" />
<glyph unicode="&#xe4;" horiz-adv-x="1079" d="M100 383q0 120 60 240q79 162 228.5 243.5t338.5 81.5q113 0 260 -24l-84 -924h-166l8 94q-131 -112 -307 -112q-83 0 -149 33t-106.5 89.5t-61.5 127.5t-21 151zM291 365q0 -99 54.5 -159.5t152.5 -60.5q109 0 247 119l50 512q-75 10 -133 10q-106 0 -193 -62.5 t-132.5 -158t-45.5 -200.5zM365 1063l16 197h197l-17 -197h-196zM707 1063l16 197h197l-17 -197h-196z" />
<glyph unicode="&#xe5;" horiz-adv-x="1079" d="M100 383q0 120 60 240q79 162 228.5 243.5t338.5 81.5q113 0 260 -24l-84 -924h-166l8 94q-131 -112 -307 -112q-83 0 -149 33t-106.5 89.5t-61.5 127.5t-21 151zM291 365q0 -99 54.5 -159.5t152.5 -60.5q109 0 247 119l50 512q-75 10 -133 10q-106 0 -193 -62.5 t-132.5 -158t-45.5 -200.5zM516 1239q0 84 65.5 141.5t149.5 57.5t133 -57t49 -142q0 -87 -64.5 -143t-152.5 -56q-82 0 -131 58t-49 141zM614 1239q0 -42 25 -71t66 -29t75.5 29.5t34.5 70.5q0 43 -25 71.5t-67 28.5q-39 0 -74 -30.5t-35 -69.5z" />
<glyph unicode="&#xe6;" horiz-adv-x="1638" d="M100 383q0 72 21.5 147.5t71 151t120.5 134.5t178.5 95.5t235.5 36.5q89 0 229 -30l-6 -91q137 121 330 121q134 0 212.5 -76.5t78.5 -187.5q0 -43 -12.5 -86.5t-46 -91t-84.5 -83.5t-135.5 -59.5t-190.5 -23.5q-34 0 -87 7t-77 18q0 -100 58 -163t161 -63q201 0 391 123 l-14 -180q-75 -48 -182 -79.5t-203 -31.5q-207 0 -338 176q-96 -88 -181 -126.5t-192 -38.5q-150 0 -244 107t-94 294zM291 365q0 -98 54 -159t153 -61q61 0 133.5 39t134.5 107q-10 58 -10 123q0 140 47 358q-60 14 -141 14q-66 0 -131.5 -30t-119 -82.5t-87 -133.5 t-33.5 -175zM958 512q23 -7 68.5 -12.5t71.5 -5.5q138 0 207 49t69 119q0 56 -40.5 89t-100.5 33q-98 0 -177 -85.5t-98 -186.5z" />
<glyph unicode="&#xe7;" horiz-adv-x="980" d="M111 403q0 158 72.5 283.5t195 193.5t270.5 68q143 0 271 -76l-19 -196q-131 96 -272 96q-96 0 -171.5 -53.5t-114 -135.5t-38.5 -173q0 -126 64 -197.5t190 -71.5q79 0 162.5 28.5t142.5 78.5l-18 -191q-97 -57 -232 -75l-14 -54q42 -10 72 -46.5t30 -94.5 q0 -82 -68.5 -134t-172.5 -52q-38 0 -58 4l9 102q24 -14 57 -14q38 0 71 20.5t33 67.5q0 36 -27 58.5t-77 25.5l33 110q-184 6 -287.5 119.5t-103.5 308.5z" />
<glyph unicode="&#xe8;" horiz-adv-x="985" d="M96 373q0 150 67 281t190 212.5t274 81.5q123 0 207 -71.5t84 -192.5q0 -77 -39 -147q-110 -197 -430 -197q-100 0 -164 25q0 -101 59.5 -163.5t159.5 -62.5q202 0 391 123l-14 -180q-77 -50 -183.5 -80.5t-201.5 -30.5q-180 0 -290 110.5t-110 291.5zM305 512 q64 -18 139 -18q44 0 88 7.5t88.5 25t72.5 52.5t28 83q0 57 -41 89.5t-100 32.5q-97 0 -176.5 -85.5t-98.5 -186.5zM381 1290h221l252 -250h-221z" />
<glyph unicode="&#xe9;" horiz-adv-x="985" d="M96 373q0 150 67 281t190 212.5t274 81.5q123 0 207 -71.5t84 -192.5q0 -77 -39 -147q-110 -197 -430 -197q-100 0 -164 25q0 -101 59.5 -163.5t159.5 -62.5q202 0 391 123l-14 -180q-77 -50 -183.5 -80.5t-201.5 -30.5q-180 0 -290 110.5t-110 291.5zM305 512 q64 -18 139 -18q44 0 88 7.5t88.5 25t72.5 52.5t28 83q0 57 -41 89.5t-100 32.5q-97 0 -176.5 -85.5t-98.5 -186.5zM358 1040l297 250h222l-297 -250h-222z" />
<glyph unicode="&#xea;" horiz-adv-x="985" d="M96 373q0 150 67 281t190 212.5t274 81.5q123 0 207 -71.5t84 -192.5q0 -77 -39 -147q-110 -197 -430 -197q-100 0 -164 25q0 -101 59.5 -163.5t159.5 -62.5q202 0 391 123l-14 -180q-77 -50 -183.5 -80.5t-201.5 -30.5q-180 0 -290 110.5t-110 291.5zM303 1040l250 250 h186l205 -250h-192l-115 150l-141 -150h-193zM305 512q64 -18 139 -18q44 0 88 7.5t88.5 25t72.5 52.5t28 83q0 57 -41 89.5t-100 32.5q-97 0 -176.5 -85.5t-98.5 -186.5z" />
<glyph unicode="&#xeb;" horiz-adv-x="985" d="M96 373q0 76 20.5 155t64.5 154.5t105.5 134.5t150 95t190.5 36q134 0 212.5 -76.5t78.5 -187.5q0 -43 -12.5 -86.5t-46 -91t-84.5 -83.5t-135.5 -59.5t-190.5 -23.5q-34 0 -87 7t-77 18q0 -100 58 -163t161 -63q201 0 391 123l-14 -180q-75 -48 -182 -79.5t-203 -31.5 q-79 0 -149.5 25t-127 73t-90 126.5t-33.5 177.5zM305 512q23 -7 68 -12.5t71 -5.5q138 0 207.5 49t69.5 119q0 56 -40.5 89t-100.5 33q-98 0 -177 -85.5t-98 -186.5zM338 1063l16 197h197l-16 -197h-197zM680 1063l16 197h197l-16 -197h-197z" />
<glyph unicode="&#xec;" horiz-adv-x="466" d="M-76 1290h221l252 -250h-221zM104 0l84 928h183l-84 -928h-183z" />
<glyph unicode="&#xed;" horiz-adv-x="466" d="M104 0l84 928h183l-84 -928h-183zM180 1040l297 250h221l-297 -250h-221z" />
<glyph unicode="&#xee;" horiz-adv-x="466" d="M-25 1040l250 250h187l204 -250h-192l-115 150l-141 -150h-193zM104 0l84 928h183l-84 -928h-183z" />
<glyph unicode="&#xef;" horiz-adv-x="466" d="M20 1063l17 197h196l-16 -197h-197zM104 0l84 928h183l-84 -928h-183zM362 1063l17 197h196l-16 -197h-197z" />
<glyph unicode="&#xf0;" horiz-adv-x="1140" d="M100 412q0 129 59 247t167 193.5t237 75.5q151 0 219 -60q-23 87 -92 232l-211 -92l-41 116l197 86q-46 85 -96 166h202q2 -4 23.5 -40t32.5 -56l196 86l41 -117l-180 -78q176 -354 176 -622q0 -82 -19.5 -162t-61 -154.5t-101.5 -131t-148 -90.5t-192 -34 q-179 0 -293.5 126.5t-114.5 308.5zM289 434q0 -132 72 -210.5t176 -78.5q94 0 164.5 56t103.5 141.5t33 185.5q0 28 -7 76.5t-18 63.5q-34 48 -100 76t-121 28q-75 0 -135.5 -33.5t-95.5 -86t-53.5 -109t-18.5 -109.5z" />
<glyph unicode="&#xf1;" horiz-adv-x="1081" d="M104 0l82 928h174l-6 -84q70 48 136 76t149 28q151 0 246.5 -96.5t95.5 -255.5q0 -52 -4 -102l-45 -494h-182l45 504q2 12 2 39q0 229 -195 229q-117 0 -256 -104l-59 -668h-183zM268 1059q14 97 63.5 160t125.5 63q52 0 155 -42t138 -42q50 0 61 72h137 q-46 -215 -198 -215q-49 0 -153 42t-134 42q-49 0 -57 -80h-138z" />
<glyph unicode="&#xf2;" horiz-adv-x="1140" d="M100 408q0 113 38.5 212.5t107 172t167 114t212.5 41.5q199 0 313.5 -121t114.5 -321q0 -98 -35 -191q-60 -165 -187 -251.5t-303 -86.5q-196 0 -312 117.5t-116 313.5zM285 1290h221l252 -250h-221zM289 424q0 -128 66.5 -205.5t191.5 -77.5q144 0 230.5 100.5 t86.5 247.5q0 133 -65.5 214t-194.5 81q-98 0 -171 -51.5t-108.5 -132t-35.5 -176.5z" />
<glyph unicode="&#xf3;" horiz-adv-x="1140" d="M100 408q0 113 38.5 212.5t107 172t167 114t212.5 41.5q199 0 313.5 -121t114.5 -321q0 -98 -35 -191q-60 -165 -187 -251.5t-303 -86.5q-196 0 -312 117.5t-116 313.5zM289 424q0 -128 66.5 -205.5t191.5 -77.5q144 0 230.5 100.5t86.5 247.5q0 133 -65.5 214t-194.5 81 q-98 0 -171 -51.5t-108.5 -132t-35.5 -176.5zM446 1040l297 250h222l-297 -250h-222z" />
<glyph unicode="&#xf4;" horiz-adv-x="1140" d="M100 408q0 113 38.5 212.5t107 172t167 114t212.5 41.5q199 0 313.5 -121t114.5 -321q0 -98 -35 -191q-60 -165 -187 -251.5t-303 -86.5q-196 0 -312 117.5t-116 313.5zM289 424q0 -128 66.5 -205.5t191.5 -77.5q144 0 230.5 100.5t86.5 247.5q0 133 -65.5 214t-194.5 81 q-98 0 -171 -51.5t-108.5 -132t-35.5 -176.5zM328 1040l250 250h186l205 -250h-193l-114 150l-142 -150h-192z" />
<glyph unicode="&#xf5;" horiz-adv-x="1140" d="M100 408q0 113 38.5 212.5t107 172t167 114t212.5 41.5q199 0 313.5 -121t114.5 -321q0 -98 -35 -191q-60 -165 -187 -251.5t-303 -86.5q-196 0 -312 117.5t-116 313.5zM270 1059q12 89 60 156t129 67q52 0 153 -42t140 -42q53 0 61 72h137q-48 -215 -198 -215 q-51 0 -152 42t-135 42q-47 0 -57 -80h-138zM289 424q0 -128 66.5 -205.5t191.5 -77.5q144 0 230.5 100.5t86.5 247.5q0 133 -65.5 214t-194.5 81q-98 0 -171 -51.5t-108.5 -132t-35.5 -176.5z" />
<glyph unicode="&#xf6;" horiz-adv-x="1140" d="M100 408q0 113 38.5 212.5t107 172t167 114t212.5 41.5q199 0 313.5 -121t114.5 -321q0 -98 -35 -191q-60 -165 -187 -251.5t-303 -86.5q-196 0 -312 117.5t-116 313.5zM289 424q0 -128 66.5 -205.5t191.5 -77.5q144 0 230.5 100.5t86.5 247.5q0 133 -65.5 214t-194.5 81 q-98 0 -171 -51.5t-108.5 -132t-35.5 -176.5zM358 1063l17 197h196l-16 -197h-197zM700 1063l17 197h196l-16 -197h-197z" />
<glyph unicode="&#xf7;" d="M186 606v162h830v-162h-830zM504 266v197h196v-197h-196zM504 911v197h196v-197h-196z" />
<glyph unicode="&#xf8;" horiz-adv-x="1140" d="M100 408q0 106 35.5 202.5t100.5 172t166 120.5t223 45q129 0 231 -57l98 127l103 -76l-103 -133q99 -116 99 -303q0 -41 -7.5 -86.5t-25.5 -97.5t-45 -100.5t-69.5 -93.5t-95 -78t-125.5 -53t-157 -20q-109 0 -190 35l-111 -143l-102 76l104 137q-129 117 -129 326z M289 424q0 -122 57 -195l399 521q-58 34 -141 34q-80 0 -142.5 -33t-99 -86.5t-55 -115t-18.5 -125.5zM451 158q53 -17 96 -17q82 0 145.5 32.5t99.5 85t54 111.5t18 119q0 88 -33 162z" />
<glyph unicode="&#xf9;" horiz-adv-x="1056" d="M117 332q0 52 4 102l45 494h182l-45 -504q-2 -12 -2 -49q0 -112 46.5 -165.5t148.5 -53.5q132 0 256 120l59 652h182l-82 -928h-174l8 104q-143 -124 -296 -124q-150 0 -241 95.5t-91 256.5zM279 1290h221l252 -250h-222z" />
<glyph unicode="&#xfa;" horiz-adv-x="1056" d="M117 332q0 52 4 102l45 494h182l-45 -504q-2 -12 -2 -49q0 -112 46.5 -165.5t148.5 -53.5q132 0 256 120l59 652h182l-82 -928h-174l8 104q-143 -124 -296 -124q-150 0 -241 95.5t-91 256.5zM399 1040l297 250h222l-297 -250h-222z" />
<glyph unicode="&#xfb;" horiz-adv-x="1056" d="M117 332q0 52 4 102l45 494h182l-45 -504q-2 -12 -2 -49q0 -112 46.5 -165.5t148.5 -53.5q132 0 256 120l59 652h182l-82 -928h-174l8 104q-143 -124 -296 -124q-150 0 -241 95.5t-91 256.5zM279 1040l249 250h187l205 -250h-193l-115 150l-141 -150h-192z" />
<glyph unicode="&#xfc;" horiz-adv-x="1056" d="M117 332q0 52 4 102l45 494h182l-45 -504q-2 -12 -2 -49q0 -112 46.5 -165.5t148.5 -53.5q132 0 256 120l59 652h182l-82 -928h-174l8 104q-143 -124 -296 -124q-150 0 -241 95.5t-91 256.5zM326 1063l16 197h197l-17 -197h-196zM668 1063l16 197h197l-17 -197h-196z" />
<glyph unicode="&#xfd;" horiz-adv-x="956" d="M-100 -459l14 170q34 -12 76 -12q68 0 115 29t92 104l157 262l-307 834h189l233 -633l356 633h187l-652 -1147q-77 -137 -162 -193.5t-196 -56.5q-57 0 -102 10zM385 1040l297 250h221l-297 -250h-221z" />
<glyph unicode="&#xfe;" horiz-adv-x="1138" d="M63 -444l158 1820h182l-47 -536q124 108 293 108q184 0 287.5 -123t103.5 -309q0 -69 -16.5 -140.5t-55 -144t-93.5 -129t-139 -92t-185 -35.5q-73 0 -143 26t-119 60l-43 -505h-183zM305 236q112 -97 246 -97q92 0 161 53.5t101.5 134.5t32.5 175q0 134 -59.5 209 t-172.5 75q-140 0 -272 -122z" />
<glyph unicode="&#xff;" horiz-adv-x="956" d="M-100 -459l14 170q34 -12 76 -12q68 0 115 29t92 104l157 262l-307 834h189l233 -633l356 633h187l-652 -1147q-77 -137 -162 -193.5t-196 -56.5q-57 0 -102 10zM268 1063l17 197h196l-16 -197h-197zM610 1063l17 197h196l-16 -197h-197z" />
<glyph unicode="&#x152;" horiz-adv-x="2297" d="M143 618q0 170 60.5 317.5t165 250t248.5 161t307 58.5q313 0 489 -215l17 186h862l-15 -172h-665l-35 -383h514l-14 -172h-514l-43 -477h655l-14 -172h-852l14 168q-206 -197 -524 -197q-144 0 -266.5 48.5t-208 134t-133.5 205.5t-48 259zM352 637q0 -217 129 -349 t334 -132q167 0 295 80.5t194 212t66 290.5q0 217 -129 349.5t-334 132.5q-167 0 -295 -80.5t-194 -212.5t-66 -291z" />
<glyph unicode="&#x153;" horiz-adv-x="1734" d="M100 408q0 106 35.5 202.5t100.5 172t166 120.5t223 45q120 0 213.5 -51t148.5 -143q154 194 389 194q134 0 212.5 -76.5t78.5 -187.5q0 -43 -12.5 -86.5t-46 -91t-84.5 -83.5t-135.5 -59.5t-190.5 -23.5q-34 0 -87 7t-77 18q0 -100 58 -163t161 -63q202 0 392 123 l-15 -180q-75 -48 -182 -79.5t-203 -31.5q-111 0 -197.5 44.5t-138.5 123.5q-141 -162 -381 -162q-106 0 -189.5 35t-134.5 95.5t-77.5 137t-26.5 163.5zM289 424q0 -139 71.5 -211t186.5 -72q82 0 145.5 32.5t99.5 85t54 111.5t18 119q0 139 -67.5 217t-192.5 78 q-80 0 -142.5 -33t-99 -86.5t-55 -115t-18.5 -125.5zM1055 512q23 -7 68 -12.5t71 -5.5q138 0 207 49t69 119q0 56 -40.5 89t-100.5 33q-98 0 -176.5 -85.5t-97.5 -186.5z" />
<glyph unicode="&#x178;" horiz-adv-x="1189" d="M119 1376h233l301 -553l396 553h233l-547 -723l-57 -653h-197l58 653zM430 1511l16 197h197l-16 -197h-197zM772 1511l16 197h197l-16 -197h-197z" />
<glyph unicode="&#x2c6;" horiz-adv-x="1024" d="M190 1040l250 250h187l207 -250h-193l-115 150l-141 -150h-195z" />
<glyph unicode="&#x2dc;" horiz-adv-x="1024" d="M172 1059q14 97 63 160t125 63q52 0 155 -42t138 -42q51 0 62 72h137q-46 -215 -199 -215q-49 0 -152.5 42t-133.5 42q-50 0 -58 -80h-137z" />
<glyph unicode="&#x2000;" horiz-adv-x="933" />
<glyph unicode="&#x2001;" horiz-adv-x="1866" />
<glyph unicode="&#x2002;" horiz-adv-x="933" />
<glyph unicode="&#x2003;" horiz-adv-x="1866" />
<glyph unicode="&#x2004;" horiz-adv-x="622" />
<glyph unicode="&#x2005;" horiz-adv-x="466" />
<glyph unicode="&#x2006;" horiz-adv-x="311" />
<glyph unicode="&#x2007;" horiz-adv-x="311" />
<glyph unicode="&#x2008;" horiz-adv-x="233" />
<glyph unicode="&#x2009;" horiz-adv-x="373" />
<glyph unicode="&#x200a;" horiz-adv-x="103" />
<glyph unicode="&#x2010;" horiz-adv-x="868" d="M111 422l16 182h674l-17 -182h-673z" />
<glyph unicode="&#x2011;" horiz-adv-x="868" d="M111 422l16 182h674l-17 -182h-673z" />
<glyph unicode="&#x2012;" horiz-adv-x="868" d="M111 422l16 182h674l-17 -182h-673z" />
<glyph unicode="&#x2013;" horiz-adv-x="1003" d="M80 442l12 162h844l-12 -162h-844z" />
<glyph unicode="&#x2014;" horiz-adv-x="1851" d="M92 442l12 162h1688l-12 -162h-1688z" />
<glyph unicode="&#x2018;" horiz-adv-x="417" d="M156 911l18 211q12 131 115.5 207t251.5 76q13 0 37 -4q-62 -22 -99.5 -45t-59.5 -56.5t-31 -70.5t-15 -99l-21 -219h-196z" />
<glyph unicode="&#x2019;" horiz-adv-x="417" d="M8 887q118 42 156 96t49 174l20 219h197l-18 -211q-12 -131 -115.5 -206.5t-251.5 -75.5q-13 0 -37 4z" />
<glyph unicode="&#x201a;" horiz-adv-x="417" d="M-115 -293q118 42 156 96t49 174l21 220h196l-18 -211q-12 -131 -115.5 -207t-251.5 -76q-13 0 -37 4z" />
<glyph unicode="&#x201c;" horiz-adv-x="776" d="M147 911l17 185q12 131 114.5 206.5t249.5 75.5q15 0 39 -4q-118 -42 -156 -96t-49 -174l-18 -193h-197zM506 911l18 211q12 131 115.5 207t251.5 76q13 0 37 -4q-62 -22 -99.5 -45t-59.5 -56.5t-31 -70.5t-15 -99l-21 -219h-196z" />
<glyph unicode="&#x201d;" horiz-adv-x="776" d="M-8 887q118 42 156 96t49 174l20 219h197l-19 -211q-12 -131 -115 -206.5t-251 -75.5q-13 0 -37 4zM352 913q62 22 99.5 45t59.5 56.5t31 70.5t15 99l18 192h197l-16 -184q-12 -131 -115 -207t-250 -76q-15 0 -39 4z" />
<glyph unicode="&#x201e;" horiz-adv-x="776" d="M-131 -293q118 42 156 96t49 174l20 220h197l-19 -211q-12 -131 -115.5 -207t-250.5 -76q-13 0 -37 4zM229 -266q118 42 156 96t49 174l19 193h196l-16 -185q-12 -131 -115 -206.5t-250 -75.5q-15 0 -39 4z" />
<glyph unicode="&#x2022;" horiz-adv-x="1024" d="M303 618q0 101 72.5 173.5t173.5 72.5t173.5 -72.5t72.5 -173.5t-72.5 -173t-173.5 -72t-173.5 72t-72.5 173z" />
<glyph unicode="&#x2026;" horiz-adv-x="1529" d="M113 0l20 227h217l-20 -227h-217zM625 0l20 227h217l-20 -227h-217zM1137 0l20 227h217l-20 -227h-217z" />
<glyph unicode="&#x202f;" horiz-adv-x="373" />
<glyph unicode="&#x2039;" horiz-adv-x="593" d="M41 463l338 391h215l-338 -391l268 -391h-215z" />
<glyph unicode="&#x203a;" horiz-adv-x="593" d="M0 72l338 391l-268 391h215l268 -391l-338 -391h-215z" />
<glyph unicode="&#x205f;" horiz-adv-x="466" />
<glyph unicode="&#x20ac;" d="M-23 483l52 154h133v31q0 26 4 84h-170l51 153h152q31 103 86.5 191.5t131 158.5t176 110t212.5 40q226 0 414 -123l-78 -182q-141 119 -314 119q-163 0 -269.5 -85.5t-151.5 -228.5h587l-51 -153h-569q-4 -29 -4 -86v-29h544l-51 -154h-477q11 -64 37.5 -119t70 -101.5 t112 -73.5t153.5 -27q204 0 368 129l-20 -211q-160 -105 -365 -105q-121 0 -220 39.5t-167 110.5t-112 160.5t-64 197.5h-201z" />
<glyph unicode="&#x2122;" horiz-adv-x="835" d="M117 1290v86h307v-86h-109v-289h-90v289h-108zM467 1001v375h76l114 -135l117 135h76v-375h-92v218l-99 -117l-102 117v-218h-90z" />
<glyph unicode="&#x25fc;" horiz-adv-x="931" d="M0 0v932h932v-932h-932z" />
</font>
</defs>
</svg>
