<?xml version="1.0" standalone="no"?>
<!DOCTYPE svg PUBLIC "-//W3C//DTD SVG 1.1//EN" "http://www.w3.org/Graphics/SVG/1.1/DTD/svg11.dtd" >
<svg xmlns="http://www.w3.org/2000/svg">
<metadata></metadata>
<defs>
<font id="johnston_itc_stdmedium" horiz-adv-x="1155" >
<font-face units-per-em="2048" ascent="1638" descent="-410" />
<missing-glyph horiz-adv-x="417" />
<glyph unicode="&#xfb01;" horiz-adv-x="1257" d="M51 766v162h189v106q0 74 17.5 136.5t55 117t107.5 86t166 31.5q106 0 209 -33v-182q-33 15 -91 29t-102 14q-86 0 -129 -47t-43 -152v-106h301v-162h-301v-766h-190v766h-189zM868 1208l154 154l154 -154l-154 -153zM926 0v928h190v-928h-190z" />
<glyph unicode="&#xfb02;" horiz-adv-x="1488" d="M51 766v162h189v106q0 74 17.5 136.5t55 117t107.5 86t166 31.5q106 0 209 -33v-182q-33 15 -91 29t-102 14q-86 0 -129 -47t-43 -152v-106h301v-162h-301v-766h-190v766h-189zM932 324v1052h190v-1059q0 -170 138 -170q86 0 170 41v-168q-90 -36 -191 -36 q-164 0 -235.5 87t-71.5 253z" />
<glyph horiz-adv-x="0" />
<glyph horiz-adv-x="682" />
<glyph unicode=" "  horiz-adv-x="417" />
<glyph unicode="&#x09;" horiz-adv-x="417" />
<glyph unicode="&#xa0;" horiz-adv-x="417" />
<glyph unicode="!" horiz-adv-x="561" d="M127 109l154 153l153 -153l-153 -154zM172 1096v280h217v-280l-59 -744h-99z" />
<glyph unicode="&#x22;" horiz-adv-x="811" d="M123 1159v217h196v-217l-53 -303h-86zM489 1159v217h199v-217l-55 -303h-86z" />
<glyph unicode="#" horiz-adv-x="1372" d="M45 367l31 153h217l69 334h-219l31 154h221l94 448h177l-95 -448h363l94 448h176l-94 -448h217l-31 -154h-219l-69 -334h221l-31 -153h-223l-94 -447h-176l94 447h-363l-94 -447h-176l94 447h-215zM469 520h362l70 334h-362z" />
<glyph unicode="$" d="M113 211l159 125q14 -26 34.5 -51.5t50.5 -53t71.5 -48.5t87.5 -29v514q-44 21 -71.5 35t-67.5 37t-65 43.5t-53.5 51t-44.5 62t-27 72.5t-11 88q0 79 36 151.5t115.5 127.5t188.5 67v180h137v-182q174 -20 301 -162l-127 -121q-74 86 -174 107v-398q60 -29 100.5 -52 t91 -61t80.5 -78.5t51 -99t21 -126.5q0 -150 -98.5 -277t-245.5 -156v-172h-137v168q-75 6 -137.5 26.5t-110.5 54t-84 70.5t-71 87zM365 1063q0 -53 38.5 -91.5t112.5 -76.5v334q-67 -12 -109 -58t-42 -108zM653 168q67 28 111.5 88.5t44.5 138.5q0 122 -156 207v-434z" />
<glyph unicode="%" horiz-adv-x="1552" d="M109 1079q0 132 93.5 225t225.5 93t224.5 -93t92.5 -225t-92.5 -225.5t-224.5 -93.5t-225.5 93.5t-93.5 225.5zM223 0l903 1376h199l-903 -1376h-199zM264 1079q0 -67 48 -115.5t116 -48.5q67 0 114.5 48t47.5 116q0 67 -47 114.5t-115 47.5t-116 -47.5t-48 -114.5z M807 301q0 132 93.5 224.5t225.5 92.5t225 -92.5t93 -224.5t-93 -225.5t-225 -93.5t-225.5 93.5t-93.5 225.5zM963 301q0 -68 48 -116t115 -48t114.5 48t47.5 116q0 67 -47 114.5t-115 47.5t-115.5 -47.5t-47.5 -114.5z" />
<glyph unicode="&#x26;" horiz-adv-x="1402" d="M92 371q0 108 63 193t207 169q-89 76 -135.5 159t-46.5 157q0 130 100.5 228.5t266.5 98.5q93 0 167 -30.5t116 -79t63.5 -101.5t21.5 -104q0 -110 -67.5 -189.5t-212.5 -160.5l289 -279q93 128 149 273h197q-30 -77 -94 -190t-132 -202l326 -313h-250l-186 178 q-94 -107 -206.5 -154t-215.5 -47q-78 0 -153 29t-134.5 79t-96 125t-36.5 161zM283 375q0 -94 73 -159.5t191 -65.5q70 0 141.5 35.5t128.5 105.5l-342 327q-103 -53 -147.5 -112.5t-44.5 -130.5zM362 1057q0 -50 40.5 -106t121.5 -134q110 58 158.5 111.5t48.5 122.5 q0 68 -53 117t-135 49q-88 0 -134.5 -50t-46.5 -110z" />
<glyph unicode="'" horiz-adv-x="452" d="M127 1159v217h199v-217l-56 -303h-86z" />
<glyph unicode="(" horiz-adv-x="696" d="M172 676q0 505 252 979h207q-142 -251 -205.5 -474t-63.5 -505t63.5 -505t205.5 -474h-207q-252 474 -252 979z" />
<glyph unicode=")" horiz-adv-x="696" d="M66 -303q142 250 205 473t63 506t-63 506t-205 473h206q252 -474 252 -979t-252 -979h-206z" />
<glyph unicode="*" horiz-adv-x="851" d="M82 911l250 103l-250 100l84 146l215 -166l-39 282h168l-39 -282l215 166l84 -146l-250 -102l250 -101l-84 -145l-215 166l39 -283h-168l39 283l-215 -166z" />
<glyph unicode="+" d="M160 606v162h336v356h161v-356h338v-162h-336v-356h-161v356h-338z" />
<glyph unicode="," horiz-adv-x="471" d="M-39 -197q60 22 95.5 45t55 56.5t25.5 71t6 98.5v157h197v-149q0 -131 -96.5 -207t-243.5 -76q-15 0 -39 4z" />
<glyph unicode="-" horiz-adv-x="886" d="M106 422v182h674v-182h-674z" />
<glyph unicode="." horiz-adv-x="471" d="M127 0v227h217v-227h-217z" />
<glyph unicode="/" horiz-adv-x="825" d="M66 -264l503 1902h191l-504 -1902h-190z" />
<glyph unicode="0" d="M123 690q0 129 28 252.5t81.5 228.5t143.5 169.5t202 64.5q91 0 167 -42.5t128 -113.5t88.5 -164t53.5 -193t17 -202t-17 -202t-53.5 -193t-88.5 -164t-128 -113.5t-167 -42.5q-112 0 -202 64.5t-143.5 169.5t-81.5 228.5t-28 252.5zM332 690q0 -241 69.5 -383.5 t176.5 -142.5t176 142.5t69 383.5t-69 384t-176 143t-176.5 -143t-69.5 -384z" />
<glyph unicode="1" d="M475 0v1286l205 139v-1425h-205z" />
<glyph unicode="2" d="M143 0l381 643q9 16 32.5 55t31 52.5t25.5 44.5t24 44t18.5 37.5t16.5 38.5t10 33.5t8 35.5t2 32q0 94 -55 147.5t-137 53.5q-184 0 -346 -250v268q157 170 360 170q167 0 277 -109t110 -270q0 -95 -29.5 -170.5t-117.5 -220.5l-273 -453h467v-182h-805z" />
<glyph unicode="3" d="M102 190l136 164q38 -72 111 -129t169 -57q32 0 64 7.5t66.5 27t61 48.5t43.5 77t17 108q0 106 -78 176t-223 70q-63 0 -145 -10l313 522h-483v182h815l-332 -549q56 -2 114.5 -28t110 -73t84.5 -123t33 -167q0 -198 -136 -329.5t-331 -131.5q-224 0 -410 215z" />
<glyph unicode="4" d="M0 365l903 1040v-877h232v-163h-232v-365h-205v365h-698zM344 528h354v408z" />
<glyph unicode="5" d="M96 184l135 164q37 -70 112 -125t171 -55q43 0 85.5 16.5t79 48t59 84.5t22.5 119q0 41 -18 83.5t-52.5 80.5t-94 62t-134.5 24q-131 0 -225 -35l57 725h682l-107 -182h-413l-27 -348q86 8 119 8q111 0 207 -50.5t155.5 -147.5t59.5 -220q0 -131 -67 -238.5t-172 -165 t-222 -57.5q-229 0 -412 209z" />
<glyph unicode="6" d="M137 506q0 212 118.5 438t340.5 432h274q-167 -151 -295 -310t-178 -300q109 68 242 68q173 0 289 -125t116 -306q0 -74 -29.5 -148.5t-84.5 -138.5t-145.5 -104.5t-200.5 -40.5q-92 0 -173.5 37t-142.5 104t-96 169t-35 225zM344 473q0 -138 70.5 -225.5t179.5 -87.5 q110 0 176 75t66 168q0 115 -69 181.5t-177 66.5q-68 0 -133.5 -28t-104.5 -64q-8 -54 -8 -86z" />
<glyph unicode="7" d="M166 0l582 1194h-580v182h885l-672 -1376h-215z" />
<glyph unicode="8" d="M137 381q0 124 66.5 214.5t199.5 170.5q-182 134 -182 297q0 143 104.5 242.5t258.5 99.5q91 0 163.5 -32.5t114 -84t63 -109.5t21.5 -116q0 -163 -192 -295q134 -81 199 -170.5t65 -216.5q0 -74 -31.5 -146t-86.5 -129.5t-138 -93t-178 -35.5q-122 0 -223.5 49.5 t-162.5 142.5t-61 212zM346 381q0 -86 65 -152.5t173 -66.5q34 0 71 12.5t72.5 38t58.5 72.5t23 108q0 82 -66 155t-170 122q-115 -64 -171 -130.5t-56 -158.5zM420 1063q0 -65 37 -110t125 -93q81 31 123.5 86.5t42.5 104.5q0 84 -46 127t-118 43q-70 0 -117 -43.5 t-47 -114.5z" />
<glyph unicode="9" d="M117 973q0 74 29.5 148.5t85 138.5t146 104.5t200.5 40.5q92 0 173.5 -37t142 -104t95.5 -169t35 -225q0 -212 -118.5 -438t-340.5 -432h-274q167 151 295 310t178 300q-108 -67 -242 -67q-174 0 -289.5 124.5t-115.5 305.5zM326 973q0 -115 68.5 -181.5t176.5 -66.5 q68 0 133.5 28t104.5 64q8 54 8 86q0 138 -70.5 226t-179.5 88q-110 0 -175.5 -75.5t-65.5 -168.5z" />
<glyph unicode=":" horiz-adv-x="471" d="M127 0v227h217v-227h-217zM127 557v227h217v-227h-217z" />
<glyph unicode=";" horiz-adv-x="471" d="M-39 -197q60 22 95.5 45t55 56.5t25.5 71t6 98.5v157h197v-149q0 -131 -96.5 -207t-243.5 -76q-15 0 -39 4zM137 557v227h207v-227h-207z" />
<glyph unicode="&#x3c;" d="M160 606v162l835 356v-161l-645 -275l645 -276v-162z" />
<glyph unicode="=" d="M160 457v161h835v-161h-835zM160 756v162h835v-162h-835z" />
<glyph unicode="&#x3e;" d="M160 250v162l645 274l-645 277v161l835 -356v-162z" />
<glyph unicode="?" horiz-adv-x="862" d="M25 1159q120 246 389 246q92 0 165.5 -29t118 -77t67.5 -107t23 -123q0 -56 -12.5 -101.5t-42 -87.5t-55.5 -70t-74 -73q-131 -124 -147 -143q-25 -28 -25 -53q0 -19 11 -33.5t55 -58.5l-127 -127q-77 68 -105 118.5t-28 110.5q0 67 40.5 120t153.5 156q91 82 124.5 129 t33.5 113q0 67 -50 109.5t-126 42.5q-83 0 -139 -36.5t-97 -125.5zM217 109l154 153l153 -153l-153 -154z" />
<glyph unicode="@" horiz-adv-x="1984" d="M123 668q0 130 41.5 256.5t119.5 233t183 188.5t240.5 128t283.5 46q173 0 333.5 -66.5t278.5 -180t188.5 -272t70.5 -333.5q0 -218 -113 -362t-291 -144q-198 0 -278 157q-66 -61 -142.5 -98t-142.5 -37q-132 0 -220.5 80t-88.5 197q0 44 13 85.5t49.5 87.5t94.5 79 q66 37 160.5 51t233.5 14v29q0 52 -18 90.5t-48 58t-62 28.5t-67 9q-149 0 -303 -102l47 190q156 72 303 72q154 0 242 -92t88 -264v-308q0 -95 43.5 -142.5t103.5 -47.5q94 0 163 95.5t69 273.5q0 144 -56 275t-150.5 225t-225.5 150t-275 56q-161 0 -297 -64t-223 -166.5 t-135.5 -226.5t-48.5 -249q0 -120 29 -229.5t92 -206.5t155 -168.5t226 -112.5t296 -41q111 0 236.5 27.5t206.5 64.5l59 -133q-108 -46 -247.5 -75.5t-254.5 -29.5q-177 0 -330.5 44.5t-268.5 125.5t-197 192.5t-124 249.5t-42 292zM778 471q0 -51 38 -89t112 -38 q99 0 215 96q-6 46 -6 95v94q-206 0 -291 -47q-68 -39 -68 -111z" />
<glyph unicode="A" horiz-adv-x="1392" d="M33 0l571 1391h184l572 -1391h-211l-139 348h-627l-139 -348h-211zM455 526h483l-242 637z" />
<glyph unicode="B" horiz-adv-x="1214" d="M158 0v1376h391q108 0 191 -30.5t130.5 -81.5t71 -110.5t23.5 -123.5q0 -84 -45 -152.5t-129 -109.5q149 -38 231 -139t82 -221q0 -100 -40.5 -180.5t-106.5 -129t-144 -73.5t-160 -25h-495zM354 176h264q125 0 201 61t76 171q0 229 -307 229h-234v-461zM354 813h154 q258 0 258 205q0 73 -60 128.5t-169 55.5h-183v-389z" />
<glyph unicode="C" horiz-adv-x="1417" d="M117 688q0 155 58 289.5t157 227.5t233 146.5t283 53.5q243 0 483 -139v-213q-117 76 -245 122t-238 46q-219 0 -370.5 -153.5t-151.5 -379.5t151.5 -379t370.5 -153q252 0 481 163v-213q-224 -135 -481 -135q-149 0 -283 53.5t-233 146.5t-157 227.5t-58 289.5z" />
<glyph unicode="D" horiz-adv-x="1454" d="M158 0v1376h436q119 0 230.5 -31.5t204 -92.5t162 -143.5t108 -191t38.5 -229.5q0 -197 -98 -355.5t-265 -245.5t-370 -87h-446zM354 178h230q130 0 234.5 40.5t171.5 110.5t102.5 161.5t35.5 197.5q0 146 -72.5 263.5t-193.5 182t-264 64.5h-244v-1020z" />
<glyph unicode="E" horiz-adv-x="1118" d="M158 0v1376h870v-178h-674v-371h527v-178h-527v-471h674v-178h-870z" />
<glyph unicode="F" horiz-adv-x="1060" d="M158 0v1376h843v-178h-647v-371h500v-178h-500v-649h-196z" />
<glyph unicode="G" horiz-adv-x="1540" d="M117 688q0 198 96.5 362.5t266.5 259.5t376 95q115 0 250.5 -37t263.5 -106v-213q-118 86 -252.5 129t-265.5 43q-144 0 -264.5 -69.5t-191 -192t-70.5 -271.5q0 -148 72.5 -271t195 -192t266.5 -69q164 0 334 77v328h-324v178h521v-606q-113 -68 -261 -115t-270 -47 q-149 0 -285 53.5t-237 146.5t-161 227.5t-60 289.5z" />
<glyph unicode="H" horiz-adv-x="1495" d="M158 0v1376h196v-549h787v549h196v-1376h-196v649h-787v-649h-196z" />
<glyph unicode="I" horiz-adv-x="512" d="M158 0v1376h196v-1376h-196z" />
<glyph unicode="J" horiz-adv-x="917" d="M49 246l193 96q6 -78 55.5 -131t120.5 -53q80 0 126 47.5t46 144.5v1026h196v-1026q0 -172 -104 -275.5t-270 -103.5q-80 0 -146 27t-108 72t-67.5 87.5t-41.5 88.5z" />
<glyph unicode="K" horiz-adv-x="1290" d="M158 0v1376h196v-532l564 532h266l-664 -598l746 -778h-269l-643 698v-698h-196z" />
<glyph unicode="L" horiz-adv-x="1056" d="M158 0v1376h196v-1198h647v-178h-843z" />
<glyph unicode="M" horiz-adv-x="1691" d="M158 0v1376h196l492 -637l491 637h197v-1376h-197v1085l-491 -622l-492 622v-1085h-196z" />
<glyph unicode="N" horiz-adv-x="1568" d="M158 0v1376h196l860 -1083v1083h197v-1376h-197l-860 1083v-1083h-196z" />
<glyph unicode="O" horiz-adv-x="1695" d="M117 688q0 155 58 289.5t157 227.5t233 146.5t283 53.5t283 -53.5t233 -146.5t157 -227.5t58 -289.5t-58 -289.5t-157 -227.5t-233 -146.5t-283 -53.5t-283 53.5t-233 146.5t-157 227.5t-58 289.5zM326 688q0 -226 151.5 -379t370.5 -153t370.5 153t151.5 379 t-151.5 379.5t-370.5 153.5t-370.5 -153.5t-151.5 -379.5z" />
<glyph unicode="P" horiz-adv-x="1103" d="M158 0v1376h415q101 0 183 -24t136 -63.5t90.5 -93t52.5 -110.5t16 -118q0 -103 -39.5 -185t-106 -131.5t-148 -75.5t-171.5 -26h-232v-549h-196zM354 727h213q124 0 197.5 61.5t73.5 174.5q0 48 -14 87.5t-44.5 74t-87 54t-133.5 19.5h-205v-471z" />
<glyph unicode="Q" horiz-adv-x="1697" d="M117 688q0 155 58 289.5t157 227.5t233 146.5t283 53.5t283 -53.5t233 -146.5t157 -227.5t58 -289.5q0 -255 -149 -444l151 -152l-133 -133l-154 154q-194 -142 -446 -142q-149 0 -283 53.5t-233 146.5t-157 227.5t-58 289.5zM326 688q0 -226 151.5 -379t370.5 -153 q167 0 305 98l-143 143l135 135l139 -141q86 136 86 297q0 226 -151.5 379.5t-370.5 153.5t-370.5 -153.5t-151.5 -379.5z" />
<glyph unicode="R" horiz-adv-x="1257" d="M158 0v1376h393q91 0 166.5 -24t124.5 -63t82.5 -90t48 -102t14.5 -102q0 -124 -67 -212t-177 -132l459 -651h-237l-430 614h-181v-614h-196zM354 793h172q128 0 190 58.5t62 149.5t-67.5 144t-186.5 53h-170v-405z" />
<glyph unicode="S" horiz-adv-x="1157" d="M98 322l176 110q19 -55 43.5 -98.5t63 -86t97 -66t132.5 -23.5q95 0 166.5 61t71.5 154q0 60 -36.5 107.5t-94.5 80t-128.5 62t-141 64.5t-128.5 77t-94.5 108.5t-36.5 151.5q0 168 117 274.5t293 106.5q132 0 243 -59t187 -177l-154 -122q-45 84 -116.5 128t-155.5 44 q-56 0 -98 -17t-63.5 -44.5t-31.5 -56t-10 -57.5q0 -39 22.5 -72t61 -58t88 -48.5t104 -47.5t109 -50.5t104 -62t88 -78t61 -102t22.5 -130.5q0 -120 -61.5 -217.5t-160.5 -150t-214 -52.5q-105 0 -188.5 24t-145.5 71t-107 108t-84 144z" />
<glyph unicode="T" horiz-adv-x="1183" d="M57 1198v178h1069v-178h-436v-1198h-196v1198h-437z" />
<glyph unicode="U" horiz-adv-x="1523" d="M147 588v788h197v-796q0 -94 27.5 -169.5t71 -122t100.5 -77.5t111 -43t108 -12t108 12t111 43t100.5 77.5t71 122t27.5 169.5v796h196v-788q0 -123 -36 -226.5t-96 -174.5t-139.5 -120.5t-166 -72.5t-176.5 -23t-176.5 23t-166.5 72.5t-140 120.5t-96 174.5t-36 226.5z " />
<glyph unicode="V" horiz-adv-x="1370" d="M35 1376h213l440 -1130l438 1130h209l-561 -1390h-178z" />
<glyph unicode="W" horiz-adv-x="2054" d="M55 1376h207l346 -1122l330 1122h178l330 -1122l346 1122h207l-451 -1390h-205l-315 1050l-317 -1050h-205z" />
<glyph unicode="X" horiz-adv-x="1396" d="M66 0l514 723l-465 653h237l346 -508l346 508h238l-465 -653l514 -723h-239l-394 573l-393 -573h-239z" />
<glyph unicode="Y" horiz-adv-x="1232" d="M35 1376h233l348 -569l349 569h233l-483 -727v-649h-197v649z" />
<glyph unicode="Z" horiz-adv-x="1329" d="M45 0l852 1198h-784v178h1130l-850 -1198h846v-178h-1194z" />
<glyph unicode="[" horiz-adv-x="563" d="M143 -303v1958h387v-154h-202v-1651h202v-153h-387z" />
<glyph unicode="\" horiz-adv-x="784" d="M45 1638h191l503 -1902h-190z" />
<glyph unicode="]" horiz-adv-x="563" d="M33 -150h203v1651h-203v154h387v-1958h-387v153z" />
<glyph unicode="^" d="M139 737l357 668h161l359 -668h-162l-276 516l-275 -516h-164z" />
<glyph unicode="_" horiz-adv-x="821" d="M-6 -215h833v-121h-833v121z" />
<glyph unicode="`" horiz-adv-x="1024" d="M127 1290h221l275 -250h-222z" />
<glyph unicode="a" horiz-adv-x="966" d="M82 256q0 69 36.5 136.5t121.5 115.5q66 37 160.5 51t232.5 14v29q0 52 -18 90t-48 58t-62 29t-67 9q-149 0 -303 -102l47 191q154 71 303 71q155 0 246.5 -92.5t91.5 -263.5v-592h-174v86q-73 -55 -131.5 -80.5t-126.5 -25.5q-132 0 -220.5 79.5t-88.5 196.5zM274 266 q0 -51 38 -87t112 -36q101 0 209 86v195q-206 0 -291 -47q-68 -39 -68 -111z" />
<glyph unicode="b" horiz-adv-x="1183" d="M154 0v1376h190v-506q123 78 266 78q88 0 172 -35t150.5 -96t107.5 -152.5t41 -197.5q0 -97 -30.5 -179.5t-79 -137.5t-111 -94t-125 -56.5t-121.5 -17.5q-152 0 -286 104v-86h-174zM344 258q115 -100 246 -100q51 0 101 18.5t93.5 54t70 97t26.5 139.5q0 129 -78 217 t-209 88q-142 0 -250 -86v-428z" />
<glyph unicode="c" horiz-adv-x="1001" d="M102 467q0 129 62.5 240t177.5 179t256 68q76 0 160.5 -22t148.5 -58v-208q-164 110 -303 110q-136 0 -218.5 -89.5t-82.5 -219.5q0 -80 28 -142t73.5 -97t97.5 -52.5t106 -17.5q91 0 171.5 32t127.5 74v-209q-57 -34 -141.5 -54.5t-167.5 -20.5q-96 0 -184 32t-158 91.5 t-112 153.5t-42 210z" />
<glyph unicode="d" horiz-adv-x="1183" d="M102 467q0 106 41 197.5t107.5 152.5t150.5 96t172 35q144 0 267 -78v506h190v-1376h-174v86q-134 -104 -287 -104q-59 0 -121.5 17.5t-125 56.5t-111 94t-79 137.5t-30.5 179.5zM303 467q0 -78 26.5 -139.5t70 -97t93.5 -54t101 -18.5q131 0 246 100v428 q-108 86 -250 86q-131 0 -209 -88t-78 -217z" />
<glyph unicode="e" horiz-adv-x="1099" d="M102 469q0 92 28 176t82 152.5t142.5 109.5t200.5 41q69 0 132 -18.5t120 -59t98 -101t65.5 -149.5t24.5 -198v-12h-692q7 -128 90.5 -195.5t208.5 -67.5q108 0 205.5 38.5t171.5 99.5v-189q-177 -121 -401 -121q-217 0 -346.5 135t-129.5 359zM303 569h481 q-6 92 -71.5 153.5t-167.5 61.5q-110 0 -169 -61.5t-73 -153.5z" />
<glyph unicode="f" horiz-adv-x="825" d="M51 766v162h189v106q0 74 17.5 136.5t55 117t107.5 86t166 31.5q106 0 209 -33v-182q-33 15 -91 29t-102 14q-86 0 -129 -47t-43 -152v-106h301v-162h-301v-766h-190v766h-189z" />
<glyph unicode="g" horiz-adv-x="1077" d="M20 -236q0 93 61.5 157.5t176.5 123.5q-117 43 -117 127q0 92 123 160q-147 96 -147 262q0 86 34 156.5t90.5 115t127 68.5t147.5 24q94 0 174 -30h342v-160h-180q68 -72 68 -174q0 -142 -107.5 -242t-273.5 -100q-73 0 -152 20q-51 -37 -51 -67q0 -11 3 -19t11.5 -15 t19.5 -12t31 -11.5t41 -11.5t55.5 -12.5t68.5 -15t85 -19t101 -23.5q264 -63 264 -273q0 -104 -68 -175t-178 -102.5t-254 -31.5q-107 0 -193.5 16.5t-142 43t-92.5 63.5t-52.5 76t-15.5 81zM203 -217q0 -23 14 -44.5t46.5 -43.5t99 -35.5t159.5 -13.5q167 0 239.5 41.5 t72.5 95.5q0 29 -17 52t-41.5 37.5t-68.5 29.5t-82 24t-98.5 24t-102.5 27q-112 -43 -166.5 -95t-54.5 -99zM303 598q0 -82 61 -131t158 -49q89 0 149 47.5t60 140.5q0 32 -13 62.5t-38.5 57.5t-70.5 43.5t-103 16.5q-88 0 -145.5 -51.5t-57.5 -136.5z" />
<glyph unicode="h" horiz-adv-x="1179" d="M154 0v1376h190v-524q141 92 287 92q47 0 94.5 -9.5t105.5 -39.5t101.5 -77.5t73.5 -132.5t30 -196v-489h-190v500q0 127 -64 196.5t-176 69.5q-129 0 -262 -98v-668h-190z" />
<glyph unicode="i" horiz-adv-x="471" d="M82 1208l154 154l153 -154l-153 -153zM139 0v928h191v-928h-191z" />
<glyph unicode="j" horiz-adv-x="475" d="M-66 -283q30 -12 70 -12q73 0 106 33t33 115v1075h191v-1108q0 -125 -71.5 -206t-215.5 -81q-63 0 -113 10v174zM86 1208l154 154l153 -154l-153 -153z" />
<glyph unicode="k" horiz-adv-x="1060" d="M154 0v1376h190v-798l373 350h258l-483 -418l544 -510h-258l-428 422h-6v-422h-190z" />
<glyph unicode="l" horiz-adv-x="694" d="M143 324v1052h191v-1059q0 -170 137 -170q84 0 164 39v-168q-84 -34 -174 -34h-10q-165 0 -236.5 87.5t-71.5 252.5z" />
<glyph unicode="m" horiz-adv-x="1806" d="M154 0v928h174v-88q49 31 80.5 47.5t101 36.5t143.5 20q82 0 155.5 -34.5t121.5 -100.5q196 135 373 135q72 0 136 -24t114.5 -71t80 -123.5t29.5 -172.5v-553h-190v504q0 133 -59 197.5t-161 64.5q-119 0 -260 -107q11 -61 11 -106v-553h-191v504q0 133 -58.5 197.5 t-160.5 64.5q-121 0 -250 -98v-668h-190z" />
<glyph unicode="n" horiz-adv-x="1179" d="M154 0v928h174v-86q150 102 303 102q47 0 94.5 -9.5t105.5 -39.5t101.5 -77.5t73.5 -132.5t30 -196v-489h-190v500q0 127 -64 196.5t-176 69.5q-129 0 -262 -98v-668h-190z" />
<glyph unicode="o" horiz-adv-x="1196" d="M102 463q0 204 141.5 344.5t354.5 140.5t354.5 -140.5t141.5 -344.5t-141.5 -345t-354.5 -141t-354.5 141t-141.5 345zM301 463q0 -136 84.5 -222.5t212.5 -86.5t212.5 86.5t84.5 222.5t-84.5 222.5t-212.5 86.5t-212.5 -86.5t-84.5 -222.5z" />
<glyph unicode="p" horiz-adv-x="1183" d="M154 -449v1377h174v-86q134 104 286 104q59 0 121.5 -17.5t125 -56.5t111 -94t79 -137.5t30.5 -179.5q0 -106 -41 -197.5t-107.5 -152.5t-150.5 -96t-172 -35q-144 0 -266 77v-506h-190zM344 242q108 -86 250 -86q131 0 209 88t78 217q0 78 -26.5 139.5t-70 97t-93.5 54 t-101 18.5q-131 0 -246 -100v-428z" />
<glyph unicode="q" horiz-adv-x="1183" d="M102 461q0 97 30.5 179.5t79 137.5t111 94t125 56.5t121.5 17.5q153 0 287 -104v86h174v-1377h-190v506q-122 -77 -267 -77q-88 0 -172 35t-150.5 96t-107.5 152.5t-41 197.5zM303 461q0 -129 78 -217t209 -88q142 0 250 86v428q-115 100 -246 100q-51 0 -101 -18.5 t-93.5 -54t-70 -97t-26.5 -139.5z" />
<glyph unicode="r" horiz-adv-x="788" d="M154 0v928h174v-94q55 51 111 80.5t134 29.5q77 0 175 -37v-196q-101 59 -193 59q-116 0 -211 -102v-668h-190z" />
<glyph unicode="s" horiz-adv-x="940" d="M90 666q0 119 94 200.5t271 81.5q139 0 305 -61v-189q-161 82 -307 82q-89 0 -130.5 -26.5t-41.5 -67.5q0 -35 30.5 -55.5t112.5 -46.5q170 -51 234.5 -77t103.5 -56q39 -28 61.5 -76.5t22.5 -95.5q0 -129 -99 -216.5t-282 -87.5q-101 0 -202.5 24.5t-158.5 51.5v195 q183 -99 369 -99q80 0 129 27.5t49 73.5q0 64 -108 96q-199 61 -274 92t-113 68q-66 63 -66 162z" />
<glyph unicode="t" horiz-adv-x="831" d="M59 766v162h189v282h190v-282h281v-162h-281v-463q0 -86 41 -121t119 -35q79 0 178 48v-168q-92 -43 -207 -43q-46 0 -87 7t-85.5 27t-76 52.5t-52 88.5t-20.5 130v477h-189z" />
<glyph unicode="u" horiz-adv-x="1179" d="M143 436v492h191v-502q0 -127 63.5 -196.5t175.5 -69.5q127 0 263 100v668h190v-928h-174v86q-43 -29 -78 -48t-97.5 -37.5t-127.5 -18.5q-47 0 -94.5 9.5t-106 39t-102 77t-73.5 132.5t-30 196z" />
<glyph unicode="v" horiz-adv-x="1060" d="M39 928h201l305 -721l305 721h201l-418 -928h-176z" />
<glyph unicode="w" horiz-adv-x="1587" d="M29 928h196l256 -676l242 676h141l242 -676l256 676h197l-375 -928h-168l-221 621l-224 -621h-168z" />
<glyph unicode="x" horiz-adv-x="1003" d="M41 0l342 498l-324 430h236l207 -307l207 307h235l-323 -430l342 -498h-222l-239 373l-240 -373h-221z" />
<glyph unicode="y" horiz-adv-x="1028" d="M-25 -289q34 -12 78 -12q68 0 113 29.5t82 103.5l143 283l-416 813h201l313 -631l306 631h200l-579 -1147q-69 -137 -147.5 -193.5t-188.5 -56.5q-60 0 -105 10v170z" />
<glyph unicode="z" horiz-adv-x="976" d="M59 0l510 758h-450v170h766l-510 -758h518v-170h-834z" />
<glyph unicode="{" horiz-adv-x="700" d="M57 627v98q103 32 150 86.5t47 140.5v387q0 53 2.5 82t12 72.5t34 67t64 48.5t106 35.5t156.5 10.5h16v-154q-71 0 -111 -8t-62 -31.5t-28 -54.5t-6 -90v-361q0 -72 -15.5 -123.5t-45.5 -82t-58.5 -46t-68.5 -28.5q31 -10 54.5 -21t50 -32.5t43.5 -50t28.5 -74 t11.5 -103.5v-360q0 -59 6 -90t28 -55t62 -32t111 -8v-153h-16q-108 0 -181.5 18.5t-111 43t-57 73t-22.5 82.5t-3 98v387q0 86 -47 141t-150 87z" />
<glyph unicode="|" horiz-adv-x="448" d="M143 -487v1892h162v-1892h-162z" />
<glyph unicode="}" horiz-adv-x="700" d="M55 -150q71 0 111 8t62 32t28 55t6 90v360q0 58 11.5 103.5t28.5 74t44 50t50 32.5t55 21q-40 13 -68.5 28.5t-58.5 46t-46 82t-16 123.5v361q0 59 -6 90t-28 54.5t-62 31.5t-111 8v154h17q61 0 110.5 -6t86.5 -14.5t65 -25t46.5 -31t31.5 -40t19.5 -43.5t10 -49.5t4 -51 t0.5 -55.5v-387q0 -86 47 -140.5t150 -86.5v-98q-103 -32 -150 -87t-47 -141v-387q0 -54 -2 -82.5t-12 -72t-34 -66.5t-64 -48t-106 -35.5t-156 -10.5h-17v153z" />
<glyph unicode="~" d="M113 524v211q149 96 266 96q50 0 110.5 -22t106.5 -48.5t97 -48.5t85 -22q28 0 66 15.5t65 31.5t69 44t56 36v-209q-72 -46 -131 -72t-121 -26q-52 0 -111.5 22t-103.5 48.5t-96 48.5t-92 22q-31 0 -72 -16t-63.5 -28.5t-74.5 -46.5t-56 -36z" />
<glyph unicode="&#xa0;" />
<glyph unicode="&#xa1;" horiz-adv-x="561" d="M127 813l154 154l153 -154l-153 -154zM172 -174l59 743h99l59 -743v-281h-217v281z" />
<glyph unicode="&#xa2;" d="M164 467q0 118 53.5 222.5t152 174.5t222.5 86v178h133v-178q140 -16 244 -76v-208q-129 88 -244 106v-610q76 8 141 37.5t103 64.5v-209q-96 -58 -244 -71v-179h-133v179q-86 10 -162 46.5t-136 95.5t-95 147t-35 194zM365 467q0 -127 65 -201.5t162 -97.5v600 q-105 -24 -166 -107t-61 -194z" />
<glyph unicode="&#xa3;" d="M68 0q157 147 202 567h-166l70 183h111v4q0 174 41 354q33 140 130.5 218.5t219.5 78.5q172 0 313 -137l-106 -176q-100 125 -197 125q-65 0 -114 -42t-62 -128q-2 -12 -7 -46t-6.5 -46.5t-5 -42t-5 -49t-2.5 -49t-1 -60.5v-4h359l-70 -183h-303q-22 -244 -80 -385h637 l-80 -182h-878z" />
<glyph unicode="&#xa4;" horiz-adv-x="1308" d="M166 356q94 90 141 133q-78 118 -78 236q0 129 78 236q-16 15 -44.5 42t-52 49.5t-44.5 43.5q65 65 98 100q92 -92 139 -137q113 76 238 76q60 0 123.5 -19.5t114.5 -56.5q94 90 139 137q18 -18 50 -51t48 -49q-22 -23 -139 -135q76 -108 76 -236q0 -123 -76 -236 q71 -64 139 -133q-16 -16 -48 -49t-50 -51q-20 21 -43 44t-51 50.5t-43 42.5q-109 -76 -240 -76q-134 0 -238 76q-47 -45 -139 -137q-33 35 -98 100zM371 727q0 -110 80 -190t190 -80q112 0 192 79.5t80 190.5q0 115 -82 191.5t-188 76.5q-115 0 -193.5 -79.5t-78.5 -188.5z " />
<glyph unicode="&#xa5;" d="M-4 1376h233l349 -549l348 549h233l-418 -628h230v-154h-295v-123h295v-154h-295v-317h-197v317h-295v154h295v123h-295v154h230z" />
<glyph unicode="&#xa6;" horiz-adv-x="448" d="M143 -303v782h162v-782h-162zM143 872v783h162v-783h-162z" />
<glyph unicode="&#xa7;" horiz-adv-x="1069" d="M82 451q0 108 64.5 188.5t203.5 116.5q-190 129 -190 311q0 133 112.5 235.5t290.5 102.5q120 0 220.5 -59t168.5 -168l-164 -117q-37 74 -98.5 118t-140.5 44q-85 0 -129.5 -42.5t-44.5 -107.5q0 -45 34 -86.5t87.5 -75t119 -67.5t131 -72.5t119 -82t87.5 -104 t34 -130.5q0 -116 -67 -190.5t-181 -108.5q95 -59 148 -125.5t53 -153.5q0 -164 -122.5 -266.5t-297.5 -102.5q-122 0 -240 63.5t-184 170.5l154 123q36 -72 113 -123t157 -51q87 0 145 48t58 111q0 43 -35.5 82.5t-92 72t-124.5 66t-136.5 72t-125 81t-92 101.5t-35.5 126z M285 473q0 -25 14.5 -49t34 -42.5t57.5 -42t66.5 -38t79.5 -39.5q111 9 179 56.5t68 121.5q0 26 -14 51t-31 42t-55.5 41t-61 35.5t-74.5 37.5q-5 3 -8.5 4.5t-7.5 3.5q-104 -9 -175.5 -60t-71.5 -122z" />
<glyph unicode="&#xa8;" horiz-adv-x="1024" d="M242 1069v197h196v-197h-196zM584 1069v197h196v-197h-196z" />
<glyph unicode="&#xa9;" horiz-adv-x="1486" d="M82 625q0 177 88.5 327.5t241 238t331.5 87.5q134 0 257 -52t211.5 -139.5t141 -208t52.5 -253.5q0 -177 -88.5 -327.5t-241.5 -238.5t-332 -88t-331.5 88t-241 238.5t-88.5 327.5zM219 625q0 -140 70 -259t190.5 -188t263.5 -69t263.5 69t190 188t69.5 259t-69.5 259 t-190 188t-263.5 69t-263.5 -69t-190.5 -188t-70 -259zM367 627q0 166 108 280.5t281 114.5q125 0 268 -76v-155q-91 56 -151 75t-117 19q-50 0 -91.5 -17t-68.5 -44t-45.5 -62t-26.5 -69t-8 -66q0 -68 22.5 -124t76 -94t130.5 -38q67 0 127 22t152 88v-159 q-133 -91 -279 -91q-91 0 -165 35t-119.5 92t-69.5 126.5t-24 142.5z" />
<glyph unicode="&#xaa;" horiz-adv-x="665" d="M82 958q0 108 102 168q72 43 242 43v9q0 57 -33.5 81.5t-79.5 24.5q-89 0 -204 -76l36 150q100 47 199 47q101 0 160 -60.5t59 -173.5v-383h-127v43q-76 -55 -151 -55q-86 0 -144.5 52t-58.5 130zM221 967q0 -28 21 -48t63 -20q61 0 121 49v107q-121 -3 -166 -29 q-39 -22 -39 -59z" />
<glyph unicode="&#xab;" horiz-adv-x="1003" d="M55 463l303 391h215l-303 -391l303 -391h-215zM461 463l303 391h215l-303 -391l303 -391h-215z" />
<glyph unicode="&#xac;" d="M160 756v162h835v-461h-178v299h-657z" />
<glyph unicode="&#xad;" horiz-adv-x="886" d="M106 422v182h674v-182h-674z" />
<glyph unicode="&#xae;" horiz-adv-x="772" d="M86 1128q0 123 88 209t211 86q122 0 211.5 -86.5t89.5 -208.5t-89 -208t-212 -86t-211 85.5t-88 208.5zM168 1128q0 -89 63.5 -151t153.5 -62q89 0 154 62.5t65 150.5t-65 150.5t-154 62.5q-90 0 -153.5 -62t-63.5 -151zM287 985v307h98q44 0 79.5 -23.5t35.5 -66.5 q0 -57 -49 -82l86 -135h-88l-76 123h-11v-123h-75zM362 1178h31q31 0 31 24q0 19 -37 19h-25v-43z" />
<glyph unicode="&#xaf;" horiz-adv-x="1024" d="M227 1102v139h564v-139h-564z" />
<glyph unicode="&#xb0;" horiz-adv-x="643" d="M76 1159q0 101 72.5 173.5t173.5 72.5t173 -72.5t72 -173.5t-72 -173.5t-173 -72.5t-173.5 72.5t-72.5 173.5zM197 1159q0 -53 36.5 -89t88.5 -36t88 36t36 89t-36 89t-88 36t-88.5 -36t-36.5 -89z" />
<glyph unicode="&#xb1;" d="M160 0v162h835v-162h-835zM160 606v162h336v356h161v-356h338v-162h-336v-356h-161v356h-338z" />
<glyph unicode="&#xb2;" horiz-adv-x="761" d="M82 553l252 395l22 33t29 45t23.5 42t21 48.5t6.5 40.5q0 46 -29 72t-75 26q-59 0 -113 -42t-117 -132v209q107 107 240 107q108 0 181 -67.5t73 -166.5q0 -59 -18.5 -104t-75.5 -131l-156 -240h281v-135h-545z" />
<glyph unicode="&#xb3;" horiz-adv-x="761" d="M61 678l109 121q69 -121 172 -121q34 0 64 11.5t54.5 45t24.5 84.5q0 55 -44 92t-130 37q-36 0 -121 -10l199 305h-289v135h551l-209 -319q78 -12 140.5 -76.5t62.5 -163.5q0 -122 -89.5 -201t-217.5 -79q-149 0 -277 139z" />
<glyph unicode="&#xb4;" horiz-adv-x="1024" d="M408 1040l274 250h221l-274 -250h-221z" />
<glyph unicode="&#xb5;" horiz-adv-x="1150" d="M-113 -428l318 1499h180l-129 -600q-14 -63 -14 -133q0 -99 52 -153t148 -54q135 0 211 96t121 308l115 536h178l-156 -731q-22 -108 -22 -133q0 -37 17 -52.5t55 -15.5q20 0 32 2l-30 -143q-49 -10 -109 -10q-64 0 -97 29.5t-52 99.5q-88 -131 -271 -131 q-82 0 -143 27.5t-113 88.5l-110 -530h-181z" />
<glyph unicode="&#xb6;" horiz-adv-x="1277" d="M100 893q0 264 217 416q97 67 318 67h506v-1683h-168v1530h-209v-1530h-168v745q-107 0 -177 12t-122 48q-99 69 -148 160.5t-49 234.5z" />
<glyph unicode="&#xb7;" horiz-adv-x="471" d="M127 573v228h217v-228h-217z" />
<glyph unicode="&#xb8;" horiz-adv-x="1024" d="M387 -293q25 -14 57 -14q37 0 67 20.5t30 67.5q0 35 -30 58t-81 26l29 139h108l-12 -76q44 -10 79.5 -47.5t35.5 -93.5q0 -84 -62 -135t-164 -51q-37 0 -57 4v102z" />
<glyph unicode="&#xb9;" horiz-adv-x="761" d="M303 553v768l156 92v-860h-156z" />
<glyph unicode="&#xba;" horiz-adv-x="808" d="M82 1090q0 133 91.5 224t229.5 91q139 0 231.5 -91t92.5 -224t-92.5 -224.5t-231.5 -91.5q-138 0 -229.5 91.5t-91.5 224.5zM227 1090q0 -82 50 -133.5t126 -51.5t127.5 51.5t51.5 133.5t-51.5 133t-127.5 51t-126 -51t-50 -133z" />
<glyph unicode="&#xbb;" horiz-adv-x="1003" d="M25 72l303 391l-303 391h215l303 -391l-303 -391h-215zM430 72l303 391l-303 391h215l303 -391l-303 -391h-215z" />
<glyph unicode="&#xbc;" horiz-adv-x="1624" d="M205 553v768l155 92v-860h-155zM406 -25l385 1457h139l-385 -1457h-139zM766 219l639 653v-538h154v-115h-154v-219h-156v219h-483zM1040 334h209v213z" />
<glyph unicode="&#xbd;" horiz-adv-x="1695" d="M205 553v768l155 92v-860h-155zM406 -25l385 1457h139l-385 -1457h-139zM946 0l252 395l22 33t29 45t23.5 42t21 48.5t6.5 40.5q0 46 -29 72t-75 26q-58 0 -112 -42t-117 -132v209q107 107 239 107q108 0 181 -67.5t73 -166.5q0 -59 -18.5 -104t-75.5 -131l-156 -240h281 v-135h-545z" />
<glyph unicode="&#xbe;" horiz-adv-x="1890" d="M102 678l109 121q28 -52 71.5 -86.5t100.5 -34.5q33 0 63 11.5t55 45t25 84.5q0 55 -44 92t-130 37q-36 0 -121 -10l199 305h-289v135h551l-209 -319q77 -12 140 -76.5t63 -163.5q0 -122 -89.5 -201t-217.5 -79q-149 0 -277 139zM674 -25l385 1457h139l-385 -1457h-139z M1032 219l637 653v-538h156v-115h-156v-219h-156v219h-481zM1307 334h206v213z" />
<glyph unicode="&#xbf;" horiz-adv-x="862" d="M31 -139q0 56 12.5 101.5t42 87.5t55.5 70t74 73q131 124 147 143q25 28 25 53q0 19 -11 34t-54 58l127 127q77 -68 105 -118.5t28 -110.5q0 -67 -41 -120.5t-154 -156.5q-48 -44 -70.5 -66t-46.5 -53t-32.5 -59t-8.5 -63q0 -67 50.5 -109.5t126.5 -42.5q83 0 138.5 36.5 t96.5 125.5l154 -100q-120 -246 -389 -246q-92 0 -166 29t-118.5 77t-67.5 107t-23 123zM295 821l154 154l153 -154l-153 -153z" />
<glyph unicode="&#xc0;" horiz-adv-x="1392" d="M33 0l571 1391h184l572 -1391h-211l-139 348h-627l-139 -348h-211zM373 1747h221l274 -250h-221zM455 526h483l-242 637z" />
<glyph unicode="&#xc1;" horiz-adv-x="1392" d="M33 0l571 1391h184l572 -1391h-211l-139 348h-627l-139 -348h-211zM455 526h483l-242 637zM530 1497l275 250h221l-274 -250h-222z" />
<glyph unicode="&#xc2;" horiz-adv-x="1392" d="M33 0l571 1391h184l572 -1391h-211l-139 348h-627l-139 -348h-211zM375 1497l227 250h186l228 -250h-193l-127 150l-129 -150h-192zM455 526h483l-242 637z" />
<glyph unicode="&#xc3;" horiz-adv-x="1392" d="M33 0l571 1391h184l572 -1391h-211l-139 348h-627l-139 -348h-211zM365 1511q6 97 50 160.5t120 63.5q52 0 158 -42t141 -42q50 0 55 71h137q-11 -100 -55.5 -157.5t-124.5 -57.5q-49 0 -156 42t-137 42q-48 0 -51 -80h-137zM455 526h483l-242 637z" />
<glyph unicode="&#xc4;" horiz-adv-x="1392" d="M33 0l571 1391h184l572 -1391h-211l-139 348h-627l-139 -348h-211zM426 1526v196h197v-196h-197zM455 526h483l-242 637zM768 1526v196h197v-196h-197z" />
<glyph unicode="&#xc5;" horiz-adv-x="1392" d="M33 0l571 1391h184l572 -1391h-211l-139 348h-627l-139 -348h-211zM455 526h483l-242 604zM498 1696q0 83 57.5 140.5t140.5 57.5t141 -57.5t58 -140.5t-58 -141t-141 -58t-140.5 58t-57.5 141zM596 1696q0 -41 29.5 -71t70.5 -30t71 30t30 71t-30 70.5t-71 29.5 t-70.5 -29.5t-29.5 -70.5z" />
<glyph unicode="&#xc6;" horiz-adv-x="1992" d="M33 0l895 1376h975v-178h-674v-371h506v-178h-506v-471h674v-178h-871v338h-561l-219 -338h-219zM586 516h446v688z" />
<glyph unicode="&#xc7;" horiz-adv-x="1417" d="M117 688q0 155 58 289.5t157 227.5t233 146.5t283 53.5q243 0 483 -139v-213q-117 76 -245 122t-238 46q-219 0 -370.5 -153.5t-151.5 -379.5t151.5 -379t370.5 -153q252 0 481 163v-213q-218 -132 -465 -135l-16 -73q45 -8 80 -47.5t35 -94.5q0 -93 -62.5 -152 t-179.5 -59q-35 0 -80 13v112q25 -10 72 -10q43 0 72.5 22t29.5 68q0 84 -110 90l34 140q-175 25 -316 119t-223.5 248t-82.5 341z" />
<glyph unicode="&#xc8;" horiz-adv-x="1118" d="M158 0v1376h870v-178h-674v-371h527v-178h-527v-471h674v-178h-870zM264 1747h221l275 -250h-221z" />
<glyph unicode="&#xc9;" horiz-adv-x="1118" d="M158 0v1376h870v-178h-674v-371h527v-178h-527v-471h674v-178h-870zM422 1497l274 250h222l-275 -250h-221z" />
<glyph unicode="&#xca;" horiz-adv-x="1118" d="M158 0v1376h870v-178h-674v-371h527v-178h-527v-471h674v-178h-870zM266 1497l228 250h186l227 -250h-192l-127 150l-129 -150h-193z" />
<glyph unicode="&#xcb;" horiz-adv-x="1118" d="M158 0v1376h870v-178h-674v-371h527v-178h-527v-471h674v-178h-870zM317 1526v196h197v-196h-197zM659 1526v196h197v-196h-197z" />
<glyph unicode="&#xcc;" horiz-adv-x="512" d="M-129 1747h221l275 -250h-222zM158 0v1376h196v-1376h-196z" />
<glyph unicode="&#xcd;" horiz-adv-x="512" d="M152 1497l274 250h221l-274 -250h-221zM158 0v1376h196v-1376h-196z" />
<glyph unicode="&#xce;" horiz-adv-x="512" d="M-66 1497l228 250h186l227 -250h-192l-127 150l-129 -150h-193zM158 0v1376h196v-1376h-196z" />
<glyph unicode="&#xcf;" horiz-adv-x="512" d="M-14 1526v196h196v-196h-196zM158 0v1376h196v-1376h-196zM328 1526v196h196v-196h-196z" />
<glyph unicode="&#xd0;" horiz-adv-x="1454" d="M-12 649v178h170v549h436q119 0 230.5 -31.5t204 -92.5t162 -143.5t108 -191t38.5 -229.5q0 -197 -98 -355.5t-265 -245.5t-370 -87h-446v649h-170zM354 178h230q130 0 234.5 40.5t171.5 110.5t102.5 161.5t35.5 197.5q0 146 -72.5 263.5t-193.5 182t-264 64.5h-244v-371 h336v-178h-336v-471z" />
<glyph unicode="&#xd1;" horiz-adv-x="1568" d="M158 0v1376h196l860 -1083v1083h197v-1376h-197l-860 1083v-1083h-196zM453 1511q6 97 50 160.5t120 63.5q52 0 158 -42t141 -42q50 0 55 71h137q-11 -100 -55.5 -157.5t-124.5 -57.5q-49 0 -156 42t-137 42q-48 0 -51 -80h-137z" />
<glyph unicode="&#xd2;" horiz-adv-x="1695" d="M117 688q0 203 97 368t264 257t370 92t370 -92t264 -257t97 -368t-97 -368t-264 -257t-370 -92t-370 92t-264 257t-97 368zM326 688q0 -146 67.5 -268t187.5 -193t267 -71t267 71t187.5 193t67.5 268t-67.5 268t-187.5 193.5t-267 71.5t-267 -71.5t-187.5 -193.5 t-67.5 -268zM524 1747h221l275 -250h-221z" />
<glyph unicode="&#xd3;" horiz-adv-x="1695" d="M117 688q0 203 97 368t264 257t370 92t370 -92t264 -257t97 -368t-97 -368t-264 -257t-370 -92t-370 92t-264 257t-97 368zM326 688q0 -146 67.5 -268t187.5 -193t267 -71t267 71t187.5 193t67.5 268t-67.5 268t-187.5 193.5t-267 71.5t-267 -71.5t-187.5 -193.5 t-67.5 -268zM682 1497l274 250h222l-275 -250h-221z" />
<glyph unicode="&#xd4;" horiz-adv-x="1695" d="M117 688q0 203 97 368t264 257t370 92t370 -92t264 -257t97 -368t-97 -368t-264 -257t-370 -92t-370 92t-264 257t-97 368zM326 688q0 -146 67.5 -268t187.5 -193t267 -71t267 71t187.5 193t67.5 268t-67.5 268t-187.5 193.5t-267 71.5t-267 -71.5t-187.5 -193.5 t-67.5 -268zM526 1497l228 250h186l227 -250h-192l-127 150l-129 -150h-193z" />
<glyph unicode="&#xd5;" horiz-adv-x="1695" d="M117 688q0 155 58 289.5t157 227.5t233 146.5t283 53.5t283 -53.5t233 -146.5t157 -227.5t58 -289.5t-58 -289.5t-157 -227.5t-233 -146.5t-283 -53.5t-283 53.5t-233 146.5t-157 227.5t-58 289.5zM326 688q0 -226 151.5 -379t370.5 -153t370.5 153t151.5 379 t-151.5 379.5t-370.5 153.5t-370.5 -153.5t-151.5 -379.5zM516 1511q6 97 50 160.5t120 63.5q52 0 158 -42t141 -42q50 0 55 71h138q-11 -100 -56 -157.5t-125 -57.5q-49 0 -155.5 42t-136.5 42q-49 0 -52 -80h-137z" />
<glyph unicode="&#xd6;" horiz-adv-x="1695" d="M117 688q0 155 58 289.5t157 227.5t233 146.5t283 53.5t283 -53.5t233 -146.5t157 -227.5t58 -289.5t-58 -289.5t-157 -227.5t-233 -146.5t-283 -53.5t-283 53.5t-233 146.5t-157 227.5t-58 289.5zM326 688q0 -226 151.5 -379t370.5 -153t370.5 153t151.5 379 t-151.5 379.5t-370.5 153.5t-370.5 -153.5t-151.5 -379.5zM578 1526v196h196v-196h-196zM920 1526v196h196v-196h-196z" />
<glyph unicode="&#xd7;" d="M211 434l252 254l-252 252l115 115l252 -252l251 250l113 -113l-250 -252l252 -252l-115 -114l-251 251l-254 -251z" />
<glyph unicode="&#xd8;" horiz-adv-x="1695" d="M117 688q0 155 58 289.5t157 227.5t233 146.5t283 53.5q261 0 463 -156l139 140l98 -99l-135 -137q166 -193 166 -465q0 -155 -58 -289.5t-157 -227.5t-233 -146.5t-283 -53.5q-261 0 -463 156l-139 -139l-99 98l136 137q-166 193 -166 465zM326 688q0 -179 102 -321 l743 743q-140 111 -323 111q-219 0 -370.5 -153.5t-151.5 -379.5zM524 266q138 -110 324 -110q219 0 370.5 153t151.5 379q0 180 -102 322z" />
<glyph unicode="&#xd9;" horiz-adv-x="1523" d="M147 588v788h197v-796q0 -94 27.5 -169.5t71 -122t100.5 -77.5t111 -43t108 -12t108 12t111 43t100.5 77.5t71 122t27.5 169.5v796h196v-788q0 -123 -36 -226.5t-96 -174.5t-139.5 -120.5t-166 -72.5t-176.5 -23t-176.5 23t-166.5 72.5t-140 120.5t-96 174.5t-36 226.5z M438 1747h221l275 -250h-221z" />
<glyph unicode="&#xda;" horiz-adv-x="1523" d="M147 588v788h197v-796q0 -94 27.5 -169.5t71 -122t100.5 -77.5t111 -43t108 -12t108 12t111 43t100.5 77.5t71 122t27.5 169.5v796h196v-788q0 -123 -36 -226.5t-96 -174.5t-139.5 -120.5t-166 -72.5t-176.5 -23t-176.5 23t-166.5 72.5t-140 120.5t-96 174.5t-36 226.5z M596 1497l274 250h222l-275 -250h-221z" />
<glyph unicode="&#xdb;" horiz-adv-x="1523" d="M147 588v788h197v-796q0 -94 27.5 -169.5t71 -122t100.5 -77.5t111 -43t108 -12t108 12t111 43t100.5 77.5t71 122t27.5 169.5v796h196v-788q0 -123 -36 -226.5t-96 -174.5t-139.5 -120.5t-166 -72.5t-176.5 -23t-176.5 23t-166.5 72.5t-140 120.5t-96 174.5t-36 226.5z M440 1497l228 250h186l227 -250h-192l-127 150l-129 -150h-193z" />
<glyph unicode="&#xdc;" horiz-adv-x="1523" d="M147 588v788h197v-796q0 -94 27.5 -169.5t71 -122t100.5 -77.5t111 -43t108 -12t108 12t111 43t100.5 77.5t71 122t27.5 169.5v796h196v-788q0 -123 -36 -226.5t-96 -174.5t-139.5 -120.5t-166 -72.5t-176.5 -23t-176.5 23t-166.5 72.5t-140 120.5t-96 174.5t-36 226.5z M492 1526v196h196v-196h-196zM834 1526v196h196v-196h-196z" />
<glyph unicode="&#xdd;" horiz-adv-x="1232" d="M35 1376h233l348 -569l349 569h233l-483 -727v-649h-197v649zM451 1497l274 250h221l-274 -250h-221z" />
<glyph unicode="&#xde;" horiz-adv-x="1103" d="M158 0v1376h196v-274h219q125 0 220.5 -36t150 -96t81 -130t26.5 -148q0 -103 -39.5 -185t-106 -131.5t-148 -75.5t-171.5 -26h-232v-274h-196zM354 453h213q124 0 197.5 61t73.5 174q0 48 -14 88t-44.5 74.5t-87 54t-133.5 19.5h-205v-471z" />
<glyph unicode="&#xdf;" horiz-adv-x="1105" d="M129 0v961q0 96 26 174t67.5 127t96 82.5t109 47t109.5 13.5q93 0 171 -31.5t126 -82t74 -110t26 -118.5q0 -203 -195 -270q122 -48 198.5 -145.5t76.5 -241.5q0 -80 -24 -149.5t-64.5 -119t-93 -85.5t-109 -53t-113.5 -17q-81 0 -166 18v197q76 -39 142 -39 q90 0 158.5 63t68.5 185q0 134 -91.5 216.5t-229.5 82.5h-43v163q152 0 220 44t68 145q0 73 -53.5 123.5t-146.5 50.5q-106 0 -162 -75.5t-56 -221.5v-934h-190z" />
<glyph unicode="&#xe0;" horiz-adv-x="966" d="M82 256q0 160 158 252q113 65 393 65v29q0 89 -52.5 137.5t-142.5 48.5q-147 0 -303 -102l47 191q155 71 303 71q161 0 249.5 -96.5t88.5 -259.5v-592h-174v86q-71 -52 -129.5 -79t-128.5 -27q-125 0 -217 76.5t-92 199.5zM160 1290h221l274 -250h-221zM274 266 q0 -61 43 -92t107 -31q101 0 209 86v195q-34 0 -55 -0.5t-63 -3.5t-70 -8.5t-63 -17t-56.5 -28t-36.5 -42t-15 -58.5z" />
<glyph unicode="&#xe1;" horiz-adv-x="966" d="M82 256q0 160 158 252q113 65 393 65v29q0 89 -52.5 137.5t-142.5 48.5q-147 0 -303 -102l47 191q155 71 303 71q161 0 249.5 -96.5t88.5 -259.5v-592h-174v86q-71 -52 -129.5 -79t-128.5 -27q-125 0 -217 76.5t-92 199.5zM274 266q0 -61 43 -92t107 -31q101 0 209 86 v195q-34 0 -55 -0.5t-63 -3.5t-70 -8.5t-63 -17t-56.5 -28t-36.5 -42t-15 -58.5zM317 1040l275 250h221l-274 -250h-222z" />
<glyph unicode="&#xe2;" horiz-adv-x="966" d="M82 256q0 160 158 252q113 65 393 65v29q0 89 -52.5 137.5t-142.5 48.5q-147 0 -303 -102l47 191q155 71 303 71q161 0 249.5 -96.5t88.5 -259.5v-592h-174v86q-71 -52 -129.5 -79t-128.5 -27q-125 0 -217 76.5t-92 199.5zM162 1040l227 250h186l228 -250h-193l-127 150 l-129 -150h-192zM274 266q0 -61 43 -92t107 -31q101 0 209 86v195q-34 0 -55 -0.5t-63 -3.5t-70 -8.5t-63 -17t-56.5 -28t-36.5 -42t-15 -58.5z" />
<glyph unicode="&#xe3;" horiz-adv-x="966" d="M82 256q0 69 36.5 136.5t121.5 115.5q66 37 160.5 51t232.5 14v29q0 52 -18 90t-48 58t-62 29t-67 9q-149 0 -303 -102l47 191q154 71 303 71q155 0 246.5 -92.5t91.5 -263.5v-592h-174v86q-73 -55 -131.5 -80.5t-126.5 -25.5q-132 0 -220.5 79.5t-88.5 196.5zM152 1055 q6 97 50 160t120 63q52 0 158 -42t141 -42q50 0 55 72h137q-11 -100 -55.5 -157.5t-124.5 -57.5q-49 0 -156 42t-137 42q-48 0 -51 -80h-137zM274 266q0 -51 38 -87t112 -36q101 0 209 86v195q-206 0 -291 -47q-68 -39 -68 -111z" />
<glyph unicode="&#xe4;" horiz-adv-x="966" d="M82 256q0 69 36.5 136.5t121.5 115.5q66 37 160.5 51t232.5 14v29q0 52 -18 90t-48 58t-62 29t-67 9q-149 0 -303 -102l47 191q154 71 303 71q155 0 246.5 -92.5t91.5 -263.5v-592h-174v86q-73 -55 -131.5 -80.5t-126.5 -25.5q-132 0 -220.5 79.5t-88.5 196.5zM213 1069 v197h197v-197h-197zM274 266q0 -51 38 -87t112 -36q101 0 209 86v195q-206 0 -291 -47q-68 -39 -68 -111zM555 1069v197h197v-197h-197z" />
<glyph unicode="&#xe5;" horiz-adv-x="966" d="M82 256q0 69 36.5 136.5t121.5 115.5q66 37 160.5 51t232.5 14v29q0 52 -18 90t-48 58t-62 29t-67 9q-149 0 -303 -102l47 191q154 71 303 71q155 0 246.5 -92.5t91.5 -263.5v-592h-174v86q-73 -55 -131.5 -80.5t-126.5 -25.5q-132 0 -220.5 79.5t-88.5 196.5zM272 1239 q0 83 58 141t141 58t141 -58t58 -141t-58 -141t-141 -58t-141 58t-58 141zM274 266q0 -51 38 -87t112 -36q101 0 209 86v195q-206 0 -291 -47q-68 -39 -68 -111zM371 1239q0 -41 29.5 -70.5t70.5 -29.5t70.5 29.5t29.5 70.5t-29.5 70.5t-70.5 29.5t-70.5 -29.5t-29.5 -70.5z " />
<glyph unicode="&#xe6;" horiz-adv-x="1630" d="M82 256q0 61 39 133t119 117q119 67 393 67v29q0 52 -18 90t-48 58t-62 29t-67 9q-149 0 -303 -102l47 191q154 71 303 71q189 0 277 -129q122 129 323 129q69 0 132 -18.5t120 -59t98.5 -101t66 -149.5t24.5 -198v-12h-692q7 -128 90.5 -195.5t208.5 -67.5 q208 0 376 138v-189q-177 -121 -401 -121q-226 0 -356 146q-173 -146 -355 -146q-132 0 -223.5 82t-91.5 199zM274 266q0 -51 38 -88t112 -37q112 0 248 109q-31 76 -37 166q-219 0 -293 -41q-36 -20 -52 -51t-16 -58zM834 569h481q-6 92 -72 153.5t-168 61.5 q-110 0 -168.5 -61.5t-72.5 -153.5z" />
<glyph unicode="&#xe7;" horiz-adv-x="1001" d="M102 467q0 129 62.5 240t177.5 179t256 68q76 0 160.5 -22t148.5 -58v-208q-164 110 -303 110q-136 0 -218.5 -89.5t-82.5 -219.5q0 -80 28 -142t73.5 -97t97.5 -52.5t106 -17.5q91 0 171.5 32t127.5 74v-209q-111 -68 -284 -75l-11 -52q44 -10 79.5 -47.5t35.5 -93.5 q0 -84 -61.5 -135t-163.5 -51q-38 0 -58 4v102q24 -14 58 -14q37 0 66.5 20.5t29.5 67.5q0 35 -30 58t-81 26l27 121q-84 13 -157 50t-130.5 96t-91 145.5t-33.5 189.5z" />
<glyph unicode="&#xe8;" horiz-adv-x="1099" d="M102 469q0 207 123.5 343t329.5 136q111 0 197 -42.5t138 -116.5t78.5 -167t26.5 -200v-12h-692q7 -125 89.5 -194t209.5 -69q102 0 200 36.5t177 101.5v-189q-176 -121 -401 -121q-220 0 -348 136.5t-128 357.5zM227 1290h222l274 -250h-221zM303 569h481q-6 95 -74 155 t-165 60q-101 0 -164 -57t-78 -158z" />
<glyph unicode="&#xe9;" horiz-adv-x="1099" d="M102 469q0 207 123.5 343t329.5 136q111 0 197 -42.5t138 -116.5t78.5 -167t26.5 -200v-12h-692q7 -125 89.5 -194t209.5 -69q102 0 200 36.5t177 101.5v-189q-176 -121 -401 -121q-220 0 -348 136.5t-128 357.5zM303 569h481q-6 95 -74 155t-165 60q-101 0 -164 -57 t-78 -158zM385 1040l274 250h222l-275 -250h-221z" />
<glyph unicode="&#xea;" horiz-adv-x="1099" d="M102 469q0 207 123.5 343t329.5 136q111 0 197 -42.5t138 -116.5t78.5 -167t26.5 -200v-12h-692q7 -125 89.5 -194t209.5 -69q102 0 200 36.5t177 101.5v-189q-176 -121 -401 -121q-220 0 -348 136.5t-128 357.5zM229 1040l228 250h186l227 -250h-192l-127 150l-129 -150 h-193zM303 569h481q-6 95 -74 155t-165 60q-101 0 -164 -57t-78 -158z" />
<glyph unicode="&#xeb;" horiz-adv-x="1099" d="M102 469q0 92 28 176t82 152.5t142.5 109.5t200.5 41q69 0 132 -18.5t120 -59t98 -101t65.5 -149.5t24.5 -198v-12h-692q7 -128 90.5 -195.5t208.5 -67.5q108 0 205.5 38.5t171.5 99.5v-189q-177 -121 -401 -121q-217 0 -346.5 135t-129.5 359zM281 1069v197h196v-197 h-196zM303 569h481q-6 92 -71.5 153.5t-167.5 61.5q-110 0 -169 -61.5t-73 -153.5zM623 1069v197h196v-197h-196z" />
<glyph unicode="&#xec;" horiz-adv-x="471" d="M-150 1290h222l274 -250h-221zM139 0v928h191v-928h-191z" />
<glyph unicode="&#xed;" horiz-adv-x="471" d="M131 1040l275 250h221l-275 -250h-221zM139 0v928h191v-928h-191z" />
<glyph unicode="&#xee;" horiz-adv-x="471" d="M-86 1040l227 250h187l227 -250h-193l-126 150l-130 -150h-192zM139 0v928h191v-928h-191z" />
<glyph unicode="&#xef;" horiz-adv-x="471" d="M-35 1069v197h197v-197h-197zM139 0v928h191v-928h-191zM307 1069v197h197v-197h-197z" />
<glyph unicode="&#xf0;" horiz-adv-x="1128" d="M102 463q0 86 29.5 169t82.5 149t133.5 106.5t174.5 40.5q138 0 213 -60q-41 99 -112 226l-191 -86l-51 116l176 80q-79 129 -111 172h216q1 -2 63 -96l190 86l52 -117l-174 -78q233 -392 233 -690q0 -137 -59 -251.5t-168.5 -183.5t-247.5 -69q-66 0 -130.5 20.5 t-122 62t-101.5 98.5t-69.5 136t-25.5 169zM301 463q0 -120 74 -206.5t186 -86.5q113 0 188.5 85t75.5 208q0 140 -30 201q-98 102 -230 102q-113 0 -188.5 -91.5t-75.5 -211.5z" />
<glyph unicode="&#xf1;" horiz-adv-x="1179" d="M154 0v928h174v-86q150 102 303 102q47 0 94.5 -9.5t105.5 -39.5t101.5 -77.5t73.5 -132.5t30 -196v-489h-190v500q0 127 -64 196.5t-176 69.5q-129 0 -262 -98v-668h-190zM258 1055q6 97 50 160t120 63q52 0 158 -42t141 -42q50 0 55 72h138q-11 -100 -56 -157.5 t-125 -57.5q-49 0 -156 42t-137 42q-48 0 -51 -80h-137z" />
<glyph unicode="&#xf2;" horiz-adv-x="1196" d="M102 463q0 138 66 249.5t179.5 173.5t250.5 62t250.5 -62t179.5 -173.5t66 -249.5t-66 -249.5t-179.5 -174t-250.5 -62.5t-250.5 62.5t-179.5 174t-66 249.5zM274 1290h222l274 -250h-221zM301 463q0 -132 82.5 -220.5t214.5 -88.5t214.5 88.5t82.5 220.5t-82.5 220.5 t-214.5 88.5t-214.5 -88.5t-82.5 -220.5z" />
<glyph unicode="&#xf3;" horiz-adv-x="1196" d="M102 463q0 138 66 249.5t179.5 173.5t250.5 62t250.5 -62t179.5 -173.5t66 -249.5t-66 -249.5t-179.5 -174t-250.5 -62.5t-250.5 62.5t-179.5 174t-66 249.5zM301 463q0 -132 82.5 -220.5t214.5 -88.5t214.5 88.5t82.5 220.5t-82.5 220.5t-214.5 88.5t-214.5 -88.5 t-82.5 -220.5zM432 1040l275 250h221l-275 -250h-221z" />
<glyph unicode="&#xf4;" horiz-adv-x="1196" d="M102 463q0 138 66 249.5t179.5 173.5t250.5 62t250.5 -62t179.5 -173.5t66 -249.5t-66 -249.5t-179.5 -174t-250.5 -62.5t-250.5 62.5t-179.5 174t-66 249.5zM276 1040l228 250h186l228 -250h-193l-127 150l-129 -150h-193zM301 463q0 -132 82.5 -220.5t214.5 -88.5 t214.5 88.5t82.5 220.5t-82.5 220.5t-214.5 88.5t-214.5 -88.5t-82.5 -220.5z" />
<glyph unicode="&#xf5;" horiz-adv-x="1196" d="M102 463q0 204 141.5 344.5t354.5 140.5t354.5 -140.5t141.5 -344.5t-141.5 -345t-354.5 -141t-354.5 141t-141.5 345zM266 1055q6 97 50 160t120 63q52 0 158 -42t141 -42q51 0 56 72h137q-11 -100 -55.5 -157.5t-124.5 -57.5q-49 0 -156 42t-137 42q-49 0 -52 -80h-137 zM301 463q0 -136 84.5 -222.5t212.5 -86.5t212.5 86.5t84.5 222.5t-84.5 222.5t-212.5 86.5t-212.5 -86.5t-84.5 -222.5z" />
<glyph unicode="&#xf6;" horiz-adv-x="1196" d="M102 463q0 204 141.5 344.5t354.5 140.5t354.5 -140.5t141.5 -344.5t-141.5 -345t-354.5 -141t-354.5 141t-141.5 345zM301 463q0 -136 84.5 -222.5t212.5 -86.5t212.5 86.5t84.5 222.5t-84.5 222.5t-212.5 86.5t-212.5 -86.5t-84.5 -222.5zM328 1069v197h196v-197h-196z M670 1069v197h196v-197h-196z" />
<glyph unicode="&#xf7;" d="M162 606v162h831v-162h-831zM479 266v197h199v-197h-199zM479 911v197h199v-197h-199z" />
<glyph unicode="&#xf8;" horiz-adv-x="1196" d="M94 49l111 111q-103 128 -103 303q0 204 141.5 344.5t354.5 140.5q170 0 301 -94l113 113l90 -90l-111 -111q103 -128 103 -303q0 -204 -141.5 -345t-354.5 -141q-169 0 -301 95l-113 -113zM301 463q0 -95 41 -166l424 424q-73 51 -168 51q-128 0 -212.5 -86.5 t-84.5 -222.5zM430 205q73 -51 168 -51q128 0 212.5 86.5t84.5 222.5q0 95 -41 166z" />
<glyph unicode="&#xf9;" horiz-adv-x="1179" d="M143 436v492h191v-502q0 -127 63.5 -196.5t175.5 -69.5q127 0 263 100v668h190v-928h-174v86q-43 -29 -78 -48t-97.5 -37.5t-127.5 -18.5q-47 0 -94.5 9.5t-106 39t-102 77t-73.5 132.5t-30 196zM266 1290h221l275 -250h-221z" />
<glyph unicode="&#xfa;" horiz-adv-x="1179" d="M143 436v492h191v-502q0 -127 63.5 -196.5t175.5 -69.5q127 0 263 100v668h190v-928h-174v86q-43 -29 -78 -48t-97.5 -37.5t-127.5 -18.5q-47 0 -94.5 9.5t-106 39t-102 77t-73.5 132.5t-30 196zM424 1040l274 250h222l-275 -250h-221z" />
<glyph unicode="&#xfb;" horiz-adv-x="1179" d="M143 436v492h191v-502q0 -127 63.5 -196.5t175.5 -69.5q127 0 263 100v668h190v-928h-174v86q-43 -29 -78 -48t-97.5 -37.5t-127.5 -18.5q-47 0 -94.5 9.5t-106 39t-102 77t-73.5 132.5t-30 196zM268 1040l228 250h186l227 -250h-192l-127 150l-129 -150h-193z" />
<glyph unicode="&#xfc;" horiz-adv-x="1179" d="M143 436v492h191v-502q0 -127 63.5 -196.5t175.5 -69.5q127 0 263 100v668h190v-928h-174v86q-43 -29 -78 -48t-97.5 -37.5t-127.5 -18.5q-47 0 -94.5 9.5t-106 39t-102 77t-73.5 132.5t-30 196zM319 1069v197h197v-197h-197zM662 1069v197h196v-197h-196z" />
<glyph unicode="&#xfd;" horiz-adv-x="1028" d="M-25 -289q34 -12 78 -12q68 0 113 29.5t82 103.5l143 283l-416 813h201l313 -631l306 631h200l-579 -1147q-69 -137 -147.5 -193.5t-188.5 -56.5q-60 0 -105 10v170zM348 1040l275 250h221l-275 -250h-221z" />
<glyph unicode="&#xfe;" horiz-adv-x="1183" d="M154 -449v1825h190v-522q125 92 270 92q59 0 121.5 -17.5t125 -56.5t111 -94t79 -137.5t30.5 -179.5q0 -106 -41 -197.5t-107.5 -152.5t-150.5 -96t-172 -35q-144 0 -266 77v-506h-190zM344 242q108 -86 250 -86q131 0 209 88t78 217q0 78 -26.5 139.5t-70 97t-93.5 54 t-101 18.5q-131 0 -246 -100v-428z" />
<glyph unicode="&#xff;" horiz-adv-x="1028" d="M-25 -289q34 -12 78 -12q68 0 113 29.5t82 103.5l143 283l-416 813h201l313 -631l306 631h200l-579 -1147q-69 -137 -147.5 -193.5t-188.5 -56.5q-60 0 -105 10v170zM244 1069v197h196v-197h-196zM586 1069v197h196v-197h-196z" />
<glyph unicode="&#x152;" horiz-adv-x="2330" d="M117 688q0 155 58 289.5t157 227.5t233 146.5t283 53.5q156 0 290.5 -57.5t231.5 -161.5v190h871v-178h-678v-371h510v-178h-510v-471h678v-178h-871v190q-97 -104 -231.5 -161.5t-290.5 -57.5q-149 0 -283 53.5t-233 146.5t-157 227.5t-58 289.5zM326 688 q0 -226 151.5 -379t370.5 -153t370.5 153t151.5 379t-151.5 379.5t-370.5 153.5t-370.5 -153.5t-151.5 -379.5z" />
<glyph unicode="&#x153;" horiz-adv-x="1892" d="M102 463q0 204 141.5 344.5t354.5 140.5q120 0 220 -46.5t167 -129.5q125 176 363 176q69 0 132 -18.5t120 -59t98 -101t65.5 -149.5t24.5 -198v-12h-692q7 -128 90.5 -195.5t208.5 -67.5q108 0 205.5 38.5t171.5 99.5v-189q-177 -121 -402 -121q-125 0 -223 47t-160 134 q-67 -84 -168.5 -131.5t-220.5 -47.5q-213 0 -354.5 141t-141.5 345zM301 463q0 -136 84.5 -222.5t212.5 -86.5t212.5 86.5t84.5 222.5t-84.5 222.5t-212.5 86.5t-212.5 -86.5t-84.5 -222.5zM1096 569h481q-6 92 -72 153.5t-168 61.5q-110 0 -168.5 -61.5t-72.5 -153.5z" />
<glyph unicode="&#x178;" horiz-adv-x="1232" d="M35 1376h233l348 -569l349 569h233l-483 -727v-649h-197v649zM346 1526v196h197v-196h-197zM688 1526v196h197v-196h-197z" />
<glyph unicode="&#x2c6;" horiz-adv-x="1024" d="M190 1040l228 250h186l227 -250h-192l-127 150l-129 -150h-193z" />
<glyph unicode="&#x2dc;" horiz-adv-x="1024" d="M180 1055q6 97 50 160t120 63q52 0 158 -42t141 -42q51 0 56 72h137q-11 -100 -55.5 -157.5t-124.5 -57.5q-49 0 -156 42t-137 42q-49 0 -52 -80h-137z" />
<glyph unicode="&#x2000;" horiz-adv-x="947" />
<glyph unicode="&#x2001;" horiz-adv-x="1894" />
<glyph unicode="&#x2002;" horiz-adv-x="947" />
<glyph unicode="&#x2003;" horiz-adv-x="1894" />
<glyph unicode="&#x2004;" horiz-adv-x="631" />
<glyph unicode="&#x2005;" horiz-adv-x="473" />
<glyph unicode="&#x2006;" horiz-adv-x="315" />
<glyph unicode="&#x2007;" horiz-adv-x="315" />
<glyph unicode="&#x2008;" horiz-adv-x="236" />
<glyph unicode="&#x2009;" horiz-adv-x="378" />
<glyph unicode="&#x200a;" horiz-adv-x="105" />
<glyph unicode="&#x2010;" horiz-adv-x="886" d="M106 422v182h674v-182h-674z" />
<glyph unicode="&#x2011;" horiz-adv-x="886" d="M106 422v182h674v-182h-674z" />
<glyph unicode="&#x2012;" horiz-adv-x="886" d="M106 422v182h674v-182h-674z" />
<glyph unicode="&#x2013;" horiz-adv-x="1200" d="M127 442v162h946v-162h-946z" />
<glyph unicode="&#x2014;" horiz-adv-x="1531" d="M127 442v162h1278v-162h-1278z" />
<glyph unicode="&#x2018;" horiz-adv-x="452" d="M59 973v149q0 131 96.5 207t243.5 76q15 0 39 -4q-60 -22 -95.5 -45t-55 -56.5t-25.5 -71t-6 -98.5v-157h-197z" />
<glyph unicode="&#x2019;" horiz-adv-x="452" d="M14 948q114 43 148.5 97.5t34.5 173.5v157h196v-149q0 -131 -96.5 -207t-243.5 -76q-15 0 -39 4z" />
<glyph unicode="&#x201a;" horiz-adv-x="452" d="M-43 -231q79 29 118 64t51.5 79.5t12.5 126.5v158h197v-150q0 -131 -96.5 -207t-243.5 -76q-9 0 -39 5z" />
<glyph unicode="&#x201c;" horiz-adv-x="811" d="M59 973v123q0 131 96.5 206.5t243.5 75.5q15 0 39 -4q-79 -29 -118 -64t-51.5 -79.5t-12.5 -126.5v-131h-197zM418 973v149q0 131 96.5 207t243.5 76q15 0 39 -4q-114 -43 -148.5 -97.5t-34.5 -173.5v-157h-196z" />
<glyph unicode="&#x201d;" horiz-adv-x="811" d="M14 948q114 43 148.5 97.5t34.5 173.5v157h196v-149q0 -131 -96.5 -207t-243.5 -76q-15 0 -39 4zM373 975q79 29 118 64t51.5 79.5t12.5 126.5v131h197v-123q0 -131 -96.5 -206.5t-243.5 -75.5q-15 0 -39 4z" />
<glyph unicode="&#x201e;" horiz-adv-x="811" d="M-51 -231q79 29 118 64t51.5 79.5t12.5 126.5v158h197v-150q0 -131 -96.5 -207t-243.5 -76q-9 0 -39 5zM307 -205q60 22 95.5 45t55 56.5t25.5 71t6 98.5v131h197v-123q0 -131 -96.5 -207t-243.5 -76q-15 0 -39 4z" />
<glyph unicode="&#x2022;" horiz-adv-x="1024" d="M266 618q0 101 72.5 173.5t173.5 72.5t173.5 -72.5t72.5 -173.5t-72.5 -173t-173.5 -72t-173.5 72t-72.5 173z" />
<glyph unicode="&#x2026;" horiz-adv-x="2048" d="M233 0v227h218v-227h-218zM915 0v227h218v-227h-218zM1599 0v227h218v-227h-218z" />
<glyph unicode="&#x202f;" horiz-adv-x="378" />
<glyph unicode="&#x2039;" horiz-adv-x="598" d="M55 463l303 391h215l-303 -391l303 -391h-215z" />
<glyph unicode="&#x203a;" horiz-adv-x="598" d="M25 72l303 391l-303 391h215l303 -391l-303 -391h-215z" />
<glyph unicode="&#x205f;" horiz-adv-x="473" />
<glyph unicode="&#x20ac;" d="M-25 479l37 154h140q-2 18 -2 55q0 45 2 68h-177l37 153h162q24 103 72 191t117 157t165 108.5t207 39.5q210 0 387 -139l-57 -183q-161 134 -330 134q-140 0 -232.5 -89t-119.5 -219h563l-37 -153h-549q-2 -23 -2 -68q0 -37 2 -55h533l-37 -154h-475q11 -63 39 -118 t73 -100t112.5 -71t150.5 -26q98 0 194 41.5t170 118.5v-224q-163 -125 -381 -125q-112 0 -209 40t-166.5 110t-117.5 159.5t-72 194.5h-199z" />
<glyph unicode="&#x2122;" horiz-adv-x="835" d="M51 1290v86h307v-86h-108v-289h-90v289h-109zM401 1001v375h76l115 -135l117 135h75v-375h-92v218l-98 -117l-102 117v-218h-91z" />
<glyph unicode="&#x25fc;" horiz-adv-x="931" d="M0 0v932h932v-932h-932z" />
</font>
</defs>
</svg>
