<?xml version="1.0" encoding="utf-8"?>
<!-- Generator: Adobe Illustrator 17.0.0, SVG Export Plug-In . SVG Version: 6.00 Build 0)  -->
<!DOCTYPE svg PUBLIC "-//W3C//DTD SVG 1.1//EN" "http://www.w3.org/Graphics/SVG/1.1/DTD/svg11.dtd">
<svg version="1.1" id="Layer_1" xmlns="http://www.w3.org/2000/svg" xmlns:xlink="http://www.w3.org/1999/xlink" x="0px" y="0px"
	 width="240.8px" height="103.2px" viewBox="0 0 240.8 103.2" enable-background="new 0 0 240.8 103.2" xml:space="preserve">
<g>
	<g>
		<g>
			<path d="M207.613,13.389c-2.028-4.31-12.013-3.879-18.732,1.398c-3.571,2.806-8.261,8.163-6.726,7.784
				c3.275-0.811,3.94-2.21,4.887-3.147c1.11-1.099,3.967-5.359,9.15-7.112c5.183-1.753,8.773-0.544,9.445,1.847
				c0.67,2.392-1.377,8.208-6.668,11.782c-3.749,2.533-8.312,4.823-14.157,5.549c3.122-4.658,6.018-8.883,6.837-9.958
				c2.501-3.286,1.192-2.944-0.31-2.448c-1.185,0.393-1.786,1.212-2.573,2.372l-6.68,10.002c-2.092-0.342-1.367-1.155-3.129-1.352
				c0,0-2.093-0.055-1.592,0.378c0.276,0.237,1.314,1.366,4.03,2.012L165.961,55.73c-0.506,0.744,0.612,0.493,1.302,0.28
				c0.916-0.285,1.696-0.862,2.086-1.342c0.311-0.385,8.437-12.683,14.781-22.159c1.372-0.045,2.848-0.168,4.348-0.408
				c5.694-0.914,12.508-4.042,15.027-6.698C206.023,22.746,209.756,17.943,207.613,13.389z"/>
			<path d="M234.109,38.317c-0.821,0.583-2.789,1.048-3.204-0.098c-0.143-0.399,0.101-1.024,0.501-1.722
				c0.74-1.091,2.374-3.539,4.218-6.256c0.659-0.969-1.819-1.298-2.775,0.054l-0.297,0.443c-1.114-1.331-3.567-1.534-5.367-0.715
				v0.001c-1.159,0.467-2.302,1.374-3.177,2.636c-1.846,2.653-1.816,5.864,0.065,7.171c1.364,0.949,3.33,0.633,5.009-0.627
				c0.885,0.944,2.959,0.887,4.816,0.042c-1.24,2.168-1.241,3.713-1.712,3.738c-38.99,2.04-56.809,12.421-56.809,12.421
				c-1.318,0.876,1.076,0.272,2.982,0.01c1.921-0.263,3.259-0.656,3.259-0.656c23.139-10.877,51.95-10.784,51.95-10.784
				c0.38-0.003,0.439,0.035,0.794-1.016c0.357-1.052,1.198-3.506,1.964-5.098l0.254-0.548c0.372-0.883-0.698-0.471-1.145-0.089
				C235.067,37.541,234.765,37.851,234.109,38.317z M229.696,34.921c-0.178,0.282-0.367,0.568-0.561,0.861l-0.009,0.014
				c-0.045,0.067-0.09,0.133-0.136,0.199c-1.547,2.226-3.537,3.518-4.445,2.886c-0.908-0.63-0.393-2.946,1.156-5.172
				c1.547-2.226,3.486-3.44,4.445-2.886c1.279,0.736,0.769,2.107-0.227,3.741C229.849,34.671,229.774,34.792,229.696,34.921z"/>
			<path d="M222.842,30.609c-0.839,0.118-7.696,1.101-7.696,1.101c-2.743,0.407-2.095,0.104-4.539,4.236
				c-1.31,2.214-3.866,6.291-6.224,6.62c-0.003,0.001-0.006,0.001-0.006,0.001l-5.123,0.713c0.103-0.09,0.196-0.176,0.283-0.251
				c0.245-0.214,5.713-6.08,9.018-9.141c0.981-0.91,1.062-1.434,0.223-1.315c-0.838,0.118-7.696,1.1-7.696,1.1
				c-2.741,0.408-2.165,0.113-4.607,4.245c-1.311,2.216-4.079,6.826-6.459,6.831c-2.428,0.002-0.397-3.034,0.629-4.534l0.002-0.001
				c0.696-1.024,1.313-1.943,2.208-3.261c0.539-0.796-2.215-0.86-2.713-0.037l-2.04,3.018c-1.835,2.703-1.779,6.404,2.033,5.856
				c3.939-0.566,6.584-6.045,7.764-8.034c1.604-2.7,1.609-2.846,3.025-3.055l3.215-0.443c1.233-0.202,0.5,0.581-0.072,1.14
				l-8.292,8.279c-0.771,0.747-0.268,1.056,0.925,0.875c0.011-0.002,0.025-0.004,0.037-0.006l7.45-1.056h0.003
				c0.059-0.007,0.118-0.016,0.176-0.026c0.853-0.138,1.916-0.439,2.676-0.945c2.275-1.517,4.188-5.196,5.082-6.699
				c1.603-2.699,1.416-2.857,2.861-3.083l3.215-0.442c1.234-0.202,0.502,0.581-0.072,1.139l-8.291,8.279
				c-0.771,0.746-0.269,1.055,0.924,0.875c0.014-0.002,0.027-0.006,0.037-0.007l8.691-1.237l0.695-0.987l-6.869,0.96
				c0.103-0.09,0.198-0.176,0.284-0.251c0.246-0.213,5.714-6.08,9.018-9.141C223.601,31.015,223.68,30.491,222.842,30.609z"/>
			<path d="M132.191,31.451c-0.209-1.69-1.512-2.632-3.238-3.059c-0.647-0.16-1.354-0.247-2.084-0.274
				c-3.588,0.002-8.463,1.994-11.984,5.304c-7.56,7.103-12.97,19.037-7.462,22.908c2.395,1.686,5.776,0.568,7.655-0.183
				c-0.625,0.866-1.243,1.725-1.776,2.528c0,0-0.182,0.292-0.396,0.624c-7.829,1.105-14.732,4.068-18.126,9.525
				c-2.391,3.843-2.27,6.766,0.412,8.516c5.452,3.556,11.738-5.175,13.456-7.707c0.361-0.532,3.486-5.107,6.424-9.405
				c0.441-0.029,0.874-0.048,1.302-0.059c4.095-0.1,7.578,1.917,8.19,1.948c1.517,0.075,3.766,0.152,3.185-0.228
				c-2.419-1.577-8.081-3.062-11.824-2.909c1.571-2.299,3-4.389,3.802-5.563c0.616-0.845,1.737-2.93,2.39-4.035
				c2.07-3.496-0.469-3.046-1.996-2.807c0,0-1.116,0.353-1.71,0.531c-1.082,0.323-3.374,1.641-1.328,1.524
				c2.761-0.159,1.723,2.111-0.15,4.89c-2.207,1.719-5.797,3.29-8.057,1.763c-1.629-1.102-1.333-4.482,0.347-8.865
				c1.717-4.466,5.434-10.125,10.8-14.131c1.678-1.253,3.258-2.031,4.634-2.42c0.609-0.17,1.177-0.265,1.699-0.29
				c2.259-0.14,3.523,0.875,3.553,1.805c0,0.028,0,0.054,0,0.082c-0.006,0.927-0.575,1.647-1.28,2.073
				c-1.047,0.632-0.968,1.346-0.016,1.466C130.584,35.252,132.479,33.778,132.191,31.451z M105.248,70.608
				c-3.986,5.875-6.719,7.198-8.97,5.851c-2.808-1.678,1.036-9.06,6.319-12.195c3.56-2.112,6.643-3.164,9.44-3.671
				C109.417,64.412,106.457,68.828,105.248,70.608z"/>
			<path d="M87.759,22.177c-5.601-4.868-17.932-5.289-29.073,1.526c-9.218,5.64-18.198,16.822-28.162,34.153
				c-9.049,15.742-12.791,8.659-12.791,8.659c8.532-5.923,10.238-13.413,9.441-15.547c-0.877-2.354-3.984-1.835-8.265,3.82
				c-5.803,7.662-3.972,11.387-3.972,11.387c-2.573,2.421-6.166,4.284-7.557,2.761c-1.858-2.036-0.455-4.922,4.097-11.179
				c4.549-6.257,5.687-7.888,10.579-13.614c4.891-5.726-1.895-3.394-3.752-2.611c-1.202,0.506,0.737,0.246,1.334,0.398
				c0,0,0.731,0.169,0.193,0.784c0,0-15.856,17.545-15.688,23.51c0.167,5.966,6.499,5.666,11.821,1.442
				c0,0,6.471,7.229,16.229-7.584c9.757-14.814,15.89-23.93,19.895-28.263c7.28-7.873,19.153-13.568,27.958-11.665
				c5.79,1.251,6.781,4.584,7.724,5.271c0.26,0.191,2.177,0.456,2.775,0.346C91.185,25.654,89.091,23.333,87.759,22.177z
				 M16.9,64.851c-0.305-2.579,3.014-7.996,6.572-12.32c3.135-3.809,3.034-0.548-0.497,4.914C19.875,62.242,16.9,64.851,16.9,64.851
				z"/>
			<path d="M167.621,22.193c-2.292,0.921-3.443,2.042-1.995,1.715c1.292-0.294,0.53,0.606,0.53,0.606L154.09,42.305
				c-0.782-1.058-2.084-1.5-3.14-1.575l0.005,0.006c-1.336-0.074-2.851,0.576-4.105,1.795l-0.012,0.004
				c-2.183,2.392-4.496,0.34-4.496,0.34h-0.002c-0.056-0.046-0.114-0.09-0.174-0.134c-1.508-1.047-3.817-0.429-5.611,1.346h-0.003
				c-0.005,0.006-0.006,0.009-0.011,0.014c-0.067,0.064-0.131,0.132-0.196,0.2c-2.12,2.052-4.289,0.127-4.289,0.127v0.001
				c-0.058-0.047-0.115-0.092-0.176-0.133c-1.807-1.256-4.765-0.121-6.609,2.534c-1.844,2.654-1.877,5.824-0.07,7.078
				c1.805,1.255,4.765,0.121,6.609-2.534c1.336-1.925,1.721-4.12,1.143-5.66c0.531,0.316,1.314,0.417,2.204,0.194
				c-1.436,2.507-1.333,5.288,0.332,6.445c1.805,1.254,4.764,0.12,6.608-2.533c1.338-1.925,1.721-4.12,1.143-5.66
				c0.634,0.404,1.442,0.454,2.205,0.194c-1.428,2.513-1.271,5.334,0.463,6.54c1.462,1.014,3.611,0.58,5.363-0.91
				c1.523,1.512,5.352,0.088,5.929-1.445c0.067-0.177-2.057-0.188-2.247,0.051c-0.483,0.612-1.441,0.997-1.922,0.342
				c-0.235-0.32-0.037-0.89,0.34-1.548c0.399-0.578,0.991-1.448,1.719-2.52l0.002-0.002l0,0
				c4.001-5.879,12.053-17.781,13.948-20.271C171.541,21.304,170.704,20.952,167.621,22.193z M136.536,51.605
				c-0.174,0-0.324-0.042-0.444-0.125c-0.366-0.255-0.461-0.912-0.262-1.804c0.217-0.97,0.748-2.095,1.494-3.171
				c0.458-0.659,1.542-1.93,2.499-2.536c0.491-0.311,0.936-0.476,1.286-0.476c0.16,0,0.298,0.034,0.411,0.102
				c0.016,0.012,0.04,0.031,0.078,0.056c0.336,0.28,0.413,0.943,0.207,1.821c-0.223,0.958-0.749,2.066-1.481,3.119
				C139.092,50.366,137.535,51.605,136.536,51.605z M126.25,53.158c-0.174,0-0.325-0.042-0.444-0.125
				c-0.366-0.255-0.461-0.913-0.263-1.804c0.216-0.969,0.748-2.095,1.495-3.169c1.232-1.774,2.79-3.014,3.787-3.014
				c0.159,0,0.297,0.035,0.41,0.103c0.016,0.012,0.044,0.031,0.078,0.055c0.336,0.28,0.413,0.944,0.209,1.822
				c-0.224,0.958-0.751,2.065-1.481,3.12C128.807,51.919,127.249,53.158,126.25,53.158z M146.823,50.051
				c-0.174,0-0.326-0.043-0.444-0.125c-0.366-0.255-0.461-0.912-0.263-1.804c0.216-0.969,0.747-2.095,1.495-3.17
				c0.285-0.409,1.305-1.802,2.496-2.535c0.486-0.309,0.927-0.472,1.279-0.477c0.204,0.041,0.414,0.136,0.612,0.277
				c0.498,0.679,0.122,2.651-1.388,4.821C149.379,48.812,147.82,50.051,146.823,50.051z"/>
			<ellipse transform="matrix(0.8211 0.5708 -0.5708 0.8211 53.8231 -104.5176)" cx="193.627" cy="33.594" rx="1.19" ry="1.75"/>
			<path d="M92.295,49.178c-1.146,0.49-1.785,1.211-2.571,2.371l-2.804,4.131c-1.68,2.362-3.806,4.831-5.626,4.4
				c-2.043-0.484-0.817-2.795,0.401-4.563c0.05-0.074,0.1-0.144,0.148-0.213c0.407-0.579,0.797-1.084,1.049-1.429
				c0.73-1.003,0.917-1.248,1.363-1.946c0.445-0.699,1.135-2.014-0.182-1.941c-1.318,0.074-1.455,0.221-2.422,1.525
				c-0.969,1.303-1.943,2.755-1.943,2.755c-0.056,0.087-0.109,0.172-0.162,0.258h-0.002c-0.881,1.274-3.662,6.631-6.043,6.633
				c-2.427,0.003-0.396-3.034,0.633-4.533l-0.002-0.001c4.132-6.074,12.712-18.765,14.63-21.281c2.501-3.287,1.192-2.943-0.31-2.447
				c-1.186,0.39-1.785,1.211-2.573,2.371L71.681,56.208v0.002c-1.333,1.968-3.666,5.579-6.061,6.096
				c-0.85,0.183-1.581-0.022-2.132-0.293c0.497-0.365,1.008-0.78,1.534-1.251V60.76c0.655-0.502,1.296-1.141,1.869-1.898
				c1.967-2.601,2.404-5.585,0.976-6.667c-1.428-1.082-4.182,0.15-6.151,2.749c-1.126,1.489-1.75,3.102-1.811,4.414l-0.001,0.002
				c-0.105,1.266,0.282,2.186,0.967,2.82c-1.146,0.805-2.409,1.374-4.366,1.604c-1.167,0.136-2.192-0.045-2.956-0.461
				c0.756-0.547,1.453-1.13,2.079-1.72c0.212-0.192,0.422-0.398,0.628-0.619c0.006-0.007,0.012-0.013,0.019-0.019l0.001-0.003
				c0.23-0.25,0.456-0.516,0.671-0.801c1.969-2.601,2.406-5.585,0.978-6.666c-1.43-1.082-4.184,0.149-6.151,2.749
				c-1.157,1.527-1.785,3.187-1.816,4.516l-0.002,0.002c0,0.012,0,0.024,0,0.036c-0.006,0.382,0.039,0.736,0.135,1.051
				c0.175,0.65,0.511,1.162,0.952,1.561c-1.929,1.415-3.914,2.133-5.43,2.111c-2.403-0.035,0.679-3.869,2.24-6.589
				c1.782-3.106,0.486-5.535-3.106-4.968c-0.617,0.097-1.31,0.296-2.063,0.62c4.327-6.303,8.903-12.961,10.097-14.652
				c2.489-3.521,1.137-3.008-1.289-2.098c-2.427,0.91-3.185,1.492-2.352,1.492c0.835,0,0.38,0.606,0.38,0.606L34.311,62.306
				c0,0-0.002,0.002-0.003,0.004l0,0l-3.389,4.984c-0.506,0.746,0.695,0.586,1.414,0.54c0.958-0.062,1.351-0.176,1.757-0.734
				c0.179-0.245,2.772-4.024,5.988-8.71c0.802-1.076,2.626-3.119,4.976-3.241c2.031-0.106,1.121,1.784,0.16,3.351
				c-1.137,1.855-5.94,8.037-0.518,8.037c2.721,0,5.353-0.992,7.599-2.372c1.246,0.5,2.784,0.568,4.068,0.458
				c2.042-0.173,3.841-0.6,5.743-1.7c1.017,0.39,2.28,0.493,3.543,0.336c2.326-0.289,3.804-0.999,5.054-2.162
				c0.428,0.838,1.36,1.325,2.92,1.105c1.732-0.243,3.259-1.217,4.559-2.424c0.346,0.656,1.067,1.097,2.23,1.269
				c1.078,0.161,2.089,0.055,3.033-0.242l-2.966,4.373c-4.4,2.416-8.889,4.58-11.437,6.143c-7.292,4.476-6.758,11.021-1.869,11.021
				c5.355,0,7.605-4.738,9.038-6.842l0,0l0,0c1.961-2.885,4.576-6.739,7.154-10.522c2.691-1.593,5.047-3.084,5.877-3.855
				c1.894-1.759,3.407-5.081,2.085-3.548c-1.416,1.643-3.688,3.323-6.289,4.95c1.944-2.847,3.777-5.521,5.185-7.547
				c0.694-0.947,1.308-1.862,1.847-2.621c0.218-0.303,0.399-0.548,0.535-0.729C95.107,48.34,93.698,48.579,92.295,49.178z
				 M52.564,62.13c-0.055,0.036-0.106,0.066-0.156,0.091c-0.341-0.629-0.402-1.407-0.093-2.27c0.28-0.679,0.668-1.453,1.138-2.253
				c1.318-2.233,2.79-3.804,3.289-3.51c0.444,0.262-0.033,1.916-1.073,3.851C54.793,59.661,53.717,61.026,52.564,62.13z
				 M62.386,60.904c-0.367-0.798-0.317-1.857,0.204-2.994c0.229-0.481,0.5-0.991,0.807-1.512c1.316-2.232,2.789-3.803,3.287-3.509
				c0.5,0.295-0.163,2.343-1.479,4.577C64.183,59.198,63.068,60.53,62.386,60.904z M73.31,75.741h-0.001
				c-0.973,1.435-3.406,5.957-6.062,5.387c-2.122-0.456-1.24-3.625-0.049-5.417c1.416-2.128,3.577-3.759,7.823-6.035
				c1.077-0.576,2.412-1.309,3.833-2.105L73.31,75.741z"/>
			<path d="M219.49,41.343c0.852-0.138,1.314-0.363,2.033-0.929c2.065-1.633,2.603-4.098,3.497-5.602l-2.117,0.135
				c-0.276,1.098-1.791,5.046-4.475,5.654C218.423,40.601,219.431,41.353,219.49,41.343z"/>
		</g>
	</g>
	<g>
		<g>
			<path d="M111.866,4.4h-1.489v-1.34h4.516V4.4h-1.489v7.617h-1.538V4.4z"/>
			<path d="M115.798,12.017V3.061h1.539v3.647h1.637V3.061h1.539v8.957h-1.539v-3.97h-1.637v3.97H115.798z"/>
			<path d="M122.001,12.017V3.061h4.119V4.4h-2.58v2.307h1.985v1.34h-1.985v2.63h2.754v1.34H122.001z"/>
		</g>
	</g>
	<g>
		<g>
			<path d="M115.432,92.969v-0.695c0-0.38-0.075-0.655-0.223-0.825c-0.149-0.169-0.323-0.254-0.521-0.254
				c-0.314,0-0.529,0.081-0.645,0.242s-0.173,0.412-0.173,0.75v4.541c0,0.339,0.058,0.589,0.173,0.75s0.331,0.242,0.645,0.242
				c0.281,0,0.476-0.079,0.583-0.235c0.107-0.157,0.161-0.38,0.161-0.67v-1.08h1.538v1.03c0,0.314-0.048,0.612-0.143,0.893
				c-0.095,0.281-0.236,0.525-0.422,0.732c-0.186,0.207-0.424,0.37-0.713,0.49c-0.29,0.12-0.625,0.18-1.005,0.18
				c-0.405,0-0.754-0.06-1.048-0.18c-0.294-0.12-0.538-0.283-0.732-0.49c-0.194-0.207-0.339-0.451-0.434-0.732
				c-0.095-0.281-0.143-0.579-0.143-0.893V92.15c0-0.314,0.048-0.612,0.143-0.893c0.095-0.281,0.24-0.525,0.434-0.732
				c0.194-0.207,0.438-0.37,0.732-0.49c0.293-0.12,0.643-0.18,1.048-0.18c0.38,0,0.715,0.066,1.005,0.198
				c0.29,0.133,0.527,0.311,0.713,0.534s0.327,0.484,0.422,0.781c0.095,0.298,0.143,0.612,0.143,0.943v0.658H115.432z"/>
			<path d="M118.533,92.15c0-0.314,0.048-0.612,0.143-0.893c0.095-0.281,0.24-0.525,0.434-0.732c0.194-0.207,0.438-0.37,0.732-0.49
				c0.293-0.12,0.643-0.18,1.048-0.18s0.755,0.06,1.048,0.18c0.293,0.12,0.538,0.284,0.732,0.49s0.339,0.451,0.434,0.732
				c0.095,0.281,0.143,0.579,0.143,0.893v4.615c0,0.314-0.048,0.612-0.143,0.893c-0.095,0.281-0.24,0.525-0.434,0.732
				c-0.194,0.207-0.438,0.37-0.732,0.49c-0.293,0.12-0.643,0.18-1.048,0.18s-0.754-0.06-1.048-0.18
				c-0.294-0.12-0.538-0.283-0.732-0.49c-0.194-0.207-0.339-0.451-0.434-0.732c-0.095-0.281-0.143-0.579-0.143-0.893V92.15z
				 M120.071,96.728c0,0.339,0.058,0.589,0.173,0.75s0.331,0.242,0.645,0.242c0.314,0,0.529-0.081,0.646-0.242
				c0.116-0.161,0.173-0.412,0.173-0.75v-4.541c0-0.339-0.058-0.589-0.173-0.75c-0.116-0.161-0.331-0.242-0.646-0.242
				c-0.314,0-0.529,0.081-0.645,0.242s-0.173,0.412-0.173,0.75V96.728z"/>
			<path d="M124.636,98.936v-1.464h1.464v1.464H124.636z"/>
		</g>
	</g>
</g>
</svg>
